<svg clip-rule="evenodd" fill-rule="evenodd" height="50mm" image-rendering="optimizeQuality" shape-rendering="geometricPrecision" text-rendering="geometricPrecision" viewBox="0 0 50 50" width="50mm" xmlns="http://www.w3.org/2000/svg"><path d="m27.67 15.225v-3.5436h4.4396v-4.4293h-4.9344v-3.8933h-4.366v3.8933h-4.9344v4.4293h4.4396v3.5436" style="clip-rule:evenodd;fill-rule:evenodd;fill:#5f5955;image-rendering:optimizeQuality;shape-rendering:geometricPrecision;stroke-linecap:round;stroke-width:1.2;stroke:#1e1e1e"/><rect fill="#5f5955" height="2.7873" ry="1.3937" stroke="#1e1e1e" stroke-linejoin="round" stroke-width="1.2" width="9.3984" x="20.299" y="14.215"/><path d="m26.416 14.215c.72479 0 1.3082.62142 1.3082 1.3935 0 .77209-.58336 1.3935-1.3082 1.3935h1.9736c.72478 0 1.3081-.62144 1.3081-1.3935 0-.77209-.58336-1.3935-1.3081-1.3935z" opacity=".18"/><path d="m21.631 14.842c-.40169 0-.72499.34468-.72499.77259 0 .42787.3233.77227.72499.77227h.87379c-.40169 0-.72499-.3444-.72499-.77227 0-.42791.3233-.77259.72499-.77259z" fill="#fff" opacity=".25"/><g clip-rule="evenodd" fill-rule="evenodd" image-rendering="optimizeQuality" shape-rendering="geometricPrecision"><path d="m33.635 36.986s7.776-13.318 6.6127-15.916c-1.1632-2.5964-8.4802-4.4974-15.248-4.4974-6.7677 0-14.084 1.9004-15.248 4.4974-1.1632 2.5966 6.6127 15.916 6.6127 15.916z" fill="#5f5955" stroke="#1e1e1e" stroke-linecap="round" stroke-width="1.2"/><path d="m24.996 16.576c15.938 2.6216 12.573 9.3539 6.6406 22.543l2.0273-1.7288s7.7472-13.723 6.5839-16.32c-1.5452-2.8334-7.5027-4.1592-15.252-4.4945z" opacity=".18"/><path d="m23.765 17.295c-3.904-.18436-14.621 1.8014-13.503 5.0167.81724 3.7274 2.7544 7.244 4.5085 10.504-5.6872-10.335-5.9421-13.774 8.9943-15.521z" fill="#fff" opacity=".25"/><path d="m23.391 3.997-.01613 3.3123h.54565l.01622-3.3123zm-4.9311 3.8699-.0075 3.2077h.77316l.0075-3.2077zm4.4128 3.213.02573 2.4859h.52l-.02573-2.4859z" fill="#fff" opacity=".25"/><path d="m26.189 3.3582-.000019 3.8935h.98678l.000028-3.8935zm4.441 3.8937v4.9453h1.4802v-4.9453zm-4.4396 4.4291.000027 2.4923h1.4802l-.000028-2.4923z" opacity=".18"/><path d="m25 36.457s-9.1309.0481-11.691 1.6192c-1.7273 1.0602-2.1348 3.6514-1.8998 6.3237h27.182c.23495-2.6723-.17255-5.2636-1.8999-6.3237-2.5597-1.5711-11.691-1.6192-11.691-1.6192z" fill="#5f5955" stroke="#1e1e1e" stroke-linejoin="round" stroke-width="1.2"/><path d="m25 37.147s-8.7121-.13732-11.624 1.6658c-.36985.22904-.69925.83943-.95359 1.3902.26077-.3313.50213-.61301.88663-.84901 2.5598-1.5711 11.691-1.6191 11.691-1.6191s9.1318.0479 11.692 1.6191c.39104.24.59243.53161.85561.87009.0258-.0759-.40837-1.1578-1.1438-1.5962-2.7554-1.492-11.403-1.4808-11.403-1.4808z" fill="#fff" opacity=".25"/></g></svg>