<svg clip-rule="evenodd" fill-rule="evenodd" height="50mm" image-rendering="optimizeQuality" shape-rendering="geometricPrecision" text-rendering="geometricPrecision" viewBox="0 0 50 50" width="50mm" xmlns="http://www.w3.org/2000/svg"><path d="m24.959 5.0937a2.9585 3.3158 90 0 0 -3.3155 2.9585 2.9585 3.3158 90 0 0 3.3155 2.9585 2.9585 3.3158 90 0 0 3.316-2.9585 2.9585 3.3158 90 0 0 -3.316-2.9585z" style="clip-rule:evenodd;fill-rule:evenodd;fill:#f0f0f0;image-rendering:optimizeQuality;shape-rendering:geometricPrecision;stroke-linecap:round;stroke-linejoin:round;stroke-width:1.1999;stroke:#3c3c3c"/><path clip-rule="evenodd" d="m24.836 5.7323c-.37582-.20962-3.7243.80586-2.1848 3.5753-.23547-1.5446.43755-3.2031 2.1848-3.5753z" fill="#fff" fill-rule="evenodd" image-rendering="optimizeQuality" shape-rendering="geometricPrecision"/><path d="m24.959 11.011c-6.5068 0-9.5953 5.8843-9.5951 10.358h19.263c.000199-4.4741-3.1607-10.358-9.6676-10.358z" fill="#f0f0f0" stroke="#3c3c3c" stroke-linecap="round" stroke-linejoin="round" stroke-width="1.2"/><g clip-rule="evenodd" fill-rule="evenodd" image-rendering="optimizeQuality" shape-rendering="geometricPrecision"><path d="m18.161 14.977c1.0418-1.4783 2.9196-3.2199 6.8404-3.3796-.31072.27709-4.7888 1.1374-6.8404 3.3796z" fill="#fff"/><path d="m24.836 5.0067s.04572.23808-.0001 0c2.4799 1.1289 2.0497 3.8473.81734 5.547 7.3536 3.8036 2.2125 8.669 2.2122 8.6681h2.7008c1.7619 1.287 7.2086-2.7409-3.8351-8.669 3.5276-3.1154.09642-5.6072-1.8952-5.5466z" opacity=".15"/><path d="m25 15.225c-1.971 0-2.3483 2.6494-4.1366 2.8592-1.8213.21366-3.3816-2.3114-5.2505-1.7361-1.4945.46001-.77828 2.5999-1.8053 3.1752-1.4018.78508-3.1845-1.8324-5.2902-.29827 6.8387 8.8288 8.0859 12.377 7.9833 18.819l16.998-.000099c-.10268-6.4426 1.1445-9.9904 7.9831-18.819-2.1056-1.5341-3.8884 1.0833-5.2901.29827-1.0271-.57526-.31082-2.7152-1.8053-3.1752-1.8688-.57526-3.4293 1.9498-5.2506 1.7361-1.7884-.20981-2.1655-2.8592-4.1365-2.8592z" fill="#f0f0f0" stroke="#3c3c3c" stroke-linecap="round" stroke-linejoin="round" stroke-width="1.1999"/><path d="m9.8952 19.34c-.13588-.0099-.33139.05615-.45862.08471 3.0815 4.0999 6.5751 9.5372 7.0991 12.417-1.4062-4.9323-3.2664-9.5622-6.1403-12.472z" fill="#fff"/><path d="m39.974 18.735c-9.4852 10.003-9.9239 17.985-16.941 19.31h10.476c-.10268-6.4427 1.1445-9.9905 7.9831-18.819 0 0-.68803-.75582-1.5179-.49124z" opacity=".15"/></g><path d="m14.912 18.945c.20277-.08767 1.1841-1.8078 1.9805-1.9501-1.42-.34555-1.6188-.0463-1.9805 1.9501z" fill="#fff"/><path d="m22.511 17.876c.95342-.84704 1.6333-2.6551 3.2379-1.8453-.79746-.22882-2.2148 1.0403-3.2379 1.8453z" fill="#fff"/><path d="m31.12 18.133c.20983.06994 2.1762-1.6423 2.8625-1.2176 0 0-1.4313 1.1196-2.8625 1.2176z" fill="#fff"/><path d="m25 36.457s-9.1309.048-11.691 1.6192c-1.7273 1.0602-2.1348 3.6515-1.8998 6.3237l27.182-.0001c.2349-2.6723-.1726-5.2635-1.8999-6.3237-2.5598-1.5711-11.691-1.6192-11.691-1.6192z" style="clip-rule:evenodd;fill-rule:evenodd;fill:#f0f0f0;image-rendering:optimizeQuality;shape-rendering:geometricPrecision;stroke-linejoin:round;stroke-width:1.2;stroke:#3c3c3c"/><path clip-rule="evenodd" d="m25 37.147s-8.7121-.1374-11.624 1.6658c-.3699.229-.6993.8394-.9536 1.3902.2608-.3313.5021-.613.8866-.849 2.5597-1.5711 11.691-1.6192 11.691-1.6192s9.1318.048 11.692 1.6192c.3911.24.5925.5316.8556.87.026-.076-.4083-1.1578-1.1438-1.5962-2.7554-1.492-11.403-1.4808-11.403-1.4808z" fill="#fff" fill-rule="evenodd" image-rendering="optimizeQuality" shape-rendering="geometricPrecision"/></svg>