<svg viewBox="0 0 2048 2048" xmlns="http://www.w3.org/2000/svg"><path d="m501.64494 1810.9843 48.3236-354.3731-260.02697-269.2314s-166.32924-288.13389 29.91461-480.93486c262.32809-257.72584 506.24719 20.71012 506.24719 20.71012l195.59553-165.6809 184.0899 165.6809s216.3056-232.41349 430.3101-75.93708c214.0045 156.4764 255.4247 317.55505 117.3573 531.55952-138.0674 214.0045-250.8225 280.7371-250.8225 280.7371l55.227 347.4697z" fill="#f9f9f9"/><path d="m977 298v-95h94v95h107v95h-107v153q-48-16-94 0v-153h-107v-95zm47 314q-47 0-136 121-31-36-50-55 93-140 186-140 92 0 186 140-20 19-50 55-90-121-136-121zm-447 907-26 156 145-84zm410-206q-1-147-36.5-274.5t-80.5-193.5q-45-88-131.5-153t-168.5-65q-103 0-208 93t-105 229q0 109 86.5 236t202.5 223q212-88 441-95zm37 530h-576l61-365q-325-280-326-535-1-159 125-274.5t267-115.5q78 0 158.5 47t142.5 119q61 74 98.5 164.5t49.5 150.5q12-60 49-150.5t99-164.5q61-72 142-119t159-47q140 0 266 115.5t126 274.5q-2 255-326 535l61 365zm0-74h489l-50-298q-216-84-439-84t-439 84l-50 298zm447-250 26 156-145-84zm-410-206q229 7 441 95 115-96 202-223t87-236q0-136-105.5-229t-207.5-93q-83 0-169.5 65t-130.5 153q-46 66-81.5 193.5t-35.5 274.5zm-176 233 141-84 137 86-141 84z" fill="#101010"/></svg>