<svg clip-rule="evenodd" fill-rule="evenodd" height="50mm" image-rendering="optimizeQuality" shape-rendering="geometricPrecision" text-rendering="geometricPrecision" viewBox="0 0 50 50" width="50mm" xmlns="http://www.w3.org/2000/svg"><path d="m25.004 5.75c-1.683 0-3.0472 1.0985-3.047 2.4526 0 .50298.19448.99341.55392 1.405-2.5407 3.3068-8.7811 9.8002-8.9854 16.336-.08682 3.3751 3.9331 8.7237 4.1072 9.2597.17395.53603 1.3328.93394 3.2684 1.1767-1.3305 4.5905-10.098-1.0786-14.147 3.3708l1.8417 4.4992c5.5729-3.1223 9.9671 3.1494 16.409-3.4216v.0011c6.4409 6.5692 10.835.29848 16.407 3.4206l1.8423-4.4992c-4.0498-4.4493-12.817 1.2197-14.148-3.3708 1.9355-.24281 3.0944-.64072 3.2684-1.1767.17404-.53602 4.1939-5.8846 4.1072-9.2597-.20424-6.5357-6.4446-13.029-8.9853-16.336.35944-.41155.55392-.90198.55392-1.405.00019-1.3539-1.3635-2.4522-3.046-2.4526z" fill="#545454" stroke="#1e1e1e" stroke-linejoin="round" stroke-width="1.5"/><path d="m25.004 21.106c-.69896 0-1.0193.34157-1.0193 1.0247v2.4532h-2.3882c-.64074 0-.96112.31056-.96112.93159 0 .62102.32037.93159.96112.93159h2.3882v2.4531c0 .68312.34938 1.0247 1.0193 1.0247.66984 0 1.0193-.34156 1.0193-1.0247v-2.4531h2.4756c.61174 0 .93192-.31057.93192-.93159 0-.62103-.32018-.93159-.93192-.93159h-2.4756v-2.4532c0-.68312-.34948-1.0247-1.0193-1.0247z" opacity=".5" stroke-width=".26139"/><path d="m25.004 5.7499c-.82726.000203-1.6196.27079-2.1937.75028 3.9366.19367 4.0448 2.2614 3.0721 3.4745 1.1014 2.3939 2.8198 4.2002 4.1606 6.4317 0 0 11.604 21.888-13.358 17.253 0 0 .62919 1.5525 2.0301 2.28.69997.36358 1.1638.39546 2.1852.4406 1.3232.08091 5.3334.5372 6.3058.69063 1.9373 7.0557 13.332.01127 15.127 4.9301l.92114-2.2496c-3.7259-4.4524-9.9963 1.0631-14.057-3.3101 1.3791-.21434 2.3919-.60348 2.9538-.89834 0-.14281 4.4217-6.0649 4.331-9.5988-.20444-6.5348-6.4431-13.027-8.9846-16.335.35926-.41204.55317-.90342.55363-1.4069 0-1.3543-1.3644-2.452-3.0475-2.4521z" opacity=".25"/><g fill="#fff"><path d="m23.797 6.8981c-.71354.31972-1.2649.95021-1.0015 1.7786.08402.3206.31483.50746.46568.78995.06651.27839-.0111.53895-.14309.7301-1.5756 1.9467-5.5659 6.4117-7.4138 10.599-.70467 1.7357-1.5656 3.7459-1.3961 5.6483.47446 3.4126 3.388 7.3918 3.388 7.3918s-2.0532-4.357-2.246-7.0213c-.03231-7.0794 5.7998-12.424 8.3009-17.099-.37876-1.5773-1.1724-1.4646.04601-2.8178z" opacity=".25"/><path d="m9.01 43.191c0-.05846-1.345-3.2618-1.345-3.2618 2.9204-2.5601 8.3691-.29926 11.229-.95259-4.2861.84733-7.6386-.50981-10.069 1.0913z" opacity=".25"/></g></svg>