<svg clip-rule="evenodd" fill-rule="evenodd" height="50mm" image-rendering="optimizeQuality" shape-rendering="geometricPrecision" text-rendering="geometricPrecision" viewBox="0 0 50 50" width="50mm" xmlns="http://www.w3.org/2000/svg"><g clip-rule="evenodd" fill-rule="evenodd" image-rendering="optimizeQuality" shape-rendering="geometricPrecision"><path d="m22.803 5.7681-2.4951.46807-.99475 3.425-2.1691-1.4236-1.4275.42473.76065 4.9507-9.7021 14.98c-.35806 5.9558 1.8713 6.0166 6.1429 7.6475 4.9733-7.0194 10.689-5.0167 15.371-10.323.56336 6.6219-15.845 9.1995-13.646 18.275l27.09.05772c3.811-16.778 1.0194-27.751-14.607-33.796z" fill="#545454" stroke="#1e1e1e" stroke-linejoin="round" stroke-width="1.5"/><path d="m21.619 17.718c-.45045-.01013-.83497.28487-1.0899.60894-.41403.53268-.62949 1.1779-.74842 1.8208-.0434.27687-.0938.55759-.077.8376.0267.09722.14479.06279.21772.04355.63126-.11757 1.2892-.1278 1.9064-.31596.44739-.13965.80151-.46382 1.0337-.84074.23371-.35829.33389-.77218.47167-1.1671.0612-.13854.0444-.31536-.0957-.40741-.23243-.16021-.51391-.24122-.77239-.35617-.25395-.09621-.50543-.22857-.7877-.2234-.0197-.000506-.0385-.000709-.0592-.000506z" opacity=".5"/><path d="m22.803 5.7681-1.2472.23414 3.8075 5.7019c19.045 8.1245 18.868 24.79 6.8599 32.524l9.5094.02127c3.811-16.778 1.0234-27.751-14.604-33.796z" opacity=".25"/><path d="m16.586 9.2113c.14568 1.7055.87366 4.4306.57125 4.8355l-9.6105 14.731c-.32313 3.6093 1.0667 4.8874 1.3427 4.8316-.0878.01013-1.4184-2.1288-.53098-4.6477l9.6706-14.883-1.4317-4.8573c-.14044-.13205.15841.0719-.0109-.0101z" fill="#fff" opacity=".25"/><path d="m27.442 25.617s2.0209-2.6244 1.9893-3.8231 1.0654 5.553-1.3028 6.363c-.0977-.41278.27289-1.7089.19887-1.9927-.31948-1.2239-.88481-.41713-.8854-.54716z" opacity=".25" stroke="#000" stroke-width=".26458"/></g><path d="m28.727 28.005c-2.8345 6.2323-14.734 8.1391-13.325 15.542-1.0724-6.5367 13.176-8.8793 13.325-15.542z" fill="#fff" opacity=".25"/><path d="m10.763 28.109s-.0466 2.3858-1.5613 2.1851c0 0-1.8342-1.0159 1.5613-2.1851z" opacity=".5"/></svg>