<svg clip-rule="evenodd" fill-rule="evenodd" height="50mm" image-rendering="optimizeQuality" shape-rendering="geometricPrecision" text-rendering="geometricPrecision" viewBox="0 0 50 50" width="50mm" xmlns="http://www.w3.org/2000/svg"><g stroke-width="1.0256" transform="matrix(.98735 0 0 .96296 -3412.8 2056)"><path d="m3475.9-2129.1c-2.4151 0-4.3728 1.9556-4.3728 4.3666 0 1.9799 1.3397 3.7106 3.2575 4.2159v11.159l-5.3614-7.493c.4851-.7196.7452-1.5674.7452-2.4348 0-2.4117-1.9583-4.3665-4.3741-4.3665-2.4152 0-4.3737 1.9554-4.3737 4.3665.065 2.1401 1.9355 3.8159 4.3287 4.3651l.879 4.2366 1.7597 8.4738 2.7656 5.1912 1.1197 6.4702c0 .8005 4.3188 1.4495 9.6474 1.4495 5.3288 0 9.6486-.6489 9.6481-1.4495l1.1197-6.4702 2.7655-5.1912 1.7601-8.4738.8788-4.2366c2.3929-.5492 4.2636-2.225 4.3278-4.3651 0-2.4111-1.9572-4.3659-4.3725-4.3665-2.4159 0-4.3744 1.9548-4.3742 4.3665 0 .8674.2596 1.7152.7446 2.4348l-5.361 7.493v-11.159c1.9175-.5053 3.2546-2.236 3.2571-4.2159 0-2.4112-1.9571-4.3661-4.3724-4.3666-2.416 0-4.3751 1.9547-4.3745 4.3666 0 1.425.7017 2.7591 1.8728 3.5738l-3.5199 10.364-3.5202-10.364c1.1712-.8147 1.8739-2.1488 1.8739-3.5738 0-2.4117-1.9583-4.3663-4.374-4.3666z" fill="#545454" stroke="#1e1e1e" stroke-width="1.5383"/><path d="m3498.4-2124c.9506.9857 3.2987 5.321-2.0774 8.7326l-5.1907 13.456c-6.9617 1.2558-14.694 1.553-20.32-.4199l1.9055 3.1248c6.5928 2.2955 17.806.4878 17.806.4878-1.074 3.5702-2.5789 6.8474-5.6655 9.4251 0 0 4.5197.1199 6.6122-1.3763l1.5703-6.7967 2.7646-5.1905 1.7609-8.4741.8781-4.2361c2.3928-.5492 4.2642-2.225 4.3285-4.3651 0-2.4111-1.9571-4.3669-4.3724-4.3675z" opacity=".25"/><g fill="#010101"><path d="m3475.9-2129.1c-.2653 0-.5236.028-.7759.073 3.03 1.8543 2.4106 6.0001 1.6053 7.3743l5.1917 8.6587-.7765-1.8013-2.7439-6.3641c1.1712-.8147 1.8738-2.1488 1.8738-3.5738 0-2.4117-1.9582-4.3663-4.374-4.3666z" opacity=".25"/><path d="m3487.9-2129.1c-.2652 0-.5241.028-.7764.073 4.562 1.3181 1.7767 6.5658.6545 6.9886l1.2375 10.482-.0003-1.5334v-7.4273c1.9173-.5053 3.2549-2.2359 3.2574-4.2159 0-2.4112-1.9574-4.366-4.3727-4.3666z" opacity=".25"/><path d="m3465.7-2123.7c-.2655 0-.5241.027-.7764.073 3.2853 1.2451 3.0603 4.4661 2.3788 6.6464l7.3881 7.5749-5.3616-7.4927c.4853-.7197.7451-1.5675.7451-2.4348 0-2.4118-1.9582-4.3666-4.374-4.3666z" opacity=".25"/></g><g fill="#fff"><path d="m3463.5-2122.2s-3.3148 2.7068.1229 5.5131c-.2221-.5696-.9176-3.9075-.1229-5.5131z" opacity=".25"/><path d="m3474.1-2127.9c-.3635-.1616-3.3454 2.2823-1.1664 5.3464.1-.496-.8467-3.9097 1.1664-5.3464z" opacity=".25"/><path d="m3486.4-2128c-.3635-.1616-3.5492 2.2607-1.3243 5.4009-.1702-.575-.7274-4.3957 1.3243-5.4009z" opacity=".25"/><path d="m3466.4-2115.5 2.6865 13.055 2.7896 5.2399 1.1015 6.4144.7109.2341-1.0989-6.6996-2.8406-5.1633z" opacity=".25"/><path d="m3496.5-2122.5c-.3635-.1616-3.5182 2.3534-1.3088 5.4473-.2134-1.0213-1.0458-4.5218 1.3088-5.4473z" opacity=".25"/></g></g></svg>