<svg clip-rule="evenodd" fill-rule="evenodd" height="50mm" image-rendering="optimizeQuality" shape-rendering="geometricPrecision" text-rendering="geometricPrecision" viewBox="0 0 50 50" width="50mm" xmlns="http://www.w3.org/2000/svg"><g stroke-width="1.0395" transform="matrix(.96234 0 0 .9617 -3133.3 2054.9)"><path d="m3281.9-2090.7c6.3612 0 11.51-.5605 11.51-1.2488l1.3415-6.5248c11.336-7.8219 6.6894-19.658-3.3492-19.615-2.0834.01-4.8937.5303-6.2643 1.3374l-.8757-4.0994h3.8947c1.1702.1305 1.7699-1.6001 1.7699-2.668 0-1.0677-.5922-2.6676-1.7699-2.6676h-3.3879v-3.0921c0-.9698-1.8043-1.4548-2.891-1.4548s-2.8908.485-2.8908 1.4548v3.0921h-3.3881c-1.1798 0-1.7699 1.5999-1.7699 2.6676 0 1.0678.6 2.7985 1.7699 2.668h3.8949l-.8759 4.0994c-1.3706-.8071-4.1808-1.3282-6.2643-1.3374-10.038-.043-14.685 11.794-3.3492 19.615l1.3416 6.5248c0 .6883 5.1491 1.2461 11.51 1.2488h.023z" fill="#e9e9e9" stroke="#2a2a2a" stroke-width="1.5592"/><path d="m3287.7-2126.4c-.5507-.01-.9684.097-.9863.1851.7384.7519 3.7573 4.344-3.7379 3.7916-.902.5064.1495 7.329.8917 9.2492 0 0 1.2196-.5467 2.0501-.977 14.763-4.2534 12.706 12.372 3.9025 15.299-5.255.7955-13.114 1.1194-18.294.3496l.413 2.538c6.7439.6034 6.5956.4642 15.112.5902 4.1998 2.8421-11.95 3.965-16.701 3.3965.093.2632 23.03 1.2251 23.059.036l1.3415-6.5595c11.335-7.8217 6.69-19.658-3.3476-19.616-.8758 0-1.8772.1036-2.8489.2717l-3.4115 1.065-.8758-4.0992h3.8944c1.0266.2939 1.7428-1.581 1.7698-2.668.151-2.2513-1.4303-2.7041-2.2284-2.8526z" opacity=".2"/><g fill="#fff"><path d="m3282.9-2129.8c-.9418-.2532-2.572-.1944-3.1698.5507-.044.055-.034.2145-.033.2952l.028 3.5759h-3.4534c-.296-.0001-.7873-.016-.9702.088-.3702.2066-.7164.9405-.7498 1.7896-.027.6892.5007 1.8969.8776 1.9299.2369.021.5759-.028 1.182-.01-1.8841-.6985-1.3983-3.5024-.2002-3.4503l3.6295-.028-.046-3.143c-.014-.9697.6505-1.4712 1.7371-1.4712.4268 0 1.4284.041 1.924.1912-.5186-.3013-.7564-.3164-.7564-.3164z"/><path d="m3279.9-2119.2-.7695 3.6613c-1.3708-.8072-4.1103-1.7664-6.1937-1.7756-9.4147-.7528-14.415 10.655-3.2398 18.389l1.3485 6.6205.1082.015-.4514-6.7164c-10.51-7.7425-6.8645-17.498 3.1741-17.455 2.0833.01 4.2535.9782 5.6244 1.7853l.9083-6.8699z"/></g></g></svg>