<svg clip-rule="evenodd" fill-rule="evenodd" height="50mm" image-rendering="optimizeQuality" shape-rendering="geometricPrecision" text-rendering="geometricPrecision" viewBox="0 0 50 50" width="50mm" xmlns="http://www.w3.org/2000/svg"><path d="m25 11.961c-3.3902 0-6.032 2.5048-6.0318 5.818 0 1.7039.71604 3.3334 1.9758 4.5138-3.8962 1.6923-3.6436 2.322-3.2357 6.479h3.776c-1.6602 8.2274-9.0206 6.3377-8.8618 15.471 0 0 24.748.00013 24.755 0 .15874-9.1331-7.2016-7.2433-8.8618-15.471h3.776c.40794-4.1571.66002-4.7868-3.2362-6.479 1.2598-1.1804 1.9758-2.8098 1.9758-4.5138.00019-3.3132-2.6411-5.818-6.0313-5.818z" fill="#e9e9e9" stroke="#2a2a2a" stroke-linejoin="round" stroke-width="1.5"/><path d="m24.999 11.96c-.59417.000098-1.164.0812-1.7018.22639 8.0421 1.2589 6.7309 8.9478 2.3547 10.106 1.8357.66327 3.7 1.6055 4.3417 2.4531.58043.76681.14263 2.5335.14263 2.5335l-12.555.20424.12755 1.0195 5.6946.02152c1.7109 8.0976 14.126 6.6282 13.968 15.718.1581-9.09-7.1186-7.6421-8.8294-15.74h3.7524c.30853-4.9806 1.0182-3.6047-3.2385-6.2102 1.26-1.1804 1.973-2.8095 1.9759-4.5134 0-3.3137-2.6425-5.8199-6.0326-5.8194z" opacity=".2"/><g fill="#fff"><path d="m23.738 12.775c-.30115-.10596-4.2789 1.2445-3.9859 5.2966.11988 1.6582 1.2172 3.1759 1.38 3.1417l.49283.55855s-.94579-1.9951-.94579-3.7008c0-3.1561 3.0636-5.2995 3.0636-5.2995zm-1.5715 16.489c-1.9673 8.0639-8.2306 6.4704-8.7503 14.133v-.01565c1.7604-6.2922 7.3951-5.5061 9.1372-14.063z"/><path d="m22.256 22.461c-1.3967.67214-3.8134 1.3694-3.9424 2.7879l1.7618-.40406c.14323-.32022.64077-1.4054 2.2088-2.3914z"/></g></svg>