<svg clip-rule="evenodd" fill-rule="evenodd" height="50mm" image-rendering="optimizeQuality" shape-rendering="geometricPrecision" text-rendering="geometricPrecision" viewBox="0 0 50 50" width="50mm" xmlns="http://www.w3.org/2000/svg"><g stroke-width="1.0059" transform="matrix(1.0028 0 0 .98551 329.39 26.504)"><g stroke-linejoin="round"><path d="m-305.98-21.216v3.6049h-3.6816v4.7643h3.4839l-.60303 3.8283c-6.8639-3.0299-12.594-1.4134-14.997 3.5107-2.1612 6.171 1.6671 8.7942 5.7486 12.497v7.8788c3.4575 2.0431 9.6274 2.2474 12.482 2.2823.0175-.000114.0227 0 .0326 0h.0175c2.8544-.03476 9.0244-.23922 12.482-2.2823v-7.9225c4.0628-3.6792 7.852-6.3073 5.6997-12.453-2.4032-4.9241-8.1328-6.5406-14.997-3.5107l-.60564-3.8283h3.4868v-4.7643h-3.6816v-3.6049z" fill="#404040" stroke="#141414" stroke-width="1.2071"/><g fill="none" stroke="#e6e6e6" stroke-width="2.0119"><path d="m-305.85 2.4857-8.3791.79434s-6.9828-3.6466-3.8611-8.0425c3.1218-4.3962 12.909-1.2464 12.24 7.2482z"/><path d="m-301.24 2.4857 8.3791.79434s6.9829-3.6466 3.8611-8.0425c-3.1218-4.3962-12.909-1.2464-12.24 7.2482z"/></g></g><path d="m-293.15 10.436c-2.6009-1.0087-6.0709-1.518-10.395-1.518-4.3608 0-7.8667.5188-10.525 1.5495l-.00011 3.0167c2.6735-.97863 6.3882-1.4687 10.525-1.4687 4.1144 0 7.8086.47919 10.395 1.4374z" fill="#e6e6e6" stroke-width="1.0059"/><path d="m-293.72-10.551c-.88174-.0011-1.8076.09593-2.7683.29146 2.6193.63042 4.6751 2.2702 5.8859 4.7511 2.1523 6.1461-1.6371 8.7743-5.6999 12.454v7.3933c-.54159 1.1434-12.449 1.8617-15.556 2.027 1.0133.0539 7.6139.77618 8.3158.78475.0175-.000122.0232 0 .0331 0h.017c2.8544-.0348 9.0244-.2395 12.482-2.2826v-7.9225c4.0628-3.6792 7.8522-6.3074 5.6999-12.454-1.5771-3.2314-4.5866-5.0385-8.4093-5.0426z" opacity=".15"/><path d="m-303.55-21.216v4.5573h2.6174v2.7547l.011 1.0571.5636 3.5625-.56359-3.5625h3.4868v-4.7643h-3.3379l-.34377-3.6049z" opacity=".15"/></g></svg>