<svg clip-rule="evenodd" fill-rule="evenodd" height="50mm" image-rendering="optimizeQuality" shape-rendering="geometricPrecision" text-rendering="geometricPrecision" viewBox="0 0 50 50" width="50mm" xmlns="http://www.w3.org/2000/svg"><g transform="translate(535 -76.285)"><path d="m-522.62 85.833v7.7333l4.8329 4.0175v10.204l-6.588 6.9652v4.932h28.745v-4.932l-6.5874-6.9652v-10.204l4.8329-4.0175v-7.7333h-5.2993v3.1011h-3.992v-3.1011h-6.6534v3.1011h-3.992v-3.1011z" fill="#404040" stroke="#141414" stroke-width="1.2"/><path d="m-510 92.741h-8.7496l3.3066 2.5h11.004l3.1887-2.5z" fill="#e6e6e6" stroke-width="1.0042"/><path d="m-500.96 85.833v7.7332l-4.8326 4.0174v10.204l6.5873 6.9653v4.9319h3.5728v-4.9319l-6.5878-6.9653v-10.204l4.8331-4.0174v-7.7332z" opacity=".15"/><g fill="#e6e6e6" stroke-width="1.0042"><path d="m-510 115.02h-10.027l2.7763-2.5h14.636l2.6422 2.5z"/><path d="m-509.94 110.94h-6.7886l1.7622-2.2h10.146l1.6693 2.2z"/><path d="m-509.94 96.828h-4.9728l1.7453 2.2h6.525l1.6754-2.2z"/></g></g></svg>