<svg clip-rule="evenodd" fill-rule="evenodd" height="50mm" image-rendering="optimizeQuality" shape-rendering="geometricPrecision" text-rendering="geometricPrecision" viewBox="0 0 50 50" width="50mm" xmlns="http://www.w3.org/2000/svg"><g stroke-width="1.0242" transform="matrix(.97733 0 0 .97544 430.59 80.521)"><path d="m-415.06-74.758v.0052c-.79459.02794-1.4993.30856-2.0562.87436-.62006.59683-.91364 1.3191-.91364 2.1358 0 1.225.55484 2.1048 1.6971 2.7016-.81588.94235-1.7298 1.8529-2.7089 2.6696-1.8602 1.602-4.3403 2.8903-5.1888 5.0891-.42425 1.068-.65268 2.0728-.65268 2.9523 0 .5026.0327 1.0684.1633 1.7281.0979.62824.35872 1.3191.75034 1.9787.29371.53401.6856 1.005 1.1751 1.4134.45689.40836 1.2725.94284 2.48 1.6025l-2.3823 5.748c.68533.2513 1.4361.47155 2.2846.69143.84851.21988 1.6642.37653 2.4474.47077-3.753 4.5547-9.8883-1.7273-14.163 2.8903l2.2521 3.5491c5.4174-2.9841 8.701 2.7234 14.327-2.2298.55968-.49277.55027-.51529 1.1095 0 5.5123 5.0793 8.9094-.75427 14.327 2.2298l2.2515-3.5491c-4.2752-4.6175-10.41 1.6644-14.163-2.8903.78324-.09424 1.5989-.25089 2.4474-.47077s1.5993-.44013 2.2846-.69143l-2.3823-5.748c1.2075-.65965 2.0236-1.1941 2.4805-1.6025.48952-.40835.88089-.87935 1.1746-1.4134.39162-.65965.65245-1.3505.75035-1.9787.13058-.65965.16329-1.2255.16329-1.7281 0-.87952-.22842-1.8843-.65267-2.9523-.8485-2.1988-3.3286-3.4871-5.1888-5.0891-.97904-.81671-1.893-1.7273-2.7089-2.6696 1.1422-.59682 1.697-1.4766 1.697-2.7016 0-.8167-.29357-1.539-.91363-2.1358-.5569-.56581-1.2616-.84642-2.0562-.87436v-.0052c-.022 0-.0432.0021-.0651.0026-.0219-.000265-.0431-.0026-.0651-.0026z" fill="#fafafa" stroke="#3a3a3a" stroke-width="1.229"/><path d="m-409.38-46.425-.9003-2.293c-1.4405-.31412-3.001-.50259-4.7116-.50259s-3.2711.15706-4.6816.50259l-.9003 2.2616c1.7406-.47117 3.6012-.69106 5.5519-.69106 1.9806 0 3.8413.2513 5.6419.72247z" fill="#3a3a3a" stroke-width=".27098"/><path d="m-415.12-63.45c-.78324 0-1.1422.34552-1.1422 1.0366v2.4815h-2.6761c-.71796 0-1.077.31411-1.077.94235h.48952v-.15706.15706h-.48952c0 .62823.35899.94235 1.077.94235h2.6761v2.4815c0 .69105.39162 1.0366 1.1422 1.0366s1.1422-.34553 1.1422-1.0366v-2.4815h2.774c.68533 0 1.0443-.31412 1.0443-.94235h-.22844v-.15706.15706h.22844c0-.62824-.35898-.94235-1.0443-.94235h-2.774v-2.4815c0-.69106-.39162-1.0366-1.1422-1.0366z" fill="#3a3a3a" stroke-width=".27098"/><path d="m-415.06-74.758c-.78352 0-1.4633.22501-2.0175.69418.069.0588.1373.11899.20232.18516 4.839.71149 3.8639 3.2326 1.3795 4.8377-1.1319.96761-.28485 1.9729.54594 2.6699 1.8604 1.602 4.3403 2.8896 5.1883 5.0885.4244 1.0679.65323 2.0735.65323 2.9531 0 .50255-.0335 1.0678-.16381 1.7274-.0975.62821-.35888 1.3195-.75026 1.9792-.29386.534-.68499 1.005-1.1747 1.4133-.45692.40842-1.273.94235-2.4804 1.602l2.3826 5.7484c-.68524.25132-1.4358.4714-2.2843.69125-.84855.21992-1.6646.37704-2.4476.47127 5.1851 6.6207 11.872.50268 17.469 3.9855.94983-1.6764-.67924 1.0704.69524-1.0956-1.336-1.443-2.8535-1.8214-4.4233-1.7989-2.6792.10244-5.2858.81019-7.5174.43796h.008c-.80404-.24468-1.5563-.70948-2.2303-1.528.78303-.0939 1.5988-.25135 2.4476-.47128.84855-.21984 1.5991-.43992 2.2843-.69124l-2.3821-5.7484c1.2074-.65962 2.0235-1.1936 2.4804-1.602.48967-.40829.88056-.87932 1.1742-1.4133.39164-.65961.65298-1.3509.75076-1.9792.1303-.65962.16381-1.2248.16381-1.7274 0-.87955-.22883-1.8852-.65323-2.9531-.8483-2.1989-3.3289-3.4865-5.1893-5.0885-.97884-.81671-1.8919-1.7274-2.708-2.6699 1.1424-.59679 1.6968-1.4763 1.6968-2.7013 0-.81669-.29361-1.5396-.91382-2.1364-.58746-.59684-1.3377-.87934-2.1863-.87934z" opacity=".15"/></g></svg>