<svg clip-rule="evenodd" fill-rule="evenodd" height="50mm" image-rendering="optimizeQuality" shape-rendering="geometricPrecision" text-rendering="geometricPrecision" viewBox="0 0 50 50" width="50mm" xmlns="http://www.w3.org/2000/svg" xmlns:xlink="http://www.w3.org/1999/xlink"><linearGradient id="a" gradientTransform="matrix(1.019 0 0 1.0751 -3392.3 527.45)" gradientUnits="userSpaceOnUse" x1="3341.2" x2="3366.2" xlink:href="#b" y1="-469.26" y2="-469.26"/><linearGradient id="b"><stop offset="0" stop-color="#fff"/><stop offset="1" stop-color="#bba38a"/></linearGradient><linearGradient id="c" gradientTransform="matrix(1.1509 0 0 1.1499 214.24 -138.92)" gradientUnits="userSpaceOnUse" x1="-177.63" x2="-151.24" xlink:href="#b" y1="156.68" y2="156.68"/><g clip-rule="evenodd" fill-rule="evenodd" image-rendering="optimizeQuality" shape-rendering="geometricPrecision"><path d="m26.87 8.2235c-5.7968-2.2985-6.9525 2.5263-4.6685 5.8595-9.8971 10.6-11.253 16.425-6.1943 24.204h17.989c6.0849-6.9125 2.5592-14.515-4.8221-22.3-2.883 4.1189-3.2739 7.3506-3.9463 11.131l-3.6205-.071064c-.65878-6.0056 7.6222-15.14 5.262-18.823z" fill="url(#a)" stroke="#323232" stroke-linejoin="round" stroke-width="1.6001"/><path d="m24.933 7.6537c-.62516.020427-.20706.19682-.77138.5678 0 .00215.01019.00538.01019.00753 3.5817-.31103-2.3684 11.772-3.3939 18.894.53599-3.0139 1.3246-5.6805 3.0822-8.7248 2.0033-4.3517 4.2364-8.6814 3.0078-10.169-.41137-.38082-1.1444-.6013-1.9342-.57557zm4.2391 8.3386c-.59938.85616-.51572.66974-.9709 1.4621 6.004 6.0484 8.7278 13.787 3.0964 20.838h2.6967c6.0849-6.9125 2.5589-14.515-4.8222-22.3z" opacity=".1" stroke-width="1.1001"/><path d="m13.24 38.286c-1.4368 0-2.627 1.2165-2.627 2.6847v.5449l.01254 2.6847h28.749l.01254-2.6847v-.5449c0-1.4682-1.1903-2.6847-2.627-2.6847h-11.76z" fill="url(#c)" stroke="#323232" stroke-linecap="round" stroke-linejoin="round" stroke-width="1.6"/></g><path d="m14.895 34.327c-.7157-1.3956-3.2662-6.8121 4.5135-15.739-2.1002 4.8607-5.9584 8.6896-4.5135 15.739z" fill="#fff"/></svg>