<svg clip-rule="evenodd" fill-rule="evenodd" height="50mm" image-rendering="optimizeQuality" shape-rendering="geometricPrecision" text-rendering="geometricPrecision" viewBox="0 0 50 50" width="50mm" xmlns="http://www.w3.org/2000/svg" xmlns:xlink="http://www.w3.org/1999/xlink"><linearGradient id="a" gradientUnits="userSpaceOnUse" x1="5.9" x2="44.1" xlink:href="#b" y1="22.2" y2="22.2"/><linearGradient id="b"><stop offset="0" stop-color="#fff"/><stop offset="1" stop-color="#bba38a"/></linearGradient><linearGradient id="c" gradientUnits="userSpaceOnUse" x1="9.8" x2="40.17" xlink:href="#b" y1="41.24" y2="41.24"/><g clip-rule="evenodd" fill-rule="evenodd" image-rendering="optimizeQuality" shape-rendering="geometricPrecision"><path d="m25 6.1218c-2.6353.00022-4.7713 2.0979-4.7713 4.6852.002 1.855 1.1179 3.5343 2.8467 4.2827-.36917 2.2866-1.51 7.5584-4.6802 8.009-2.355.33458-3.8548-1.287-4.8797-3.1438 1.1081-.79144 1.7645-2.0549 1.7667-3.4002.00013-2.327-1.9212-4.2133-4.2912-4.2133-2.3701-.00009-4.2915 1.8864-4.2912 4.2133.001 2.1427 1.6404 3.9431 3.8089 4.1837l4.973 17.54h19.036l4.9736-17.54c2.1683-.24104 3.807-2.0414 3.8083-4.1837.00013-2.327-1.9212-4.2133-4.2912-4.2133-2.3698.00025-4.2909 1.8866-4.2906 4.2133.002 1.3452.65826 2.6086 1.7661 3.4002-1.025 1.8569-2.5248 3.4784-4.8797 3.1438-3.1702-.45052-4.311-5.7223-4.6802-8.009 1.7288-.7483 2.8451-2.4276 2.8467-4.2827.00024-2.5871-2.1355-4.6846-4.7706-4.6852z" fill="url(#a)" stroke="#323232" stroke-linejoin="round" stroke-width="1.6"/><path d="m39.002 12.342c-.53645.001-1.0679.10189-1.5667.29578 4.7409 1.6785 3.8762 6.8051.59092 7.3161l-7.6127 18.326h4.2002l4.8712-17.541c2.1684-.24105 3.8071-2.0414 3.8083-4.1839.00013-2.327-1.9213-4.2135-4.2913-4.2134z" opacity=".1" stroke-width="1.1"/><path d="m13.227 38.286c-1.4368 0-2.627 1.2165-2.627 2.6847v.5449l.0125 2.6847h28.749l.0125-2.6847v-.5449c0-1.4682-1.1903-2.6847-2.627-2.6847h-11.76z" fill="url(#c)" stroke="#323232" stroke-linecap="round" stroke-linejoin="round" stroke-width="1.6"/></g><g fill="#fff"><path d="m9.515 13.489c-.79426 1.1694-1.7265 2.667-1.5544 4.779 0 0-1.604-3.0096 1.5544-4.779z"/><path d="m23.659 7.2299c-.85334.87402-2.3709 2.9344-2.1332 5.3744-.2069-.0846-1.7289-3.8928 2.1332-5.3744z"/><path d="m12.062 23.328 5.244 14.111-1.1693.0233z"/></g></svg>