<svg clip-rule="evenodd" fill-rule="evenodd" height="50mm" image-rendering="optimizeQuality" shape-rendering="geometricPrecision" text-rendering="geometricPrecision" viewBox="0 0 50 50" width="50mm" xmlns="http://www.w3.org/2000/svg" xmlns:xlink="http://www.w3.org/1999/xlink"><linearGradient id="a" gradientUnits="userSpaceOnUse" x1="12.05" x2="38.47" xlink:href="#b" y1="24.34" y2="24.34"/><linearGradient id="b"><stop offset="0" stop-color="#fff"/><stop offset="1" stop-color="#bba38a"/></linearGradient><linearGradient id="c" gradientUnits="userSpaceOnUse" x1="9.81" x2="40.18" xlink:href="#b" y1="41.24" y2="41.24"/><g clip-rule="evenodd" fill-rule="evenodd" image-rendering="optimizeQuality" shape-rendering="geometricPrecision"><path d="m12.855 10.383v7.6635c0 3.2673 6.5309 3.7738 6.5309 3.7738-.35331 9.8637-5.0371 16.486-5.0371 16.486l21.428-.0393s-4.6508-6.6191-5.0006-16.446c0 0 6.8967-.50666 6.8967-3.7738v-7.6635h-4.7196s.45836 2.2512-.46991 3.2604c-1.0354 1.1258-2.4188 1.1258-3.4545 0-.92804-1.0092-.4692-3.2604-.4692-3.2604h-6.5909s.45884 2.2512-.4692 3.2604c-1.1221 1.2197-2.6993 1.2197-3.8212 0-.92827-1.0092-.4692-3.2604-.4692-3.2604z" fill="url(#a)" stroke="#323232" stroke-linejoin="round" stroke-width="1.6"/><path d="m37.543 10.462.0141 7.5848c.26286 3.4811-24.581 2.1351-24.523 1.0299 2.0977 2.5323 4.4454 2.6135 6.3521 2.7439 7.2919.4987 9.8002 8.8911 13.306 16.446h2.9697s-4.6508-6.6188-5.0006-16.446c2.5472-.39497 2.9542-.81137 4.0372-1.0573h.0188l-.002-.004c1.023-.23634 2.8088-1.3761 2.8418-2.7129v-7.6635z" opacity=".1" stroke-width=".29103"/><path d="m13.239 38.286c-1.4368 0-2.627 1.2164-2.627 2.6846v.54488l.0126 2.6846h28.75l.0125-2.6846v-.54488c0-1.4682-1.1902-2.6846-2.627-2.6846h-11.76z" fill="url(#c)" stroke="#323232" stroke-linecap="round" stroke-linejoin="round" stroke-width="1.6"/></g><g fill="#fff"><path d="m13.656 11.168v5.5397c.48028-1.8669.29904-4.0881 1.5544-5.5397z"/><path d="m22.877 11.163c.0551.89628-.15446 1.7484-.26894 2.6165.48028-1.8669 1.8234-2.6165 1.8234-2.6165z"/><path d="m16.947 35.312c.87464-1.1426 3.6027-10.333 3.2332-13.244.69976.38944.65743 10.057-3.2332 13.244z"/><path d="m33.863 11.209c.005.59849-.0546 1.2261-.18709 2.0201.48028-1.8669 1.295-2.0408 1.295-2.0408z"/></g></svg>