<svg height="1" viewBox="-14.05 -10 220 220" width="1" xmlns="http://www.w3.org/2000/svg"><switch><g><path d="m96.1 176.3h-46.3v15.8h92.5v-15.8z"/><path d="m96.1 176.3h-46.3v15.8h92.5v-15.8z" fill="none" stroke="#000" stroke-miterlimit="10" stroke-width="6"/><path d="m49.8 168.5v7.8h92.5v-7.8" fill="#fff"/><path d="m49.8 168.5v7.8h92.5v-7.8" fill="none" stroke="#000" stroke-miterlimit="10" stroke-width="6"/><path d="m103.7 68.4v-25.9h23.2v-15.8h-23.2l.1-23.6h-15.5v23.6h-23.1v15.8h23.1v25.9"/><path d="m103.7 68.4v-25.9h23.2v-15.8h-23.2l.1-23.6h-15.5v23.6h-23.1v15.8h23.1v25.9" fill="none" stroke="#000" stroke-miterlimit="10" stroke-width="6"/><path d="m187.3 75.7c-7.2-28.7-34.5-31.7-34.5-31.7-38.5-5.4-56.4 36.8-56.8 37.8-.4-1-18.3-43.3-56.8-37.9 0 0-27.4 3-34.5 31.7 0 0-13.8 51.8 45 92.8h92.5c58.8-40.9 45.1-92.7 45.1-92.7"/><g fill="none" stroke-miterlimit="10"><path d="m187.3 75.7c-7.2-28.7-34.5-31.7-34.5-31.7-38.5-5.4-56.4 36.8-56.8 37.8-.4-1-18.3-43.3-56.8-37.9 0 0-27.4 3-34.5 31.7 0 0-13.8 51.8 45 92.8h92.5c58.8-40.9 45.1-92.7 45.1-92.7zm-99-7.3h15.4" stroke="#000" stroke-width="6"/><path d="m147.5 67.2c-25.1-2.2-43.6 50.9-43.6 50.9v32.8s26.2-.6 46.6-21.8c20.4-21.4 22.1-59.8-3-61.9zm-103 0c-25.1 2.2-23.4 40.6-3 61.9s46.8 21.8 46.8 21.8v-32.8s-18.7-53.1-43.8-50.9z" stroke="#fff" stroke-width="6"/><path d="m96 18.8v39.4m-15.4-23.6h30.9" stroke="#fff" stroke-width="4"/></g></g></switch></svg>