<svg height="1" viewBox="-14.15 -10 220 220" width="1" xmlns="http://www.w3.org/2000/svg"><switch><g><path d="m142.2 167.3s.6-7.3-3.6-8.2c-23.8-4.6 36.9-96.4 36.9-96.4s-55.2 62.1-51.8-45.5l-.8-.5c-27.8 98.1-53.7 0-53.7 0l-1 .6c3.4 107.6-51.8 45.5-51.8 45.5s60.7 91.8 36.9 96.4c-4.2.8-3.6 8.2-3.6 8.2"/><path d="m142.2 167.3s.6-7.3-3.6-8.2c-23.8-4.6 36.9-96.4 36.9-96.4s-55.2 62.1-51.8-45.5l-.8-.5c-27.8 98.1-53.7 0-53.7 0l-1 .6c3.4 107.6-51.8 45.5-51.8 45.5s60.7 91.8 36.9 96.4c-4.2.8-3.6 8.2-3.6 8.2" fill="none" stroke="#000" stroke-miterlimit="10" stroke-width="6"/><path d="m49.6 176.3v-7.9h92.6v7.9" fill="#fff"/><path d="m49.6 176.3v-7.9h92.6v7.9" fill="none" stroke="#000" stroke-miterlimit="10" stroke-width="6"/><path d="m74.3 9.8c.9 5.4-3.7 10-9 9.1-3.2-.5-5.8-3.2-6.3-6.5-.9-5.4 3.7-10 9-9.1 3.2.6 5.8 3.2 6.3 6.5"/><path d="m74.3 9.8c.9 5.4-3.7 10-9 9.1-3.2-.5-5.8-3.2-6.3-6.5-.9-5.4 3.7-10 9-9.1 3.2.6 5.8 3.2 6.3 6.5z" fill="none" stroke="#000" stroke-miterlimit="10" stroke-width="6"/><path d="m18.7 56.3c.9 5.4-3.7 10-9 9.1-3.2-.5-5.8-3.2-6.3-6.5-.9-5.4 3.6-10 9-9.1 3.2.6 5.8 3.2 6.3 6.5"/><path d="m18.7 56.3c.9 5.4-3.7 10-9 9.1-3.2-.5-5.8-3.2-6.3-6.5-.9-5.4 3.6-10 9-9.1 3.2.6 5.8 3.2 6.3 6.5z" fill="none" stroke="#000" stroke-miterlimit="10" stroke-width="6"/><path d="m58.1 156.9h75.6" fill="none" stroke="#fff" stroke-miterlimit="10" stroke-width="4"/><path d="m117.5 9.7c-.9 5.4 3.7 10 9 9.1 3.2-.5 5.8-3.2 6.3-6.5.9-5.4-3.7-10-9-9.1-3.2.6-5.8 3.2-6.3 6.5"/><path d="m117.5 9.7c-.9 5.4 3.7 10 9 9.1 3.2-.5 5.8-3.2 6.3-6.5.9-5.4-3.7-10-9-9.1-3.2.6-5.8 3.2-6.3 6.5z" fill="none" stroke="#000" stroke-miterlimit="10" stroke-width="6"/><path d="m173.1 56.2c-.9 5.4 3.7 10 9 9.1 3.2-.5 5.8-3.2 6.3-6.5.9-5.4-3.7-10-9-9.1-3.2.6-5.8 3.2-6.3 6.5"/><path d="m173.1 56.2c-.9 5.4 3.7 10 9 9.1 3.2-.5 5.8-3.2 6.3-6.5.9-5.4-3.7-10-9-9.1-3.2.6-5.8 3.2-6.3 6.5z" fill="none" stroke="#000" stroke-miterlimit="10" stroke-width="6"/><path d="m95.9 176h-46.3v15.7h92.6v-15.7z"/><g fill="none" stroke-miterlimit="10"><path d="m95.9 176h-46.3v15.7h92.6v-15.7z" stroke="#000" stroke-width="6"/><path d="m164.7 76.4-67.5 78.9c-.4.5-1.3.2-1.3-.5l-24.4-120.1" stroke="#fff" stroke-width="4"/><path d="m120 34.7-23.3 118.6c-.3 1.4-2.1 1.9-3 .8l-66.7-77.6" stroke="#fff" stroke-width="4"/></g></g></switch></svg>