<svg viewBox="0 0 2048 2048" xmlns="http://www.w3.org/2000/svg"><path d="m1658.305 1806.04c-408.6146-301.0352-71.5504-920.02575-452.041-1342.626l59.65-16.274s296.14 166.891 319.639 256.663c182.5346 468.4872 41.7595 691.1612 135.679 1076.966zm-686.5-1283.088 120.43 175.73-311.811-2.642zm-473.534 458.494-92.96-41.258 41.481-93.656 127.335 28.017z" fill="#f9f9f9"/><path d="m502 868-52 1-26 64 69 21 46-55zm536-187q34 1-16-68t-80-42l-116 109zm-338-98q6-39 115.5-107.5t220.5-143.5l115-154 96 217q342 172 432.5 417.5t47.5 603.5q-18 128 4.5 236t57.5 190l-1242 1q-9-178 39-301.5t183-237.5q50-11 82.5-39.5t53.5-58.5l62.5-1 138-29 139-97 66.5-207q0-17-8.5-34t-11.5-37q-62 228-161 288.5t-191 58.5q-236-42-292 60l-56 102-217-121 115-82-51-50-122 86-12-297zm981 1192q-102-130-85-308.5t27-362.5-50-351.5-316-275.5q220 164 252.5 342t16.5 350.5-12 329 167 276.5z" fill="#101010"/></svg>