<svg viewBox="0 0 2048 2048" xmlns="http://www.w3.org/2000/svg"><path d="m352.07191 860.62022 786.98429-568.37752 94.346 147.27191s335.9641 103.55056 398.0944 388.88988c62.1304 285.33931 50.6247 973.37531 50.6247 973.37531l-1088.43141 9.2045s-36.81798-289.9416 184.08989-460.2247c220.90786-170.2832 220.90786-211.7034 220.90786-211.7034s-225.51011-71.3349-294.54382-16.1079-117.3573 138.0674-117.3573 138.0674l-128.86292-66.7326 73.63595-85.1415-87.4427-96.6472-94.34606 55.2269z" fill="#f9f9f9"/><path d="m1151 178-115 154c-74 50-147.5 97.83333-220.5 143.5s-111.5 81.5-115.5 107.5l-396 263 12 297 122-86 51 50-115 82 217 121 56-102c37.33333-68 134.66667-88 292-60-12 20-30.33333 48.3333-55 85s-63 60.3333-115 71c-90 76-151 155.1667-183 237.5s-45 182.8333-39 301.5h1242c-23.3333-54.6667-42.5-118.1667-57.5-190.5s-16.5-151.1667-4.5-236.5c28.6667-238.6667 12.8333-439.83333-47.5-603.5s-204.5-302.83333-432.5-417.5zm-17 145 59 133c119.3333 53.33333 206.6667 116 262 188s100 150 134 234c26.6667 96.66667 40.1667 180.8333 40.5 252.5s-2.6667 140-9 205-10.5 131.3333-12.5 199 8.6667 145.8333 32 234.5h-1019c-4-84 12-158.5 48-223.5s84.66667-123.8333 146-176.5c78-22 128.66667-56.1667 152-102.5 23.0452-45.7612 52.9313-89.4052 89.6328-130.9395 13.7932-9.7138 27.6895-14.9977 37.8672-15.0605 10.3813-.064 21.5.5 33.5-1.5 52-7.3333 94.8333-35.6667 128.5-85 33.6667-49.33333 51.1667-104.33333 52.5-165l-19-67c-36.6667 159.33333-99.3333 245-188 257-14 2-29 3.8333-45 5.5-15.7168 1.6372-33.0453 10.5297-51.9785 26.6406-41.11935-24.8861-87.12611-35.2673-138.0215-31.1406-74 6-129 15-165 27l-108.5 73-38.5 45-47-28 78-65-138-144-64 41-4-125 366-241c14.66667-34 58.33333-74 131-120s142-89.66667 208-131zm-173.54297 240.9375c-6.67969.02051-12.83203 2.375-18.45703 7.0625l-116 100 212 2c22.6667 0 17.3333-21.16667-16-63.5-23.95833-30.42708-44.47266-45.61491-61.54297-45.5625zm-458.45703 304.0625-33 4-33 56 57 26 46-55z" fill="#101010"/></svg>