<svg height="100" viewBox="-50 -92.5 398.041 510.02" width="100" xmlns="http://www.w3.org/2000/svg" xmlns:xlink="http://www.w3.org/1999/xlink"><clipPath id="a"><path d="m0 0h308.039062v395.019531h-308.039062zm0 0"/></clipPath><g transform="translate(0 -20)"><path d="m39.136719 363.308594c27.300781 8.164062 66.953125 16.753906 115.164062 16.265625 44.40625-.453125 81.167969-8.457031 107.273438-16.265625-.460938-1.675782-1.167969-4.519532-1.960938-8.054688-2.996093-13.320312-7.414062-41.417968 1.960938-71.074218 12.855469-40.664063 45.925781-91.261719 23.519531-165.949219-23.738281-79.128907-134.40625-102.804688-134.40625-102.804688l1.804688 37.046875-129.273438 93.710938c-8.203125 5.945312-10.195312 17.285156-4.605469 25.730468 2.652344 4.007813 5.398438 8.539063 7.722657 13.191407 2.28125 4.558593 13.035156 21.089843 19.710937 25.390625 5.414063 3.492187 12.390625 3.277344 17.628906-.472656 7.957031-5.695313 17.949219-18.371094 45.960938-15.660157 74.09375 12.648438 92.554687-27.765625 92.554687-27.765625s-11.746094 24.125-59.527344 46.585938c-49.808593 19.105468-82.339843 51.632812-98.886718 106.6875-7.894532 26.257812-4.640625 43.4375-4.640625 43.4375" fill="#4d4d4d"/><path d="m27.363281 179.964844 156.089844-85.554688s18.511719-9.253906 9.253906-27.765625c-4.136719-8.277343-35.765625-44.023437-35.765625-44.023437v37.023437l-138.832031 101.808594zm0 0" fill="#808080"/><path d="m215.558594 173.796875c-31.878906 53.472656-70.101563 81.402344-91.699219 106.082031-18.03125 20.609375-31.027344 69.433594-30 90 .621094 12.367188-51.070313-9.945312-51.070313-9.945312l13.371094-63.761719 27.765625-52.445313 45.25-32.910156zm0 0" fill="#808080"/><g clip-path="url(#a)"><path d="m53.941406 351.472656c32.699219 8.757813 66.34375 13.035156 100.203125 12.675782 30.082031-.304688 60-4.257813 89.136719-11.757813-3.523438-18.964844-5.113281-45.34375 3.585938-72.859375 2.738281-8.664062 6.222656-17.457031 9.914062-26.765625 14.023438-35.390625 29.917969-75.5 13.539062-130.101563-15.089843-50.296874-72.449218-76.007812-103.171874-86.417968l.753906 15.472656c.253906 5.207031-2.136719 10.1875-6.355469 13.242188l-129.277344 93.710937c-1.484375 1.078125-1.835937 3.15625-.792969 4.726563 3.402344 5.136718 6.3125 10.121093 8.65625 14.8125 2.078126 4.15625 10.75 16.675781 14.296876 19.335937.082031.03125.195312-.015625.269531-.066406.796875-.574219 1.820312-1.40625 3-2.371094 8.144531-6.644531 23.296875-19.011719 53.421875-16.101563.371094.035157.742187.085938 1.109375.148438 45.761719 7.8125 65.5625-6.710938 72.691406-14.640625 2.488281-3.046875 3.496094-4.871094 3.53125-4.933594-.09375.171875-.132813.261719-.132813.261719l6.84375-.738281c9.445313-1.023438 18.285157 4.8125 21.058594 13.898437-.03125.066406-.085937.183594-.164062.34375-.085938.179688-.21875.441406-.402344.785156-.539062 1.019532-1.464844 2.632813-2.851562 4.632813-6.5625 9.597656-24.019532 29.78125-63.578126 48.378906-.339843.160157-.6875.308594-1.039062.441407-47.34375 18.15625-74.988281 47.988281-89.640625 96.726562-3.429687 11.421875-4.433594 20.800781-4.605469 27.160156m96.40625 43.546875c-39.15625 0-78.03125-5.691406-115.628906-16.929687-5.523438-1.652344-9.667969-6.246094-10.738281-11.910156-.40625-2.136719-3.703125-21.722657 5.023437-50.746094 14.648438-48.722656 41.253906-82.679688 82.824219-105.105469-1.386719-.203125-2.78125-.421875-4.199219-.660156-17.09375-1.535157-23.871094 3.996093-30.421875 9.34375-1.453125 1.1875-2.960937 2.414062-4.550781 3.554687-10.464844 7.492188-24.195312 7.84375-34.96875.894532-11.3125-7.292969-23.675781-28.507813-25.148438-31.457032-1.789062-3.578125-4.074218-7.472656-6.789062-11.574218-10.191406-15.394532-6.496094-35.925782 8.414062-46.734376l122.515626-88.8125-1.402344-28.707031c-.230469-4.785156 1.769531-9.40625 5.417968-12.503906 3.652344-3.105469 8.539063-4.332031 13.21875-3.332031 4.882813 1.042968 119.894532 26.585937 145.957032 113.457031 19.457031 64.867187-.117188 114.265625-14.410156 150.332031-3.480469 8.785156-6.769532 17.082032-9.175782 24.703125-8.027344 25.390625-4.464844 50.398438-1.621094 63.042969.960938 4.289062 1.609376 6.699219 1.785157 7.335938 2.226562 8.089843-2.414063 16.476562-10.453125 18.878906-36.242188 10.835937-73.769532 16.527344-111.539063 16.910156-1.367187.011719-2.742187.019531-4.109375.019531"/></g><path d="m-.00119375.001475c23.66406275-7.109375 58.17968775-14.613281 100.16796875-14.058594 37.757813.496094 69.046875 7.347656 91.382813 14.058594" style="fill:#fff;stroke-width:30;stroke-linecap:round;stroke-linejoin:round;stroke:#000;stroke-miterlimit:10" transform="matrix(1 0 0 -1 55.0051 312.0796)"/><path d="m169.683594 113.578125c0 8.375-6.789063 15.164063-15.164063 15.164063s-15.164062-6.789063-15.164062-15.164063 6.789062-15.160156 15.164062-15.160156 15.164063 6.785156 15.164063 15.160156"/></g></svg>