<svg height="100" viewBox="-50 -60 381.316 511.653" width="100" xmlns="http://www.w3.org/2000/svg" xmlns:xlink="http://www.w3.org/1999/xlink"><clipPath id="a"><path d="m0 70h291.316406v361.652344h-291.316406zm0 0"/></clipPath><g transform="translate(0 -20)"><path d="m180.359375 49.832031c0 19.238281-15.59375 34.832031-34.832031 34.832031-19.238282 0-34.832032-15.59375-34.832032-34.832031s15.59375-34.832031 34.832032-34.832031c19.238281 0 34.832031 15.59375 34.832031 34.832031" fill="#fff"/><path d="m-.000825.00066875c0-19.23828075-15.59375-34.83203075-34.832031-34.83203075-19.238282 0-34.832032 15.59375-34.832032 34.83203075 0 19.23828125 15.59375 34.83203125 34.832032 34.83203125 19.238281 0 34.832031-15.59375 34.832031-34.83203125zm0 0" fill="none" stroke="#000" stroke-linejoin="round" stroke-miterlimit="10" stroke-width="30" transform="matrix(1 0 0 -1 180.3602 49.8327)"/><path d="m248.148438 169.859375c-56.527344 15.363281-94.265626 111.425781-94.265626 111.425781s4.675782-86.519531 44.847657-160.101562c-27.894531-22.265625-52.621094-36.042969-52.621094-36.042969s-132.011719 72.128906-131.105469 154.695313c.910156 82.566406 66.234375 146.984374 58.070313 164.226562-8.167969 17.238281 154.242187 16.332031 146.074219 0-8.164063-16.332031 56.253906-82.566406 57.164062-164.226562.273438-24.710938-11.550781-48.628907-28.164062-69.976563" fill="#ccc"/><path d="m150.316406 91.773438c-50.5 87-62.5 126-62.5 153 0 56.921874 51 148 26.5 162h-36l-45-90-18-63 9-54 36-45zm0 0" fill="#fff"/><g clip-path="url(#a)"><path d="m88.683594 397.546875c9.394531 2.0625 28.707031 4.105469 55.78125 4.105469h1.726562c27.863282-.089844 47.765625-2.253906 57.40625-4.375 1.28125-10.328125 8.089844-22.597656 17.417969-39.402344 16.785156-30.25 39.78125-71.679688 40.296875-118.207031.179688-16.070313-6.0625-33.453125-18.566406-51.785157-36.148438 17.585938-65.898438 76.054688-74.90625 98.898438-2.699219 6.84375-9.972656 10.730469-17.152344 9.15625-7.191406-1.570312-12.179688-8.113281-11.785156-15.460938.1875-3.488281 4.839844-82.3125 40.75-155.089843-13.921875-10.445313-26.230469-18.34375-33.605469-22.859375-11.273437 6.789062-34.03125 21.335937-56.421875 40.691406-27.421875 23.710938-60.027344 59.691406-59.621094 96.453125.515625 46.941406 23.78125 87.902344 40.769532 117.8125 9.722656 17.117187 16.753906 29.496094 17.910156 40.0625m55.890625 34.105469c-16.433594 0-32.316407-.75-44.925781-2.128906-22.621094-2.472657-30.113282-6.277344-34.453126-9.675782-6.410156-5.015625-8.882812-12.816406-6.554687-20.007812-1.128906-4.960938-8.203125-17.414063-13.953125-27.539063-17.554688-30.90625-44.082031-77.609375-44.68359375-132.300781-.42578125-38.867188 23.26562475-79.183594 70.41796875-119.835938 33.710937-29.058593 67.09375-47.421874 68.496094-48.1875 4.519531-2.472656 9.996093-2.449218 14.496093.058594 1.050782.589844 26.132813 14.644532 54.675782 37.425782 5.691406 4.542968 7.296875 12.519531 3.804687 18.914062-12.902343 23.632812-22.003906 48.863281-28.394531 71.898438 19.269531-24.09375 39.617188-39.15625 60.714844-44.890626 5.832031-1.585937 12.054687.488282 15.773437 5.265626 21.066407 27.070312 31.605469 53.769531 31.320313 79.355468-.601563 54.113282-26.753906 101.242188-44.0625 132.429688-5.585938 10.066406-12.453125 22.433594-13.652344 27.425781 2.253906 6.933594-.023438 14.476563-6.089844 19.4375-4.191406 3.421875-11.507812 7.277344-34.039062 9.894531-13.089844 1.515625-29.710938 2.390625-46.804688 2.457032-.695312.003906-1.390625.003906-2.085937.003906"/></g><path d="m.00020625.0006625c15.58203175-24.3359375 181.49999975-28.8398435 197.99999975 0" style="fill:none;stroke-width:30;stroke-linecap:round;stroke-linejoin:round;stroke:#000;stroke-miterlimit:10" transform="matrix(1 0 0 -1 47.3162 344.2741)"/></g></svg>