<svg height="100" viewBox="-50 -60 478.766 511.579" width="100" xmlns="http://www.w3.org/2000/svg" xmlns:xlink="http://www.w3.org/1999/xlink"><clipPath id="a"><path d="m44 356h301v75.578125h-301zm0 0"/></clipPath><clipPath id="b"><path d="m241 127h147.765625v195h-147.765625zm0 0"/></clipPath><clipPath id="c"><path d="m0 0h388.765625v431.578125h-388.765625zm0 0"/></clipPath><clipPath id="d"><path d="m0 0h388.765625v431.578125h-388.765625zm0 0"/></clipPath><clipPath id="e"><path d="m0 0h388.765625v431.578125h-388.765625zm0 0"/></clipPath><g transform="translate(0 -20)"><path d="m319.382812 416.578125h-250c-5.523437 0-10-4.476563-10-10v-25c0-5.519531 4.476563-10 10-10h250c5.523438 0 10 4.480469 10 10v25c0 5.523437-4.476562 10-10 10" fill="#ccc"/><path d="m95.382812 413.578125h-36v-45h36zm0 0" fill="#fff"/><g clip-path="url(#a)"><path d="m74.382812 401.578125h240v-15h-240zm245 30h-250c-13.785156 0-25-11.214844-25-25v-25c0-13.785156 11.214844-25 25-25h250c13.785157 0 25 11.214844 25 25v25c0 13.785156-11.214843 25-25 25"/></g><path d="m328.382812 371.578125h-268c-5.523437 0-10-4.476563-10-10v-46c0-5.519531 4.476563-10 10-10h268c5.523438 0 10 4.480469 10 10v46c0 5.523437-4.476562 10-10 10" fill="#ccc"/><path d="m88.382812 359.578125h-35v-45h35zm0 0" fill="#fff"/><path d="m65.382812 356.578125h258v-36h-258zm263 30h-268c-13.785156 0-25-11.214844-25-25v-46c0-13.785156 11.214844-25 25-25h268c13.785157 0 25 11.214844 25 25v46c0 13.785156-11.214843 25-25 25"/><path d="m.0000125.001825v123.171875" fill="none" stroke="#000" stroke-linecap="round" stroke-miterlimit="10" stroke-width="30" transform="matrix(1 0 0 -1 194.3828 138.1737)"/><path d="m.0000125-.0001h71.9999995" fill="none" stroke="#000" stroke-linecap="round" stroke-miterlimit="10" stroke-width="30" transform="matrix(1 0 0 -1 158.3828 50.9999)"/><path d="m207.375 97.875h-24.152344c-5.167968 0-9.835937 3.070312-11.886718 7.808594l-14.984376 34.625c-1.417968 3.28125-1.417968 7.003906 0 10.285156l14.984376 34.625c2.050781 4.738281 6.71875 7.804688 11.886718 7.804688h24.152344c5.164062 0 9.835938-3.066407 11.886719-7.804688l14.980469-34.625c1.417968-3.28125 1.417968-7.003906 0-10.285156l-14.980469-34.625c-2.050781-4.738282-6.722657-7.808594-11.886719-7.808594" fill="#ccc"/><path d="m184.566406 178.023438h21.464844l14.09375-32.574219-14.09375-32.574219h-21.464844l-14.097656 32.574219zm22.808594 30h-24.15625c-11.152344 0-21.222656-6.613282-25.652344-16.851563l-14.980468-34.621094c-3.050782-7.050781-3.050782-15.144531 0-22.199219l14.980468-34.625c4.429688-10.234374 14.5-16.851562 25.652344-16.851562h24.15625c11.15625 0 21.222656 6.617188 25.652344 16.851562l14.980468 34.625c3.050782 7.054688 3.050782 15.148438 0 22.199219l-14.980468 34.621094c-4.429688 10.238281-14.496094 16.851563-25.652344 16.851563"/><path d="m315.148438 141.59375c32.375 0 58.617187 24.113281 58.617187 53.855469 0 62.832031-48.847656 98.734375-58.617187 107.710937-9.769532 8.976563-58.621094 0-58.621094 0v-107.710937c0-29.742188 26.246094-53.855469 58.621094-53.855469" fill="#ccc"/><path d="m367.382812 148.578125c-23 44-67-5-85 144 0 0 11 26.949219-7 1s2-74.050781 2-100 22-42.128906 40-50.777344c18-8.648437 54 5.777344 50 5.777344" fill="#fff"/><g clip-path="url(#b)"><path d="m271.527344 290.894531c15.0625 1.957031 29.433594 2.464844 34.191406 1 .839844-.742187 1.796875-1.566406 2.859375-2.476562 13.722656-11.792969 50.1875-43.113281 50.1875-93.96875 0-21.746094-19.566406-39.4375-43.617187-39.4375-24.054688 0-43.621094 17.691406-43.621094 39.4375zm24.164062 30.683594c-4.425781 0-9.34375-.234375-14.816406-.691406-14.035156-1.171875-26.632812-3.46875-27.164062-3.566407l-12.183594-2.238281v-119.632812c0-37.644531 33.027344-68.269531 73.621094-68.269531s73.617187 30.625 73.617187 68.269531c0 63.757812-45.308594 102.675781-60.199219 115.46875-1.273437 1.09375-2.375 2.039062-3.054687 2.664062-5.925781 5.445313-15.175781 7.996094-29.820313 7.996094"/></g><path d="m253 137.996094c32.375 0 58.621094 24.109375 58.621094 53.855468 0 62.832032-48.847656 98.734376-58.621094 107.710938-9.769531 8.972656-58.617188 0-58.617188 0v-107.710938c0-29.746093 26.246094-53.855468 58.617188-53.855468" fill="#ccc"/><path d="m289.382812 148.578125c-39 22-56 1-61 154 0 0-8 14.949219-26-11s-7-72.050781-7-98 22-42.128906 40-50.777344c18-8.648437 54 5.777344 54 5.777344" fill="#fff"/><path d="m209.382812 287.296875c15.058594 1.957031 29.433594 2.464844 34.1875 1 .84375-.746094 1.796876-1.566406 2.859376-2.476563 13.726562-11.789062 50.191406-43.113281 50.191406-93.96875 0-21.746093-19.566406-39.441406-43.621094-39.441406-24.050781 0-43.617188 17.695313-43.617188 39.441406zm24.164063 30.683594c-4.429687 0-9.347656-.234375-14.816406-.691407-14.035157-1.171874-26.632813-3.472656-27.164063-3.566406l-12.183594-2.238281v-119.632813c0-37.644531 33.023438-68.273437 73.617188-68.273437s73.621094 30.628906 73.621094 68.273437c0 63.757813-45.3125 102.679688-60.203125 115.46875-1.273438 1.09375-2.375 2.039063-3.054688 2.664063-5.921875 5.441406-15.171875 7.996094-29.816406 7.996094"/><path d="m73.617188 141.59375c-32.371094 0-58.617188 24.113281-58.617188 53.855469 0 62.832031 48.847656 98.734375 58.617188 107.710937 9.769531 8.976563 58.621093 0 58.621093 0v-107.710937c0-29.742188-26.246093-53.855469-58.621093-53.855469" fill="#ccc"/><path d="m81.382812 139.917969c-63 38.660156-31 96.109375 14 156.660156 0 0-23 16.335937-41-9.609375-18-25.953125-45-60.550781-45-86.5s18-51.902344 36-60.550781c18-8.648438 36 0 36 0" fill="#fff"/><path d="m83.046875 291.894531c4.757813 1.464844 19.128906.957031 34.191406-1v-95.445312c0-21.746094-19.570312-39.4375-43.621093-39.4375-24.050782 0-43.617188 17.691406-43.617188 39.4375 0 50.855469 36.464844 82.175781 50.191406 93.96875 1.058594.910156 2.015625 1.734375 2.855469 2.476562m10.027344 29.683594c-14.648438 0-23.894531-2.550781-29.820313-7.996094-.679687-.625-1.78125-1.570312-3.058594-2.664062-14.886718-12.792969-60.195312-51.710938-60.195312-115.46875 0-37.644531 33.027344-68.269531 73.617188-68.269531 40.59375 0 73.621093 30.625 73.621093 68.269531v119.632812l-12.183593 2.238281c-.53125.097657-13.128907 2.394532-27.164063 3.566407-5.472656.457031-10.390625.691406-14.816406.691406"/><path d="m135.765625 137.996094c-32.375 0-58.621094 24.109375-58.621094 53.855468 0 62.832032 48.847657 98.734376 58.621094 107.710938 9.769531 8.972656 58.617187 0 58.617187 0v-107.710938c0-29.746093-26.246093-53.855468-58.617187-53.855468" fill="#ccc"/><path d="m152.382812 138.578125c-36 33.429687-30 93.449219 15 154 0 0-18 26.222656-36 .273437-18-25.953124-49-70.324218-49-96.273437s22-42.128906 40-50.777344c18-8.648437 30-7.222656 30-7.222656" fill="#fff"/><path d="m145.195312 288.296875c4.765626 1.46875 19.140626.964844 34.1875-.992187v-95.453126c0-21.746093-19.566406-39.441406-43.617187-39.441406s-43.621094 17.695313-43.621094 39.441406c0 50.855469 36.464844 82.179688 50.195313 93.96875 1.058594.910157 2.011718 1.730469 2.855468 2.476563m10.023438 29.683594c-14.644531 0-23.890625-2.554688-29.820312-7.996094-.675782-.625-1.777344-1.570313-3.050782-2.664063-14.890625-12.789062-60.203125-51.710937-60.203125-115.46875 0-37.644531 33.027344-68.273437 73.621094-68.273437 40.589844 0 73.617187 30.628906 73.617187 68.273437v119.632813l-12.183593 2.238281c-.527344.09375-13.125 2.394532-27.164063 3.566406-5.46875.457032-10.390625.691407-14.816406.691407"/><path d="m104.382812 305.578125 31.851563 69" fill="#fff"/><g clip-path="url(#c)"><path d="m.0000125.000875 31.8515625-69" fill="none" stroke="#000" stroke-miterlimit="10" stroke-width="30" transform="matrix(1 0 0 -1 104.3828 305.579)"/></g><path d="m178.707031 305.578125 31.851563 69" fill="#fff"/><g clip-path="url(#d)"><path d="m.00093125.000875 31.85156275-69" fill="none" stroke="#000" stroke-miterlimit="10" stroke-width="30" transform="matrix(1 0 0 -1 178.7061 305.579)"/></g><path d="m253.03125 305.578125 31.851562 69" fill="#fff"/><g clip-path="url(#e)"><path d="m.00095.000875 31.851562-69" fill="none" stroke="#000" stroke-miterlimit="10" stroke-width="30" transform="matrix(1 0 0 -1 253.0303 305.579)"/></g></g></svg>