<svg height="100" viewBox="-50 -100 345.843 506.462" width="100" xmlns="http://www.w3.org/2000/svg" xmlns:xlink="http://www.w3.org/1999/xlink"><clipPath id="a"><path d="m0 0h255.84375v376.460938h-255.84375zm0 0"/></clipPath><g transform="translate(0 -20)"><path d="m239.523438 340.414062c0-90.296874-74.453126-119.867187-65.914063-176.246093 21.621094-15.023438 35.601563-40.277344 34.886719-68.765625-1.078125-43.007813-36.171875-78.046875-79.179688-79.058594-45.722656-1.078125-83.121094 35.664062-83.121094 81.140625 0 27.609375 13.796876 51.984375 34.863282 66.648437 9.5625 56.414063-64.738282 86.351563-64.738282 176.28125 32.953126 9.878907 54.332032 19.726563 112.164063 19.726563s78.085937-9.847656 111.039063-19.726563" fill="#ccc"/><path d="m126 30.414062s-24.914062 25.917969-26 64c-1.089844 38.082032 14 60.558594 14 66 0 5.441407.441406 28.414063-5 48-5.441406 19.585938-36 89-34 136 1.394531 32.761719-55.574219-10.386718-55.574219-10.386718l7.613281-56.578125 56.578126-82.691407-4.351563-34.816406-33.730469-52.226562 19.585938-62.019532zm0 0" fill="#fff"/><g clip-path="url(#a)"><path d="m239.523438 340.414062h.007812zm-206.386719-11.882812c.621093.195312 1.238281.394531 1.855469.585938 26.015624 8.214843 46.566406 14.703124 93.492187 14.703124 46.304687 0 66.226563-6.347656 91.445313-14.386718.921874-.292969 1.847656-.589844 2.78125-.886719-3.058594-36.445313-19.957032-61.050781-36.351563-84.917969-16.632813-24.214844-33.832031-49.257812-28.886719-81.90625.671875-4.433594 3.140625-8.398437 6.824219-10.957031 18.007813-12.515625 28.433594-33.058594 27.882813-54.953125-.851563-34.023438-29.222657-62.351562-63.246094-63.152344-17.652344-.441406-34.285156 6.128906-46.878906 18.433594-12.601563 12.304688-19.539063 28.78125-19.539063 46.390625 0 21.199219 10.414063 41.109375 27.863281 53.25 3.597656 2.503906 6.039063 6.351563 6.769532 10.667969 5.585937 32.957031-11.597657 58.300781-28.21875 82.808594-16.125 23.785156-32.75 48.300781-35.792969 84.320312m95.347656 47.929688c-51.957031 0-76.90625-7.875-103.320313-16.214844-4.359374-1.378906-8.863281-2.800782-13.53125-4.199219-6.902343-2.070313-11.632812-8.425781-11.632812-15.632813 0-52.707031 23.242188-86.980468 41.914062-114.519531 15.082032-22.246093 24.191407-36.601562 23.664063-53.023437-22.488281-18.445313-35.703125-46.089844-35.703125-75.386719 0-26.472656 10.429688-51.242187 29.371094-69.742187 18.933594-18.496094 43.949218-28.324219 70.453125-27.7148442 25.011719.5859372 48.613281 10.7265622 66.460937 28.5468752 17.847656 17.824219 28.023438 41.410156 28.652344 66.417969.757812 30.242187-12.40625 58.761718-35.542969 77.777343-.054687 17.359375 10.722657 33.050781 23.996094 52.378907 18.96875 27.621093 42.578125 61.988281 42.578125 115.265624 0 7.207032-4.730469 13.5625-11.632812 15.632813-4.988282 1.496094-9.757813 3.015625-14.367188 4.484375-25.703125 8.195312-49.980469 15.929688-101.359375 15.929688"/></g></g></svg>