<svg height="100" viewBox="-50 -100 386.833 503" width="100" xmlns="http://www.w3.org/2000/svg" xmlns:xlink="http://www.w3.org/1999/xlink"><clipPath id="a"><path d="m0 0h296.832031v373h-296.832031zm0 0"/></clipPath><g transform="translate(0 -20)"><path d="m49.320312 182.347656c.484376-68.429687-43.515624-125.164062-30.5625-166.109375h259.320313c12.953125 40.945313-31.046875 97.679688-30.5625 166.109375.507813 72.203125 43.910156 132.214844 30.5625 174.417969h-259.320313c-13.351562-42.203125 30.050782-102.214844 30.5625-174.417969" fill="#ccc"/><path d="m92.859375 18c-9.742187 55.203125 6 125.324219 6 173 0 46.542969-18.246094 101.054688-15 166l-60.339844-.234375 19.339844-165.765625-19.339844-175.195312zm0 0" fill="#fff"/><g clip-path="url(#a)"><path d="m251.265625 281.757812c-9.246094-29.230468-19.726563-62.355468-19.988281-99.292968-.253906-35.808594 10.445312-67.734375 19.882812-95.902344 6.953125-20.757812 13.164063-39.292969 13.066406-54.089844h-231.621093c-.097657 14.796875 6.113281 33.332032 13.066406 54.089844 9.4375 28.167969 20.136719 60.09375 19.882813 95.902344-.261719 36.9375-10.742188 70.066406-19.988282 99.292968-7.160156 22.644532-13.546875 42.828126-13.101562 58.769532h231.90625c.441406-15.941406-5.941406-36.125-13.105469-58.769532m-247.988281 79.902344c-8.523438-26.9375 1.121094-57.421875 11.328125-89.695312 8.554687-27.039063 18.25-57.6875 18.476562-89.730469.21875-30.394531-9.144531-58.335937-18.199219-85.355469-10.226562-30.523437-19.890624-59.355468-11.605468-85.539062 2.132812-6.75 8.398437-11.339844 15.480468-11.339844h259.320313c7.078125 0 13.34375 4.589844 15.480469 11.339844 8.28125 26.183594-1.378906 55.015625-11.609375 85.539062-9.054688 27.019532-18.414063 54.960938-18.199219 85.355469.226562 32.042969 9.921875 62.6875 18.476562 89.730469 10.210938 32.269531 19.851563 62.757812 11.332032 89.695312-2.136719 6.75-8.402344 11.339844-15.480469 11.339844h-259.320313c-7.082031 0-13.347656-4.589844-15.480468-11.339844"/></g><g fill="none" stroke="#000" stroke-linejoin="round" stroke-miterlimit="10" stroke-width="30"><path d="m-.00136875-.00096875v-58.13671825" transform="matrix(1 0 0 -1 98.5834 24.542)"/><path d="m-.0004-.00096875v-58.13671825" transform="matrix(1 0 0 -1 198.2504 24.542)"/><path d="m-.00135-.0019375h250.144531" transform="matrix(1 0 0 -1 23.3451 298.2715)"/><path d="m.0006125-.0010125h215.9453125" transform="matrix(1 0 0 -1 40.4447 140.8193)"/></g></g></svg>