<svg clip-rule="evenodd" fill-rule="evenodd" height="50mm" image-rendering="optimizeQuality" shape-rendering="geometricPrecision" text-rendering="geometricPrecision" viewBox="0 0 50 50" width="50mm" xmlns="http://www.w3.org/2000/svg" xmlns:xlink="http://www.w3.org/1999/xlink"><linearGradient id="a" gradientTransform="matrix(.27141 0 0 .27218 -804.81 -417.45)" gradientUnits="userSpaceOnUse" x1="2986.4" x2="3128.4" y1="1623.8" y2="1623.8"><stop offset="0" stop-color="#fff"/><stop offset="1" stop-color="#e6e6e6"/></linearGradient><filter id="b" color-interpolation-filters="sRGB"><feGaussianBlur result="blur" stdDeviation=".01 .01"/></filter><filter id="c" color-interpolation-filters="sRGB"><feFlood flood-opacity=".49804" result="flood"/><feComposite in="flood" in2="SourceGraphic" operator="in" result="composite1"/><feGaussianBlur in="composite1" result="blur" stdDeviation=".6"/><feOffset dx="1.6" dy="1.4" result="offset"/><feComposite in="SourceGraphic" in2="offset" result="composite2"/></filter><path d="m23.283 5.5508v3.2374h-3.364v2.9195h3.364v1.758c-3.3676 2.1271-2.9956 5.7407-2.9956 5.7407-11.009-8.516-20.672 7.563-7.9441 13.053v8.7341c0 .94913 5.6669 2.4554 12.657 2.4554 6.9899 0 12.657-1.5063 12.657-2.4554v-8.7341c12.728-5.4903 3.0652-21.569-7.9436-13.053 0 0 .37202-3.6136-2.9956-5.7407v-1.758h3.364v-2.9195h-3.364v-3.2374h-1.7175z" style="clip-rule:evenodd;fill-rule:evenodd;image-rendering:optimizeQuality;shape-rendering:geometricPrecision;stroke:#000;stroke-width:1.1;fill:url(#a);filter:url(#c)"/><ellipse cx="71.077" cy="131.54" rx="32.126" ry="2.844" style="clip-rule:evenodd;fill-rule:evenodd;image-rendering:optimizeQuality;shape-rendering:geometricPrecision;stroke-width:1.1079;filter:url(#b)" transform="matrix(.28533 0 0 .3223 4.72 -1.9797)"/><path d="m27.032 30.267c1.4893-12.102 11.943-12.441 13.364-7.3792 1.4208 5.0616-4.7357 7.3792-4.7357 7.3792s-4.8752-.63833-10.66-.63833-10.66.63833-10.66.63833-6.1565-2.3176-4.7357-7.3792 11.874-4.7226 13.364 7.3792" fill="none" stroke="#000" stroke-width="1.4"/></svg>