<svg clip-rule="evenodd" fill-rule="evenodd" height="50mm" image-rendering="optimizeQuality" shape-rendering="geometricPrecision" text-rendering="geometricPrecision" viewBox="0 0 50 50" width="50mm" xmlns="http://www.w3.org/2000/svg" xmlns:xlink="http://www.w3.org/1999/xlink"><linearGradient id="a" gradientTransform="matrix(.27677 0 0 .27555 -1132.3 731.96)" gradientUnits="userSpaceOnUse" x1="4127.3" x2="4235.7" y1="-2558.4" y2="-2558.4"><stop offset="0" stop-color="#fff"/><stop offset="1" stop-color="#e6e6e6"/></linearGradient><filter id="b" color-interpolation-filters="sRGB"><feFlood flood-opacity=".49804" result="flood"/><feComposite in="flood" in2="SourceGraphic" operator="in" result="composite1"/><feGaussianBlur in="composite1" result="blur" stdDeviation=".3"/><feOffset dx="1" dy="1" result="offset"/><feComposite in="SourceGraphic" in2="offset" result="composite2"/></filter><path d="m25.024 43.401h-13.905c-2.5514-5.8853 4.2134-11.341 8.9683-13.194-5.6827-3.1606-2.6021-11.219 2.2688-11.873-1.1598-.7629-1.7396-2.3929-1.7396-3.7008 0-1.0899.46392-2.0708 1.2757-2.8337.81185-.7629 1.8556-1.1988 3.1313-1.1988 1.1597 0 2.2035.43593 3.1313 1.1988.81182.7629 1.2757 1.7438 1.2757 2.8337 0 1.3078-.57989 2.9379-1.7397 3.7008 5.3348 2.0707 7.2558 9.6931 2.2689 11.873 6.4945 2.2887 11.056 8.0716 8.9683 13.194z" style="stroke:#000;stroke-linecap:square;stroke-linejoin:round;stroke-width:1.1346;fill:url(#a);filter:url(#b);clip-rule:evenodd;fill-rule:evenodd;image-rendering:optimizeQuality;shape-rendering:geometricPrecision" transform="matrix(.96658 0 0 .97245 .83342 1.2431)"/></svg>