<svg clip-rule="evenodd" fill-rule="evenodd" height="50mm" image-rendering="optimizeQuality" shape-rendering="geometricPrecision" text-rendering="geometricPrecision" viewBox="0 0 50 50" width="50mm" xmlns="http://www.w3.org/2000/svg" xmlns:xlink="http://www.w3.org/1999/xlink"><linearGradient id="a" gradientTransform="matrix(.97643 0 0 .99287 74.952 107.73)" gradientUnits="userSpaceOnUse" x1="-71.638" x2="-30.679" y1="-83.324" y2="-83.324"><stop offset="0" stop-color="#fff"/><stop offset="1" stop-color="#e6e6e6"/></linearGradient><filter id="b" color-interpolation-filters="sRGB"><feGaussianBlur result="blur" stdDeviation=".01 .01"/></filter><filter id="c" color-interpolation-filters="sRGB"><feFlood flood-opacity=".49804" result="flood"/><feComposite in="flood" in2="SourceGraphic" operator="in" result="composite1"/><feGaussianBlur in="composite1" result="blur" stdDeviation=".3"/><feOffset dx="1" dy="1" result="offset"/><feComposite in="SourceGraphic" in2="offset" result="composite2"/></filter><path d="m24.994 6.5487v.0005087c-1.5677.00587-2.8354 1.181-2.8358 2.629.0016 1.1933.87292 2.236 2.1223 2.5397-.68896 4.4495-1.967 9.7264-2.6349 14.112l-4.0691-12.927c.96719-.44424 1.5789-1.3558 1.5794-2.3535-.000081-1.4522-1.2746-2.6295-2.8469-2.6295-1.5723.0000587-2.8468 1.1773-2.8469 2.6295.0019 1.2053.89063 2.2551 2.1566 2.5474l-.43889 13.258-5.483-10.611c.95116-.44979 1.5495-1.3537 1.5496-2.3407-.00008-1.4522-1.2746-2.6294-2.8469-2.6295-1.5723.00006-2.8468 1.1773-2.8469 2.6295.0009055 1.3346 1.0841 2.457 2.5194 2.6105l2.7593 16.507 4.0507 5.2585-1.0046 3.6341c-.04199.65539 4.8482 2.0272 11.122 2.0395 6.2739-.01228 11.164-1.3841 11.122-2.0395l-1.0046-3.6341 4.0507-5.2585 2.7594-16.507c1.4353-.15358 2.5185-1.2759 2.5194-2.6105-.000081-1.4522-1.2746-2.6294-2.8469-2.6295-1.5722.000072-2.8468 1.1773-2.8469 2.6295.000023.987.59841 1.8909 1.5496 2.3407l-5.483 10.611-.43889-13.258c1.266-.29229 2.1547-1.3421 2.1566-2.5474-.000081-1.4522-1.2746-2.6295-2.8469-2.6295-1.5723.0000587-2.8468 1.1773-2.8469 2.6295.000458.99771.61217 1.9092 1.5794 2.3535l-4.0691 12.927c-.66791-4.3856-1.946-9.6625-2.6349-14.112 1.2494-.30375 2.1207-1.3464 2.1223-2.5397-.000368-1.448-1.2681-2.6233-2.8358-2.629v-.0005087l-.0055.0005087-.0055-.0005087z" style="stroke:#000;stroke-linecap:round;stroke-linejoin:round;stroke-width:1.1;fill:url(#a);filter:url(#c)"/><ellipse cx="4708.7" cy="-2517.6" rx="32.126" ry="2.844" style="clip-rule:evenodd;fill-rule:evenodd;image-rendering:optimizeQuality;shape-rendering:geometricPrecision;stroke-width:1.1978;filter:url(#b)" transform="matrix(.25939 0 0 .29298 -1196.4 778.12)"/><path d="m15.172 34.076s2.6991-1.2487 9.8022-1.2558c7.1031-.0095 9.8007 1.2558 9.8007 1.2558" fill="none" stroke="#000" stroke-linejoin="round" stroke-width="2"/></svg>