<svg clip-rule="evenodd" fill-rule="evenodd" height="50mm" image-rendering="optimizeQuality" shape-rendering="geometricPrecision" text-rendering="geometricPrecision" viewBox="0 0 50 50" width="50mm" xmlns="http://www.w3.org/2000/svg"><g clip-rule="evenodd" fill-rule="evenodd" image-rendering="optimizeQuality" shape-rendering="geometricPrecision"><path d="m17.932 20.414c4.9056-.74066 9.5787-.57845 14.136 0m-17.885-10.752c-1.0592 8.7669 1.1034 10.677 3.7482 10.752l-3.3154 18.159h20.767l-3.3154-18.159c2.6448-.0745 4.8074-1.9849 3.7482-10.752l-3.6072-.52917-1.0733 3.6427-3.1416-.0995-.5222-3.754h-4.9448l-.52127 3.754-3.142.0995-1.0733-3.6427z" fill="#5f5955" stroke="#1e1e1e" stroke-width="1.2"/><path d="m17.932 20.414c6.828 0 13.118.40763 14.948 16.572l2.3187.38585-3.1311-16.428c-.03144-.30772-6.0881-1.8224-14.136-.52917z" opacity=".18"/><g fill="#fff"><path d="m14.777 10.219 2.2766-.28599c-1.9137.31197-2.3128 5.2958-2.3128 5.2958-.23801-.17655-.18808-4.9033.03618-5.0098z" opacity=".25"/><path d="m25.276 9.5507c-1.6477 0-2.5191 2.7475-2.5191 2.7475l.33726-2.7288z" opacity=".25"/><path d="m32.671 9.8162.93397.11826c-.78478.49954-1.5905 1.9884-1.5905 1.9884z" opacity=".25"/><path d="m18.472 20.964 2.6206-.29312c-2.6206.29312-4.8959 13.053-4.9066 13.113z" opacity=".25"/></g><path d="m34.013 9.3979c.35682 6.3635-1.9499 10.603-8.0415 10.536l4.778.56323c7.5226.30904 5.101-10.806 5.0671-10.835z" opacity=".18"/><path d="m25 36.457s-9.1309.04814-11.691 1.6192c-1.7273 1.0602-2.1348 3.6515-1.8998 6.3237h27.182c.23496-2.6723-.17255-5.2635-1.8999-6.3237-2.5597-1.5711-11.691-1.6192-11.691-1.6192z" fill="#5f5955" stroke="#1e1e1e" stroke-linejoin="round" stroke-width="1.2"/><path d="m25 37.146s-8.7121-.13732-11.624 1.6658c-.36985.22905-.69926.83944-.95359 1.3902.26077-.3313.50213-.61301.88664-.84902 2.5597-1.5711 11.691-1.6191 11.691-1.6191s9.1318.04794 11.692 1.6191c.39104.24.59242.53161.85561.87009.02583-.0759-.40837-1.1579-1.1438-1.5962-2.7554-1.492-11.403-1.4808-11.403-1.4808z" fill="#fff" opacity=".25"/></g></svg>