<svg clip-rule="evenodd" fill-rule="evenodd" height="50mm" image-rendering="optimizeQuality" shape-rendering="geometricPrecision" text-rendering="geometricPrecision" viewBox="0 0 50 50" width="50mm" xmlns="http://www.w3.org/2000/svg"><path d="m25 5.767c-2.1056 0-3.8124.87865-3.8121 1.9632l1.5166 2.6505c-16.049 14.089-5.707 27.135-5.707 27.135h16.006s7.0496-8.6714.76227-19.51l-2.989 4.8276c-.67072 1.0833-1.9632 1.4898-2.898.91107-.93477-.57872-1.1472-1.917-.47652-3.0003l3.8867-6.2771c-1.1073-1.3449-2.4252-2.7101-3.9926-4.0861l1.5166-2.6505c0-1.0846-1.7066-1.9632-3.8121-1.9632z" fill="#f0f0f0" stroke="#3c3c3c" stroke-linejoin="round" stroke-width="1.2"/><path d="m25 5.767c-.8164 0-1.5711.1335-2.1913.35847 4.3387.84718 4.9765 1.1195 2.5601 4.3506l3.246 3.5665c-3.6565 8.2403-1.6037 7.9919-1.6037 7.9919s.6964-2.6485 4.1117-7.7689c-1.0722-1.2796-2.3377-2.578-3.8266-3.8851l1.5161-2.6501c.0001-1.0845-1.7067-1.9631-3.8123-1.9634zm8.7655 12.238-1.0091 1.5127c3.7363 8.4129-4.1347 17.997-4.1347 17.997h4.3815c.1581.0339 6.958-8.8438.76227-19.51z" opacity=".15"/><path d="m15.145 31.721c-.2191-.0314-3.4233-9.7859 5.7543-18.751-2.3019 1.895-7.1351 13.163-5.7543 18.751z" fill="#fff"/><path d="m23.292 10.196-1.4772-2.5943s.2425-.72175 1.7808-1.0472c-1.7266 1.3502-.988 1.6622-.3036 3.6415z" fill="#fff"/><g clip-rule="evenodd" fill-rule="evenodd" image-rendering="optimizeQuality" shape-rendering="geometricPrecision"><path d="m25 36.457s-9.1309.048-11.691 1.6192c-1.7273 1.0602-2.1348 3.6514-1.8998 6.3237h27.182c.2349-2.6723-.1726-5.2636-1.8999-6.3237-2.5597-1.5711-11.691-1.6192-11.691-1.6192z" fill="#f0f0f0" stroke="#3c3c3c" stroke-linejoin="round" stroke-width="1.2"/><path d="m25 37.147s-8.7121-.1374-11.624 1.6658c-.3699.229-.6993.8394-.9536 1.3902.2607-.3313.5021-.6131.8866-.8491 2.5598-1.5711 11.691-1.6191 11.691-1.6191s9.1318.048 11.692 1.6191c.391.24.5924.5317.8556.8701.026-.076-.4084-1.1578-1.1438-1.5962-2.7554-1.492-11.403-1.4808-11.403-1.4808z" fill="#fff"/></g></svg>