<svg height="368" width="368" xmlns="http://www.w3.org/2000/svg"><path d="m183 212c-7.899 22.791-31.346 38.48-46.714 56-4.85 5.53-9.325 11.33-12.501 18-1.668 3.503-2.263 7.521-4.084 10.91-3.146 5.853-7.554 9.174-9.032 16.09-1.897 8.88-.669 18.949-.669 28h204c0-9.243 1.554-20.091-1.221-29-2.146-6.891-8.454-11.936-9.605-19-4.495-27.603-9.07-55.048-16.753-82-3.844-13.487-7.706-27.544-14.311-40-8.112-15.298-19.862-28.893-32.11-40.996-9.448-9.336-21.52-16.037-30.775-25.33-7.685-7.7151-6.683-23.0915-21.225-22.6146-2.136.0701-4.144.5119-5.961 1.6829-3.019 1.9463-5.182 5.0745-8.039 7.2577-3.865-7.4283-12.045-11.9508-19.96-6.9908-4.538 2.8439-5.36 7.7021-8.549 11.5664-5.767 6.9874-13.215 12.7834-19.401 19.4244-6.618 7.104-14.472 14.43-19.185 23-3.406 6.193-3.624 13.211-7.949 19-11.0632 14.808-28.1071 28.022-31.4923 47-1.6371 9.178-2.2543 20.068.9244 29 4.9417 13.885 22.61 26.055 37.6119 24.812 11.882-.985 20.839-10.01 30-16.66 8.458-6.14 18.061-9.871 27-15.167 7.033-4.167 13.097-9.672 20-13.985z" fill="#fff"/><path d="m79 202c4.1669 0 10.1792-1.073 13.9367 1.028 2.5689 1.436 3.8289 4.237 1.6868 6.654-3.603 4.065-12.7457 2.318-17.6235 2.318 0 11.196-.2458 18.551 8 27 5.2177-3.675 9.4644-8.525 14-12.998 1.818-1.793 4.182-4.9 6.998-4.951 2.475-.045 5.083 2.642 7.002 3.949-6.421 6.421-13.7645 12.568-19 20 17.016 7.192 27.814-7.168 41-15.564 9.031-5.75 19.245-9.411 28-15.58 5.068-3.571 9.992-7.326 15-10.978 1.958-1.428 4.362-3.607 6.996-3.135 2.267.406 4.086 2.501 5.351 4.273 5.55 7.777.422 17.035-4.045 23.984-11.042 17.175-27.5 29.691-40.726 45-6.558 7.592-13.058 14.728-14.576 25h162c-.047-17.178-4.882-35.279-8.576-52-5.1-23.093-10.043-47.699-20.694-69-12.357-24.714-35.011-46.446-57.73-61.667-2.75-1.842-5.978-3.572-7.697-6.517-2.482-4.253-2.928-15.0264-9.253-15.8947-2.848-.391-4.585 3.0853-6.375 4.6891-2.596 2.3258-6.166 3.7976-9.675 2.9406-4.359-1.0643-8.286-9.0015-12.787-7.7995-2.971.7934-3.226 4.8365-4.515 7.0787-1.174 2.0408-2.962 3.5638-4.717 5.0898-11.787 10.252-25.539 22.845-34.011 36.08-3.559 5.56-3.539 12.355-6.901 18-5.729 9.62-14.5711 18.323-21.6832 27-4.1947 5.118-8.3335 9.258-9.3858 16z"/><path d="m209 144c4.353 10.349 12.955 19.207 18.573 29 11.79 20.555 21.119 42.649 25.624 66 1.138 5.902 2.292 11.999 2.713 18 .182 2.578-.458 6.216 1.269 8.397 1.454 1.835 4.668 1.797 6.763 1.454 4.534-.743 4.203-5.187 3.773-8.851-1.029-8.746-2.567-17.497-4.866-26-8.587-31.75-23.73-70.84-53.849-88m-57 14c-5.193-2.179-12.402-1.038-17.999-.999-1.891.013-4.669-.335-6.219 1.027-3.421 3.007 1.43 10.677 5.233 10.78 2.581.07 4.966-2.405 6.985-3.708 3.911-2.523 8.107-4.533 12-7.1z" fill="#fff"/><path d="m120 331h184c0-6.57 1.71-19.302-6.055-22.397-3.73-1.486-8.998-.603-12.945-.603h-26-92-30c-3.763 0-9.417-1.012-12.772 1.028-6.178 3.755-4.228 15.929-4.228 21.972z"/></svg>