<svg height="368" width="368" xmlns="http://www.w3.org/2000/svg"><path d="m110 175c-4.511-9.536-11.486-18.228-17.3333-27-2.4372-3.656-6.0229-7.712-7.2292-12-1.0655-3.788 1.593-7.343 2.2338-11 1.3834-7.895-.1468-16.066-5.7762-21.957-14.8-15.4865-43.0696-3.9501-41.6821 17.957.412 6.506 3.7977 13.169 8.8804 17.236 3.7152 2.973 8.6934 4.12 10.6574 8.808 2.4959 5.957 3.6294 12.746 5.3896 18.956 3.8653 13.637 7.4879 27.344 11.284 41 2.778 9.994 5.4534 20.022 8.2855 30 1.7214 6.065 4.4329 12.722 5.1273 18.985.5521 4.98-5.0501 8.517-6.7037 13.015-2.3192 6.309 1.7148 12.222.2299 17.961-1.3616 5.262-7.8479 8.353-9.5632 14.039-1.4246 4.723-.8002 10.126-.8002 15v25h222v-25c0-4.874.624-10.277-.8-15-1.716-5.686-8.202-8.777-9.563-14.039-1.485-5.739 2.549-11.652.23-17.961-1.654-4.498-7.256-8.035-6.704-13.015.694-6.263 3.406-12.92 5.127-18.985 2.832-9.978 5.508-20.006 8.286-30 3.796-13.656 7.418-27.363 11.284-41 1.76-6.21 2.893-12.999 5.389-18.956 1.965-4.689 6.943-5.831 10.658-8.808 4.952-3.969 8.47-10.884 8.88-17.236 1.415-21.9165-26.895-33.4301-41.682-17.957-5.629 5.891-7.16 14.062-5.776 21.957.64 3.657 3.299 7.213 2.233 11-1.206 4.288-4.792 8.344-7.229 12-5.847 8.772-12.822 17.464-17.333 27-6.705-12.722-10.693-27.509-15.681-41-2.173-5.875-6.669-13.559-6.958-19.83-.206-4.478 6.011-8.976 7.708-13.17 5.179-12.7918-1.805-27.8182-15.069-31.9452-9.231-2.8723-20.341.1518-26.211 7.9853-7.351 9.8113-6.912 28.0349 5.211 33.9599-1.992 8.608-5.862 16.745-8.95 25-4.49 12.004-8.618 24.388-14.05 36-5.432-11.612-9.56-23.996-14.05-36-3.088-8.255-6.958-16.392-8.95-25 12.123-5.925 12.562-24.1486 5.211-33.9599-5.87-7.8335-16.98-10.8576-26.211-7.9853-13.264 4.127-20.248 19.1534-15.069 31.9452 1.703 4.208 7.921 8.776 7.708 13.285-.294 6.213-4.804 13.889-6.958 19.715-4.988 13.491-8.976 28.278-15.681 41z" fill="#fff"/><path d="m144 78.5617c-16.967 4.2501-11.023 30.8303 6 26.9013 17.625-4.068 11.274-31.228-6-26.9013m74-.0247c-17.625 4.0678-11.274 31.228 6 26.901 16.967-4.25 11.023-30.8299-6-26.901m-157.9992 28.116c-16.6964 5.255-8.1426 31.095 8.9984 25.694 16.6687-5.252 7.8197-30.988-8.9984-25.694m239.0002 0c-17.252 5.43-6.998 32.131 9.998 25.605 15.897-6.104 6.187-30.7-9.998-25.605m-223.001 34.347c-10.1326 2.736-2.3498 17.751-.2901 25 5.9556 20.96 11.4888 42.037 17.4305 63l4.4352 16c.6318 2.252.9605 5.474 2.9884 6.972 2.753 2.034 8.214 1.028 11.436 1.028h29 86 26c3.981 0 9.007.809 12.856-.318 3.071-.899 3.538-3.974 4.294-6.683l4.71-16.999c6.22-21.947 12.43-43.945 18.256-66 1.855-7.022 8.665-19.359-1.116-22-8.926 13.232-17.478 26.717-26.333 40-2.057 3.085-5.938 11.723-10.548 11.079-4.689-.655-7.123-13.315-8.543-17.079-5.642-14.961-11.04-30.017-16.626-45-1.52-4.076-2.865-13.168-8.053-13.833-7.488-.959-9.345 10.594-11.321 15.833-5.412 14.349-10.848 28.7-16.387 43-1.652 4.266-3.15 12.398-8.244 13.677-8.525 2.142-10.721-9.866-12.895-15.677-5.249-14.033-10.766-27.962-16-42-1.563-4.193-3.222-13.341-8.179-14.677-8.173-2.205-10.258 12.278-12.295 17.677-5.516 14.628-10.835 29.336-16.257 44-1.251 3.381-3.141 13.478-7.438 14.079-4.97.694-9.643-9.723-11.881-13.079l-10-15c-5.0765-7.618-9.8787-15.408-15-23m25 122v4c-11.2287 2.272-11.2287 15.728 0 18v4h166v-4c11.229-2.272 11.229-15.728 0-18v-4z"/><path d="m181.015 267.746c-10.629 4.039-4.549 20.505 5.97 16.508 10.629-4.039 4.549-20.505-5.97-16.508z" fill="#fff"/><path d="m83 331h202c0-6.998.094-14.003-.004-21-.048-3.442-.255-7.104-3.224-9.397-3.317-2.56-8.852-1.603-12.772-1.603h-32-108-29c-3.8849 0-9.3769-.95-12.8912 1.028-3.6954 2.08-4.052 6.175-4.1049 9.972-.0977 6.997-.0039 14.002-.0039 21z"/></svg>