<svg height="368" width="368" xmlns="http://www.w3.org/2000/svg"><path d="m82 91v36c0 4.828-1.1829 11.564 1.0278 16 1.6805 3.372 4.9465 6.177 7.3966 9 6.4753 7.461 13.3336 14.585 19.8606 22 2.739 3.111 6.457 6.033 7.973 10 2.375 6.219.742 15.413.742 22 0 15.482 1.284 31.581-.059 47-.558 6.414-6.69 10.749-10.941 15-10.0674 10.067-21.882 19.744-30.6065 31-8.0802 10.425-4.3935 29.531-4.3935 42h222c0-12.469 3.687-31.575-4.394-42-8.724-11.256-20.539-20.933-30.606-31-4.251-4.251-10.383-8.586-10.941-15-1.343-15.419-.059-31.518-.059-47 0-6.587-1.633-15.781.742-22 1.516-3.967 5.234-6.889 7.973-10 6.527-7.415 13.385-14.539 19.861-22 2.45-2.823 5.716-5.628 7.396-9 2.211-4.436 1.028-11.172 1.028-16v-36h-61v19h-13v-19h-56v19h-13v-19z" fill="#fff"/><path d="m92 101v25c0 3.751-.7143 8.422.6034 12 2.3169 6.291 9.7596 12.125 14.2276 16.995 1.853 2.021 3.562 4.381 6.208 5.402 7.072 2.726 18.424.603 25.961.603h60 41c4.994 0 12.527 1.399 16.83-1.603 4.751-3.315 8.657-9.058 12.455-13.397 2.165-2.474 4.948-4.841 6.112-8 1.317-3.578.603-8.249.603-12v-25h-41v19h-33v-19h-36v19h-33v-19zm37 70v99h110v-99zm-47 161h204c0-6.978 1.656-16.448-1.009-22.999-3.248-7.983-13.956-14.979-19.991-21.001-2.654-2.649-5.381-6.062-9-7.397-7.72-2.846-19.808-.603-28-.603h-62-38c-5.077 0-12.344-1.3-17 1.028-7.289 3.644-13.0903 12.368-19 17.882-3.5705 3.332-7.8138 6.207-9.3472 11.09-2.0582 6.554-.6528 15.177-.6528 22z"/></svg>