<svg height="368" width="368" xmlns="http://www.w3.org/2000/svg"><path d="m177 119c-9.676 4.311-20.692 9.206-26 19-7.143-4.404-13.92-8.674-22-11.254-23.746-7.582-56.0278-2.903-70.3002 19.254-3.1644 4.913-5.1939 10.341-6.5686 16-1.648 6.784-2.5224 14.02-2.0417 21 1.2884 18.708 10.2892 36.827 20.7955 52 4.5409 6.558 11.6598 12.883 15.0903 20 2.9958 6.215-2.9194 8.684-5.8272 13.093-5.0774 7.7-1.3062 17.678 6.8519 20.907-1.8092 5.321-6.7145 8.601-8.3511 14.001-2.9292 9.664-.6489 22.929-.6489 32.999h212c0-10.07 2.28-23.335-.649-32.999-1.637-5.4-6.542-8.68-8.351-14.001 7.712-3.053 11.745-12.25 7.427-19.91-2.733-4.85-9.576-7.505-6.402-14.09 3.43-7.117 10.549-13.442 15.09-20 10.506-15.173 19.507-33.292 20.795-52 .481-6.98-.393-14.216-2.041-21-1.375-5.659-3.404-11.087-6.569-16-14.272-22.157-46.554-26.836-70.3-19.254-8.08 2.58-14.857 6.85-22 11.254-4.752-8.768-16.153-16.524-26-18 9.66-5.171 18.013-10.443 20.482-22 4.296-20.1061-14.489-38.3866-34.482-33.2392-27.344 7.0399-27.726 47.5922 0 54.2392z"/><path d="m180 74.5324c-22.588 5.3453-14.405 40.2366 8 34.9356 22.588-5.346 14.405-40.2375-8-34.9356m-1 54.9966c-5.952 1.373-11.599 5.528-15.98 9.645-1.86 1.748-4.325 3.991-3.689 6.826 1.318 5.871 8.998 12.787 12.244 18 3.012 4.838 5.243 10.159 8.302 14.941 1.038 1.624 2.612 3.961 4.888 3.307 4.718-1.354 8.076-12.335 10.439-16.248 2.91-4.82 6.033-9.532 9.46-14 1.492-1.944 4.165-4.343 4.133-7-.037-3.137-3.632-5.747-5.798-7.535-6.853-5.66-14.857-10.045-23.999-7.936m-82 123.471h82v-38c0-5.9 1.146-13.175-.314-18.91-1.053-4.137-4.951-8.241-6.944-12.09-7.121-13.745-15.19-28.596-27.742-38.1-26.499-20.065-76.6435-16.749-82.7037 22.1-.7073 4.534-1.5476 9.412-1.1258 14 1.6291 17.717 10.0405 34.679 20.257 49 5.1685 7.245 12.8456 13.997 16.5725 22m92 0h82c3.727-8.003 11.404-14.755 16.573-22 10.216-14.321 18.627-31.283 20.256-49 .427-4.635-.492-9.437-1.264-14-1.419-8.382-4.56-16.748-10.739-22.815-18.177-17.848-53.139-13.435-71.826.715-11.961 9.057-18.763 22.351-26 35.1-2.56 4.51-7.43 10.157-8.686 15.09-1.46 5.735-.314 13.01-.314 18.91zm-92 10c-.1935 2.559-.4286 4.645-2.3171 6.587-1.9366 1.992-6.0469 3.073-6.0471 6.409-.0003 3.348 3.9836 3.769 5.9313 5.588 2.1465 2.005 2.2832 4.683 2.4329 7.416h174c.15-2.733.286-5.411 2.433-7.416 1.946-1.817 5.931-2.24 5.931-5.585 0-3.335-3.959-3.917-5.931-5.722-2.153-1.971-2.284-4.561-2.433-7.277z" fill="#fff"/><path d="m180.094 267.858c-10.519 4.642-2.902 21.013 7.812 16.284 10.519-4.642 2.902-21.013-7.812-16.284z"/><path d="m88 326h192c0-8.157 2.812-21.479-6.005-25.972-3.702-1.887-8.968-1.028-12.995-1.028h-27-97-29c-4.285 0-10.0605-.977-13.9954 1.028-8.8171 4.493-6.0046 17.815-6.0046 25.972z" fill="#fff"/></svg>