<svg height="368" width="368" xmlns="http://www.w3.org/2000/svg"><path d="m115 336h194c0-8.19 1.089-17.253-2.133-25-2.313-5.559-7.493-8.802-8.566-15-4.424-25.547-8.625-50.797-14.928-76-4.048-16.19-8.696-33.262-16.682-48-10.933-20.18-27.917-37.559-45.691-51.8-5.268-4.221-13.282-7.942-17.272-13.384-4.566-6.228-4.096-17.7441-13.732-19.3777-7.265-1.2318-8.512 8.4705-14.996 8.0154-7.399-.5194-8.893-11.1-17.999-7.4437-7.207 2.8937-10.228 11.4688-15.055 16.99-9.413 10.767-21.186 20.996-28.98 33-3.647 5.617-3.719 12.297-6.932 18-9.7031 17.226-29.7397 28.561-33.4183 49-1.4317 7.955-1.9607 19.355.9476 27 5.066 13.318 22.4962 23.04 36.4367 19.756 9.159-2.157 16.545-10.242 24-15.601 6.947-4.993 14.62-8.005 22-12.159 8.172-4.6 15.417-10.134 22.996-15.613 3.144-2.273 6.62-4.291 8.286.652 1.585 4.699-1.41 10.04-3.736 13.965-6.204 10.471-14.992 19.445-23.546 28-10.017 10.018-21.248 19.859-28.768 32-3.153 5.092-3.876 10.797-6.535 16-2.599 5.084-7.188 8.268-8.769 14-1.99 7.218-.928 15.575-.928 23z"/><path d="m160 98c-7.441 8.988-14.318 18.277-22.169 27-5.248 5.831-11.636 11.456-15.977 18-4.534 6.835-4.373 15.249-9.534 22-6.007 7.859-12.6872 15.316-18.9311 23-3.6122 4.445-7.5617 8.491-9.3889 14 3.0808.002 7.0264-.525 9.7677 1.179 3.0387 1.889 3.0391 5.753 0 7.642-3.1968 1.987-8.1697 1.179-11.7677 1.179 0 9.04-.3318 15.897 6 23 4.7306-3.332 11.8554-14.351 17.998-14.039 2.518.129 5.019 2.689 7.002 4.039-5.141 5.141-10.807 10.048-15 16 12.918 3.076 20.151-6.174 30-12.975 11.513-7.948 24.641-12.932 36-21.177 5.061-3.674 13.547-13.186 20-13.468 3.145-.137 5.912 2.616 7.956 4.663 7.498 7.511 6.982 16.85 2.721 25.957-8.955 19.139-27.634 33.802-41.767 49-7.139 7.678-15.285 15.156-16.91 26h152c-.121-14.654-4.136-29.68-7-44-6.109-30.551-12.517-65.517-31.478-91-10.118-13.597-22.386-25.73-35.522-36.389-3.874-3.143-7.819-6.19-12-8.916-2.674-1.743-6.218-3.241-7.987-6.024-2.18-3.43-2.569-8.798-4.013-12.671-7.709 3.41-14.35 8.964-22.961 3.772-2.591-1.562-4.667-3.9177-7.039-5.772z" fill="#fff"/><path d="m208 143c2.447 5.789 6.846 10.772 10.333 16 6.446 9.664 12.84 19.509 17.883 30 7.803 16.232 13.802 33.332 17.335 51 1.724 8.619 1.853 17.404 3.449 26h11c0-32.978-12.801-69.344-32.152-96-7.513-10.349-16.631-20.609-27.848-27m-56 14h-18c-2.065.004-5.498-.527-7.164 1.028-3.372 3.146 2.205 11.441 6.179 11.065 2.591-.245 4.9-2.644 6.985-3.993 4.191-2.709 8.707-4.258 12-8.1z"/><path d="m125 326h174c-.014-5.171-.052-10.914-4.225-14.682-3.004-2.714-7.011-2.316-10.775-2.318h-21-104c-7 0-14.001-.045-21 .001-3.823.025-7.649.162-10.297 3.343-3.114 3.741-2.7 9.109-2.703 13.656z" fill="#fff"/></svg>