<svg height="368" width="368" xmlns="http://www.w3.org/2000/svg"><path d="m151 211c-5.462 22.17-11.492 41.384-25.475 60-6.445 8.579-13.673 16.599-21.525 23.91-4.7988 4.469-10.9383 8.1-14.0008 14.094-4.1929 8.207-2.9992 18.097-2.9992 26.996h194c0-8.899 1.194-18.789-2.999-26.996-3.063-5.994-9.202-9.625-14.001-14.094-7.852-7.311-15.08-15.331-21.525-23.91-13.983-18.616-20.013-37.83-25.475-60 3.662-.289 7.388-.768 11-1.461 2.698-.517 5.436-1.256 7.999-2.253 1.328-.516 2.779-1.07 3.892-1.988 11.101-9.159-4.555-20.906-10.889-27.313-1.724-1.743-3.84-3.592-4.649-5.985-1.822-5.388 2.077-13.098 1.361-19-2.653-21.876-19.393-38-41.714-38s-39.061 16.124-41.714 38c-.716 5.902 3.183 13.612 1.361 19-.809 2.393-2.925 4.242-4.649 5.985-6.334 6.407-21.99 18.154-10.889 27.313 1.113.918 2.564 1.472 3.892 1.988 2.563.997 5.301 1.736 7.999 2.253 3.612.693 7.338 1.172 11 1.461z"/><path d="m135 197h98c-3.873-5.497-9.016-10.319-14-14.83-2.329-2.109-6.51-4.498-7.335-7.749-.805-3.174 2.617-8.225 3.32-11.421 1.665-7.57.356-15.17-3.309-22-12.735-23.731-48.867-20.068-57.575 5-2.08 5.988-2.358 11.864-.862 18 .768 3.149 4.349 8.244 2.767 11.385-1.366 2.713-4.83 4.68-7.006 6.705-4.94 4.597-10.112 9.39-14 14.91m26 10c-.589 28.55-15.884 56.64-33.754 78-10.776 12.881-30.1959 22.855-30.246 41h174c-.05-18.145-19.47-28.119-30.246-41-17.87-21.36-33.165-49.45-33.754-78z" fill="#fff"/></svg>