<svg height="368" width="368" xmlns="http://www.w3.org/2000/svg"><path d="m87 96v31c0 4.312-.9559 10.03 1.0278 14 1.7108 3.424 5.0631 6.138 7.5478 9 6.4544 7.434 13.1994 14.615 19.7094 22 2.731 3.097 6.647 6.027 8.112 10 2.373 6.439.603 16.186.603 23 0 16.469 1.369 33.598-.059 50-.594 6.83-7.494 11.39-11.902 16-6.37 6.662-12.4269 13.535-19.039 19.985-3.7794 3.687-8.3707 6.795-11.581 11.019-6.3994 8.42-3.419 23.977-3.419 33.996h212c0-9.966 3.007-25.638-3.419-33.985-3.211-4.172-7.843-7.325-11.581-11.019-6.57-6.491-12.669-13.333-19.039-19.996-4.408-4.61-11.308-9.17-11.902-16-1.428-16.402-.059-33.531-.059-50 0-6.814-1.77-16.561.603-23 1.465-3.973 5.381-6.903 8.112-10 6.51-7.385 13.255-14.566 19.709-22 2.485-2.862 5.837-5.576 7.548-9 1.984-3.97 1.028-9.688 1.028-14v-31h-51v19h-22v-19h-47v19h-23v-19z"/><path d="m97 106v20c0 3.178-.5161 6.964.6034 10 2.4126 6.542 10.6086 12.921 15.3106 17.999 2.124 2.293 4.105 5.233 7.125 6.398 6.57 2.533 16.967.603 23.961.603h53 37c4.771 0 11.712 1.27 15.83-1.603 5.132-3.581 9.167-9.775 13.34-14.397 2.509-2.78 5.895-5.388 7.227-9 1.119-3.036.603-6.822.603-10v-20h-31v19h-42v-19h-27v19h-43v-19zm37 64v102h100v-102zm-46 156h192c0-4.788 1.15-11.348-.742-15.83-1.532-3.629-5.535-6.457-8.258-9.171-6.217-6.197-13.094-16.018-21-19.971-4.201-2.101-10.432-1.028-15-1.028h-32-58c-7.641 0-18.792-2.054-26 .603-5.116 1.887-9.245 7.642-13 11.397-5.137 5.137-14.4053 11.413-17.2577 18.17-1.8923 4.482-.7423 11.042-.7423 15.83z" fill="#fff"/></svg>