<svg clip-rule="evenodd" fill-rule="evenodd" height="50mm" image-rendering="optimizeQuality" shape-rendering="geometricPrecision" text-rendering="geometricPrecision" viewBox="0 0 50 50" width="50mm" xmlns="http://www.w3.org/2000/svg" xmlns:xlink="http://www.w3.org/1999/xlink"><linearGradient id="a" gradientTransform="matrix(.94331 0 0 1 615.66 493.37)" gradientUnits="userSpaceOnUse" x1="-639.4" x2="-612.91" y1="-465.15" y2="-465.15"><stop offset="0" stop-color="#796c60"/><stop offset="1" stop-color="#4b403b"/></linearGradient><path d="m25 12.264c-3.5606.00033-6.4472 2.655-6.4472 5.9308 0 1.7037.79913 3.3253 2.1899 4.4501h-1.6658c-1.3124 0-2.3991.97737-2.3991 2.1571v.43774c0 1.1797 1.0867 2.1576 2.3991 2.1576h2.3762c0 7.2926-9.3422 6.4563-8.6888 16.779l12.235-.008h.000491l12.235.008c.65333-10.323-8.6888-9.4864-8.6888-16.779h2.3762c1.3123 0 2.3991-.97792 2.3991-2.1576v-.43774c0-1.1797-1.0867-2.1571-2.3991-2.1571h-1.6658c1.3908-1.1249 2.1899-2.7464 2.1899-4.4501 0-3.2758-2.8862-5.9304-6.4467-5.9308z" style="clip-rule:evenodd;fill-rule:evenodd;image-rendering:optimizeQuality;shape-rendering:geometricPrecision;stroke:#1e1e1e;stroke-linejoin:round;stroke-width:1.6;fill:url(#a)"/><path d="m24.999 12.264c-.52127.00002-1.0278.0583-1.5134.16586 6.2576.69224 7.6752 6.4659 4.9175 9.2225-2.0156 1.6905-7.6616.99304-7.6616.99304 2.5601.44225 4.9693 1.9534 7.2511 2.4872-6.0327 11.435 9.7003 9.0263 9.2425 19.043.99499-10.592-7.6734-8.1475-8.6891-16.779h2.3765c1.3126 0 2.3987-.97738 2.3987-2.157v-.43774c0-1.1797-1.0861-2.1576-2.3987-2.1576h-1.6661c1.3909-1.1248 2.1906-2.7458 2.1903-4.4493 0-3.276-2.8868-5.9316-6.4476-5.9316z" style="clip-rule:evenodd;fill-rule:evenodd;image-rendering:optimizeQuality;opacity:.15;shape-rendering:geometricPrecision;stroke-width:1.1"/><g fill="#fff"><path d="m22.959 13.401c-1.7705 1.6022-2.9678 3.6124-3.4764 6.1894 0 0-1.1588-4.2348 3.4764-6.1894z" opacity=".25"/><path d="m13.342 43.419c.27336-5.3214 2.5725-6.1836 7.538-11.434-1.0309 3.5662-7.3866 5.8684-7.538 11.434z" opacity=".25"/></g></svg>