<svg clip-rule="evenodd" fill-rule="evenodd" height="50mm" image-rendering="optimizeQuality" shape-rendering="geometricPrecision" text-rendering="geometricPrecision" viewBox="0 0 50 50" width="50mm" xmlns="http://www.w3.org/2000/svg" xmlns:xlink="http://www.w3.org/1999/xlink"><linearGradient id="a" gradientUnits="userSpaceOnUse" x1="12.14" x2="40.17" xlink:href="#b" y1="23.5" y2="23.5"/><linearGradient id="b"><stop offset="0" stop-color="#fff"/><stop offset="1" stop-color="#bba38a"/></linearGradient><linearGradient id="c" gradientUnits="userSpaceOnUse" x1="9.81" x2="40.19" xlink:href="#b" y1="41.24" y2="41.24"/><g clip-rule="evenodd" fill-rule="evenodd" image-rendering="optimizeQuality" shape-rendering="geometricPrecision"><path d="m25.987 23.546-11.592 1.0972-1.4539-5.2159 14.468-6.8148 1.7627-3.9014 10.201 11.893c0 .00007-4.1164 17.678-4.1164 17.678l-20.517-.00003c.24439-11.292 9.6388-8.1002 11.247-14.736z" fill="url(#a)" stroke="#323232" stroke-linejoin="round" stroke-width="1.6"/><path d="m29.173 8.7206-.87878 1.9441.42601-.94271c2.6921 3.7225 5.6077 7.2787 8.4495 10.888l-5.285 17.671h3.3727s4.1154-17.667 4.1166-17.671z" opacity=".1" stroke-width="1.0999"/><path d="m13.24 38.286c-1.4368 0-2.627 1.2165-2.627 2.6847v.5449l.0125 2.6847h28.749l.0125-2.6847v-.5449c0-1.4682-1.1903-2.6847-2.627-2.6847h-11.76z" fill="url(#c)" stroke="#323232" stroke-linecap="round" stroke-linejoin="round" stroke-width="1.6"/></g><g fill="#fff"><path d="m15.62 37.633c.15876-4.4723 2.1448-6.9714 8.6668-9.837-.98675 1.1072-6.4046 2.2365-8.6668 9.837z"/><path d="m14.418 21.67-.5231-1.8028 14.136-6.6567 1.2167-2.7642-.67098 3.558-14.35 5.9208z"/></g></svg>