<svg height="408pt" viewBox="-50 -90 498 528" width="408pt" xmlns="http://www.w3.org/2000/svg"><g transform="translate(0 -20)"><path d="m319.324219 393h-230.648438c4.5-5.578125 17.746094-23.472656 17.746094-49.5 0-6.972656-.953125-28.679688-17.746094-49.5h230.648438c-4.5 5.578125-17.742188 23.472656-17.742188 49.5 0 6.972656.949219 28.679688 17.742188 49.5" fill="#ccc"/><path d="m140 393c3.5625-10.28125 11.433594-25.773438 12-45 .699219-23.796875-8.101562-41.722656-12-53-10.679688 0-27.253906-1-37.933594-1l15.5625 54-24.714844 45zm0 0" fill="#fff"/><path d="m113.503906 378h180.980469c-5.523437-14.015625-6.632813-26.636719-6.632813-34.5 0-13.320312 2.828126-24.914062 6.644532-34.5h-180.980469c5.523437 14.015625 6.632813 26.636719 6.632813 34.5 0 13.320312-2.828126 24.914062-6.644532 34.5m205.816406 30h-230.640624c-5.398438 0-10.292969-3.453125-12.511719-8.824219-2.222657-5.375-1.355469-11.667969 2.210937-16.09375 5.34375-6.628906 14.3125-20.585937 14.3125-39.582031 0-8.152344-1.859375-24.140625-14.316406-39.585938-3.5625-4.421874-4.429688-10.71875-2.207031-16.089843 2.21875-5.371094 7.113281-8.824219 12.511719-8.824219h230.640624c5.398438 0 10.292969 3.453125 12.511719 8.824219 2.222657 5.375 1.359375 11.667969-2.210937 16.09375-5.34375 6.628906-14.3125 20.585937-14.3125 39.582031 0 8.152344 1.859375 24.140625 14.3125 39.585938 3.570312 4.421874 4.433594 10.71875 2.210937 16.089843-2.21875 5.371094-7.113281 8.824219-12.511719 8.824219"/><path d="m91.101562 254.300781-35.371093-126.96875c3.238281 1.949219 50.433593 69.042969 74.132812 54.167969 18.851563-11.832031 14.929688-84.179688 16.476563-112.5 8.296875 26.242188 36.085937 93.75 57.660156 93.75s49.363281-67.507812 57.660156-93.75c.523438 3.230469-7.828125 97.15625 24.710938 112.5 18.585937 8.765625 59.882812-51.511719 65.902344-54.167969-6.167969 35.207031-28.808594 83.804688-34.972657 126.796875-3.28125 22.882813-22.648437 39.871094-45.507812 39.871094h-135.210938c-22.789062 0-42.140625-16.890625-45.480469-39.699219" fill="#ccc"/><path d="m86.828125 159c66.171875 33 6.171875 120 143.171875 120l-100.027344 15c-11.191406-10.46875-34.066406-34.773438-43.144531-72-6.589844-27.015625-3.199219-49.722656 0-63" fill="#fff"/><path d="m84.824219 180.261719 19.410156 69.671875c.183594.65625.324219 1.324218.421875 2 2.261719 15.429687 15.988281 27.066406 31.925781 27.066406h135.214844c15.984375 0 29.71875-11.691406 31.941406-27.191406 3.394531-23.65625 11.148438-47.886719 18.902344-71.429688-14.898437 13.738282-28.769531 20.996094-41.707031 14.890625-16.640625-7.84375-27.207032-28.601562-31.417969-61.707031-16.027344 30.144531-30.496094 44.1875-45.515625 44.1875-15.078125 0-29.59375-14.148438-45.691406-44.519531-.03125-.0625-.066406-.128907-.097656-.191407-2.066407 30.175782-7.304688 52.554688-21.507813 61.46875-4.605469 2.886719-9.4375 4.160157-14.382813 4.160157-12.390624 0-25.488281-7.984375-37.496093-18.40625m186.972656 128.738281h-135.214844c-14.125 0-27.832031-5.175781-38.601562-14.578125-10.75-9.378906-17.917969-22.363281-20.265625-36.660156l-35.117188-126.058594c-1.628906-5.839844.144532-12.171875 4.484375-16.019531 4.335938-3.847656 10.375-4.433594 15.265625-1.492188 2.628906 1.578125 4.121094 3.40625 9.070313 9.457032 6.425781 7.855468 18.390625 22.480468 30.515625 33.101562 13.46875 11.796875 19.84375 12.3125 21.015625 11.785156.488281-.507812 4.574219-5.359375 6.976562-27.066406 1.777344-16.09375 2.003907-35.355469 2.183594-50.835938.105469-8.8125.191406-16.425781.527344-22.527343.386719-7.144531 5.34375-12.992188 11.835937-13.964844 6.484375-.972656 12.703125 3.195313 14.84375 9.960937 4.09375 12.953126 12.351563 34.003907 21.566406 51.824219 12.207032 23.609375 20.519532 30.757813 23.117188 31.753907 2.597656-.996094 10.910156-8.144532 23.117188-31.753907 9.214843-17.820312 17.472656-38.871093 21.566406-51.824219 2.042968-6.460937 7.828125-10.585937 14.0625-10.054687 6.234375.539063 11.351562 5.621094 12.4375 12.351563.324218 2.007812.265625 3.449218.078125 8.222656-2.902344 73.414062 10.296875 89.257812 15.691406 92.632812 1.535156-.429687 6.34375-2.4375 16.085937-11.765625 8.308594-7.953125 16.664063-17.789062 23.378907-25.695312 8.890625-10.46875 12.214843-14.382813 16.710937-16.367188 4.660156-2.058593 9.976563-1.167969 13.859375 2.320313 3.882813 3.484375 5.710938 9.011718 4.765625 14.40625-2.988281 17.066406-9.296875 36.191406-15.976562 56.441406-7.734375 23.453125-15.734375 47.707031-18.914063 69.855469-2.117187 14.773437-9.355469 28.230469-20.382812 37.898437-10.785157 9.449219-24.519531 14.652344-38.683594 14.652344"/><path d="m168 42c0 14.910156-12.089844 27-27 27s-27-12.089844-27-27 12.089844-27 27-27 27 12.089844 27 27" fill="#f2f2f2"/><path d="m0 0c0-14.910156-12.089844-27-27-27s-27 12.089844-27 27 12.089844 27 27 27 27-12.089844 27-27zm0 0" fill="none" stroke="#000" stroke-linejoin="round" stroke-miterlimit="10" stroke-width="30" transform="matrix(1 0 0 -1 168 42)"/><path d="m294 42c0 14.910156-12.089844 27-27 27s-27-12.089844-27-27 12.089844-27 27-27 27 12.089844 27 27" fill="#f2f2f2"/><path d="m0 0c0-14.910156-12.089844-27-27-27s-27 12.089844-27 27 12.089844 27 27 27 27-12.089844 27-27zm0 0" fill="none" stroke="#000" stroke-linejoin="round" stroke-miterlimit="10" stroke-width="30" transform="matrix(1 0 0 -1 294 42)"/><path d="m393 96c0 14.910156-12.089844 27-27 27s-27-12.089844-27-27 12.089844-27 27-27 27 12.089844 27 27" fill="#f2f2f2"/><path d="m0 0c0-14.910156-12.089844-27-27-27s-27 12.089844-27 27 12.089844 27 27 27 27-12.089844 27-27zm0 0" fill="none" stroke="#000" stroke-linejoin="round" stroke-miterlimit="10" stroke-width="30" transform="matrix(1 0 0 -1 393 96)"/><path d="m69 96c0 14.910156-12.089844 27-27 27s-27-12.089844-27-27 12.089844-27 27-27 27 12.089844 27 27" fill="#f2f2f2"/><g fill="none" stroke="#000" stroke-linejoin="round" stroke-miterlimit="10" stroke-width="30"><path d="m0 0c0-14.910156-12.089844-27-27-27s-27 12.089844-27 27 12.089844 27 27 27 27-12.089844 27-27zm0 0" transform="matrix(1 0 0 -1 69 96)"/><path d="m.00004375 0h197.69531225" transform="matrix(1 0 0 -1 105.1523 348)"/></g></g></svg>