<svg height="50.7752mm" viewBox="0 0 50.800007 50.7752" width="50.800007mm" xmlns="http://www.w3.org/2000/svg"><g transform="translate(-91.873894 -87.934431)"><g fill="#fff"><path d="m120.54827 117.97254q.62012-.12402 1.38906-.27285.79375-.17363 1.68672-.47129.79375-.24805.5209-.89297-.17363-.27285-.49609-.27285-1.76113.39687-3.32383.47129.59531-.22324 1.24023-.44649.64493-.24804 1.26504-.5457 1.93477-.91777 2.55489-4.01836.12402-.71933-.47129-.81855-.5209-.0496-.81856.42168-.59531 2.20761-1.88515 2.97656-.42168.24805-.86817.44648-.44648.19844-.89297.42168.4961-.52089.91778-1.26504.76894-1.28984 1.04179-4.56406-.17363-.86816-.86816-.64492-.22324.12402-.29766.22324-.44648 3.52227-1.21543 4.63848-.27285.27285-.37207.47129-.22324.17363-.42168.34726-.17363.14883-.34726.29766-.42168.5457-.42168 1.24023 0 .84336.47129 1.53789.49609.69454 1.6123.71934z"/><path d="m118.78714 101.25418q6.8709 3.37344 10.14512 8.28477 2.00918 3.05097 2.6789 7.24297.66973 4.19199.66973 9.40097-.12402 2.00918 1.11621 3.52227 1.26504 1.51308 2.82773 1.19062.47129-15.08125-5.35781-22.99394-1.78594-2.38125-4.98574-4.61367-3.1998-2.23243-7.14375-3.993559 0 .520899.0248 1.066599.0248.5209.0248.89297z"/><path d="m104.20198 122.0157q.27286-.44648.62012-.86816.37207-.44648.66973-.99219.5457-1.11621-.54571-1.31465-.19843-.0496-.44648.0496-.71934.96739-1.5627 1.95957-.12402.0992-.5705.4961-.22325.74414-.0248 1.14101.32246.74414 1.21543.0992.44649-.34726.64492-.57051z"/><path d="m112.93323 115.6409q.0744-.29766.17364-.59531.12402-.29766.19843-.59531.22325-.96739-.5457-.96739-.27285 0-.66973.44649-.17363.39687-.34726.79375-.17363.37207-.27285.69453-.0744.24804-.22325.69453-.0496.37207.29766.5457.5209.29766 1.0666-.47129.17364-.17363.32246-.5457z"/><path d="m101.34944 117.62527q.24805-.34726.57051-.69453.32246-.37207.57051-.81855.49609-.91777-.47129-1.0666-.14883-.0248-.42168.0248-.59531.76895-1.38906 1.61231-.297657.22324-.496095.39687-.198437.62012-.02481.91778.297657.62011 1.091415.0992.39687-.29765.5705-.47129z"/><path d="m108.66683 106.61199q.17363 1.06661.5705 1.21543.39688.14883 1.11622.0992.96738-.0744 1.48828-.39687 1.04179-.66973 1.83554-2.90215-.79375.24805-1.48828.24805t-1.66191.0744q-1.36426.12402-1.86035 1.66191z"/><path d="m108.34437 120.99871q-.34727.37207-.57051.54571-.19844.14882-.34727.29765-.12402.12403-1.6123 1.63711-.57051.62012-1.36426.79375-.5209.14883-1.46348-.12402-3.100582-.81856-4.88652-3.27422-.694531-.91777-.992187-2.20762-.272852-1.31465.272851-3.32383.545704-2.03398 3.943946-4.63847 3.6959-2.82774 4.34082-4.48965.5457-.96738 1.24023-2.1332.71934-1.16582 1.68672-2.25723.59532-.42168 1.11621-.96738.54571-.57051 1.06661-1.165824v-3.050976q1.36425.272851 2.00918.79375.29765.322461.64492.595312.37207.272852.66972.595313.62012-1.116211.79375-1.860352.0248-.173633.17364-.694531.14882-.520899.29765-1.711524.37207-.09922.64492.198438 1.14102 1.289844 2.15801 2.877344 4.53926 1.810742 8.28477 4.29121 3.77031 2.48047 5.77949 5.15938 5.68027 7.71425 5.68027 22.72109 0 3.15019-.32246 5.75469h-33.8584q-.32246-3.22461 3.42305-6.8461 1.68672-1.63711 3.49746-3.175 1.83555-1.53789 3.57188-3.12539 3.22461-2.97656 3.57187-4.7625-.12402-.29765-.47129-.39687-.86816.5209-1.73633.66972-.86816.14883-1.71152.19844-.5457.0248-1.0914.0496-.5209 0-1.24024-.24805-.96738 1.09141-1.66191 1.88516-.66973.76895-1.53789 1.38906z"/></g><path d="m120.54827 117.97254q.62012-.12402 1.38906-.27285.79375-.17363 1.68672-.47129.79375-.24805.5209-.89297-.17363-.27285-.49609-.27285-1.76113.39687-3.32383.47129.59531-.22324 1.24023-.44649.64493-.24804 1.26504-.5457 1.93477-.91777 2.55489-4.01836.12402-.71933-.47129-.81855-.5209-.0496-.81856.42168-.59531 2.20761-1.88515 2.97656-.42168.24805-.86817.44648-.44648.19844-.89297.42168.4961-.52089.91778-1.26504.76894-1.28984 1.04179-4.56406-.17363-.86816-.86816-.64492-.22324.12402-.29766.22324-.44648 3.52227-1.21543 4.63848-.27285.27285-.37207.47129-.22324.17363-.42168.34726-.17363.14883-.34726.29766-.42168.5457-.42168 1.24023 0 .84336.47129 1.53789.49609.69454 1.6123.71934zm-1.76113-16.71836q6.8709 3.37344 10.14512 8.28477 2.00918 3.05097 2.6789 7.24297.66973 4.19199.66973 9.40097-.12402 2.00918 1.11621 3.52227 1.26504 1.51308 2.82773 1.19062.47129-15.08125-5.35781-22.99394-1.78594-2.38125-4.98574-4.61367-3.1998-2.23243-7.14375-3.993559 0 .520899.0248 1.066599.0248.5209.0248.89297zm-14.58516 20.76152q.27286-.44648.62012-.86816.37207-.44648.66973-.99219.5457-1.11621-.54571-1.31465-.19843-.0496-.44648.0496-.71934.96739-1.5627 1.95957-.12402.0992-.5705.4961-.22325.74414-.0248 1.14101.32246.74414 1.21543.0992.44649-.34726.64492-.57051zm8.73125-6.3748q.0744-.29766.17364-.59531.12402-.29766.19843-.59531.22325-.96739-.5457-.96739-.27285 0-.66973.44649-.17363.39687-.34726.79375-.17363.37207-.27285.69453-.0744.24804-.22325.69453-.0496.37207.29766.5457.5209.29766 1.0666-.47129.17364-.17363.32246-.5457zm-11.58379 1.98437q.24805-.34726.57051-.69453.32246-.37207.57051-.81855.49609-.91777-.47129-1.0666-.14883-.0248-.42168.0248-.59531.76895-1.38906 1.61231-.297657.22324-.496095.39687-.198437.62012-.02481.91778.297657.62011 1.09141.0992.39687-.29765.5705-.47129zm7.31739-11.01328q.17363 1.06661.5705 1.21543.39688.14883 1.11622.0992.96738-.0744 1.48828-.39687 1.04179-.66973 1.83554-2.90215-.79375.24805-1.48828.24805t-1.66191.0744q-1.36426.12402-1.86035 1.66191zm-.32246 14.38672q-.34727.37207-.57051.54571-.19844.14882-.34727.29765-.12402.12403-1.6123 1.63711-.57051.62012-1.36426.79375-.5209.14883-1.46348-.12402-3.100582-.81856-4.88652-3.27422-.694531-.91777-.992187-2.20762-.272852-1.31465.272851-3.32383.545704-2.03398 3.943946-4.63847 3.6959-2.82774 4.34082-4.48965.5457-.96738 1.24023-2.1332.71934-1.16582 1.68672-2.25723.59532-.42168 1.11621-.96738.54571-.57051 1.06661-1.165824v-3.050976q1.36425.272851 2.00918.79375.29765.322461.64492.595312.37207.272852.66972.595313.62012-1.116211.79375-1.860352.0248-.173633.17364-.694531.14882-.520899.29765-1.711524.37207-.09922.64492.198438 1.14102 1.289844 2.15801 2.877344 4.53926 1.810742 8.28477 4.29121 3.77031 2.48047 5.77949 5.15938 5.68027 7.71425 5.68027 22.72109 0 3.15019-.32246 5.75469h-33.8584q-.32246-3.22461 3.42305-6.8461 1.68672-1.63711 3.49746-3.175 1.83555-1.53789 3.57188-3.12539 3.22461-2.97656 3.57187-4.7625-.12402-.29765-.47129-.39687-.86816.5209-1.73633.66972-.86816.14883-1.71152.19844-.5457.0248-1.0914.0496-.5209 0-1.24024-.24805-.96738 1.09141-1.66191 1.88516-.66973.76895-1.53789 1.38906z" stroke-width=".264583"/></g></svg>