<svg height="50.775188mm" viewBox="0 0 50.800018 50.775188" width="50.800018mm" xmlns="http://www.w3.org/2000/svg"><g transform="translate(-93.8116 -143.66011)"><g fill="#fff"><path d="m120.42655 152.76347q.37207 4.01836.74414 8.03672.39687 3.99356.79375 7.98711.0248.57051.57051.57051.39687-.0248.5457-.34727 2.15801-5.20898 3.175-8.06152 1.0418-2.87734 1.26504-3.54707-1.14102-1.09141-1.14102-2.45566 0-1.19063.84336-2.03399.86817-.86816 2.0836-.86816 1.19062 0 2.03398.86816.86816.84336.86816 2.03399 0 2.158-2.23242 2.92695l-1.81074 10.81484q-.12402.74414.5209.74414.5209 0 .79375-.27285 2.97656-2.97656 4.26641-4.61367 1.31464-1.63711 1.83554-2.28203-.5457-.71934-.5457-1.73633 0-2.90215 2.90215-2.90215 1.19062 0 2.03398.86817.86817.84336.86817 2.03398 0 1.21543-.86817 2.05879-.84336.84336-2.03398.84336-.37207 0-.66973-.0744-1.98437 4.29121-3.175 8.78085-1.01699 3.64629-1.26504 6.92051.14883.69453.17363.71934-.0744-.29766.0992.57051.0992.39687.0992.76894-.14883.39688-.62011.89297-.42168.47129-.62012 1.86035.91777 1.28985.91777 2.0836 0 2.08359-4.01836 3.57187t-9.64902 1.48828q-5.65547 0-9.67383-1.48828-3.99355-1.48828-3.99355-3.57187 0-.81856.96738-2.13321-.29766-1.41386-.64492-1.81074-.4961-.49609-.64492-.89297 0-.32246.0744-.74414.0496-.19844.0744-.34726.0248-.17364.0496-.24805.0992-.27285.19844-.76895-.24805-3.12539-1.21543-6.8709-1.28984-4.71289-3.1998-8.83046-.42168.12402-.86817.12402-2.902147 0-2.902147-2.90215t2.902147-2.90215q2.90215 0 2.90215 2.90215 0 .89297-.44648 1.61231 1.46347 1.86035 2.92695 3.47265 1.48828 1.5875 3.27422 3.49746.22324.32246.64492.32246.71934 0 .64492-.74414-.0496-.22324-.62012-3.54707-.5705-3.32383-1.24023-7.24297-2.35645-.64492-2.35645-2.95175 0-1.19063.84336-2.03399.86817-.86816 2.05879-.86816 2.90215 0 2.90215 2.90215 0 1.28984-.99219 2.35644.12403.5209.62012 2.0836.49609 1.53789 1.53789 4.06796.57051 1.38907 1.14102 2.80293.59531 1.38907 1.19062 2.75332.14883.32247.5209.32247.5209-.0248.59531-.54571.0496-.29765 1.51309-15.99902-1.76113-.94258-1.76113-2.80293 0-1.19063.84336-2.05879.84335-.86816 2.05878-.86816 1.19063 0 2.03399.86816.86816.86816.86816 2.05879 0 1.68672-1.6123 2.77812z"/><path d="m113.72928 178.36191q-1.36425 0-1.36425 1.43867 0 1.46348 1.36425 1.46348 1.38907 0 1.38907-1.46348 0-1.43867-1.38907-1.43867z"/><path d="m106.16385 173.15293q.29766 1.01699.5209 1.83554.24805.79375.42168 1.73633.14883.0744.44649.0744 2.08359-.62012 5.10976-1.09141 3.05098-.47129 6.54844-.47129 3.57187 0 6.64765.49609 3.07579.47129 5.15938 1.09141.12402 0 .37207-.0992.14883-.89297.39688-1.66191.24804-.79375.5457-1.83555-2.82774-.64492-6.17637-1.26504t-6.94531-.62012-6.8709.62012q-3.27422.59531-6.17637 1.19063z"/><path d="m131.06776 180.9664-1.78594-1.71152-2.28203.91777 1.81074 1.71153z"/><path d="m122.36131 179.20527-3.1998-1.66191-3.07578 1.66191 3.1998 1.68672z"/><path d="m111.64569 180.19746-2.50527-.84336-1.98438 1.56269 2.48047.84336z"/><path d="m124.66815 178.36191q-1.38906 0-1.38906 1.43867 0 1.46348 1.38906 1.46348t1.38906-1.46348q0-1.43867-1.38906-1.43867z"/><path d="m130.10038 186.96914q-.14883-.74414-.34727-1.24024-.29766-.64492-.59531-.84336-.29766-.22324-.5457-.5705-1.31465-.84336-3.6959-1.43868-2.35645-.62011-5.70508-.5457-3.42305-.0744-5.75469.5457-2.33164.59532-3.62148 1.43868-.32246.29765-.62012.5457-.29766.22324-.5209.84336-.24805.74414-.34726 1.26504-.0496.84336.74414.84336.74414 0 .74414-.81856.22324-2.57969 9.32656-2.57969 9.20254 0 9.45059 2.57969-.0496.81856.74414.81856.74414 0 .74414-.84336z"/></g><path d="m120.42655 152.76347q.37207 4.01836.74414 8.03672.39687 3.99356.79375 7.98711.0248.57051.57051.57051.39687-.0248.5457-.34727 2.15801-5.20898 3.175-8.06152 1.0418-2.87734 1.26504-3.54707-1.14102-1.09141-1.14102-2.45566 0-1.19063.84336-2.03399.86817-.86816 2.0836-.86816 1.19062 0 2.03398.86816.86816.84336.86816 2.03399 0 2.158-2.23242 2.92695l-1.81074 10.81484q-.12402.74414.5209.74414.5209 0 .79375-.27285 2.97656-2.97656 4.26641-4.61367 1.31464-1.63711 1.83554-2.28203-.5457-.71934-.5457-1.73633 0-2.90215 2.90215-2.90215 1.19062 0 2.03398.86817.86817.84336.86817 2.03398 0 1.21543-.86817 2.05879-.84336.84336-2.03398.84336-.37207 0-.66973-.0744-1.98437 4.29121-3.175 8.78085-1.01699 3.64629-1.26504 6.92051.14883.69453.17363.71934-.0744-.29766.0992.57051.0992.39687.0992.76894-.14883.39688-.62011.89297-.42168.47129-.62012 1.86035.91777 1.28985.91777 2.0836 0 2.08359-4.01836 3.57187t-9.64902 1.48828q-5.65547 0-9.67383-1.48828-3.99355-1.48828-3.99355-3.57187 0-.81856.96738-2.13321-.29766-1.41386-.64492-1.81074-.4961-.49609-.64492-.89297 0-.32246.0744-.74414.0496-.19844.0744-.34726.0248-.17364.0496-.24805.0992-.27285.19844-.76895-.24805-3.12539-1.21543-6.8709-1.28984-4.71289-3.1998-8.83046-.42168.12402-.86817.12402-2.902147 0-2.902147-2.90215t2.902147-2.90215q2.90215 0 2.90215 2.90215 0 .89297-.44648 1.61231 1.46347 1.86035 2.92695 3.47265 1.48828 1.5875 3.27422 3.49746.22324.32246.64492.32246.71934 0 .64492-.74414-.0496-.22324-.62012-3.54707-.5705-3.32383-1.24023-7.24297-2.35645-.64492-2.35645-2.95175 0-1.19063.84336-2.03399.86817-.86816 2.05879-.86816 2.90215 0 2.90215 2.90215 0 1.28984-.99219 2.35644.12403.5209.62012 2.0836.49609 1.53789 1.53789 4.06796.57051 1.38907 1.14102 2.80293.59531 1.38907 1.19062 2.75332.14883.32247.5209.32247.5209-.0248.59531-.54571.0496-.29765 1.51309-15.99902-1.76113-.94258-1.76113-2.80293 0-1.19063.84336-2.05879.84335-.86816 2.05878-.86816 1.19063 0 2.03399.86816.86816.86816.86816 2.05879 0 1.68672-1.6123 2.77812zm-6.69727 25.59844q-1.36425 0-1.36425 1.43867 0 1.46348 1.36425 1.46348 1.38907 0 1.38907-1.46348 0-1.43867-1.38907-1.43867zm-7.56543-5.20898q.29766 1.01699.5209 1.83554.24805.79375.42168 1.73633.14883.0744.44649.0744 2.08359-.62012 5.10976-1.09141 3.05098-.47129 6.54844-.47129 3.57187 0 6.64765.49609 3.07579.47129 5.15938 1.09141.12402 0 .37207-.0992.14883-.89297.39688-1.66191.24804-.79375.5457-1.83555-2.82774-.64492-6.17637-1.26504t-6.94531-.62012-6.8709.62012q-3.27422.59531-6.17637 1.19063zm24.90391 7.81347-1.78594-1.71152-2.28203.91777 1.81074 1.71153zm-8.70645-1.76113-3.1998-1.66191-3.07578 1.66191 3.1998 1.68672zm-10.71562.99219-2.50527-.84336-1.98438 1.56269 2.48047.84336zm13.02246-1.83555q-1.38906 0-1.38906 1.43867 0 1.46348 1.38906 1.46348t1.38906-1.46348q0-1.43867-1.38906-1.43867zm5.43223 8.60723q-.14883-.74414-.34727-1.24024-.29766-.64492-.59531-.84336-.29766-.22324-.5457-.5705-1.31465-.84336-3.6959-1.43868-2.35645-.62011-5.70508-.5457-3.42305-.0744-5.75469.5457-2.33164.59532-3.62148 1.43868-.32246.29765-.62012.5457-.29766.22324-.5209.84336-.24805.74414-.34726 1.26504-.0496.84336.74414.84336.74414 0 .74414-.81856.22324-2.57969 9.32656-2.57969 9.20254 0 9.45059 2.57969-.0496.81856.74414.81856.74414 0 .74414-.84336z" stroke-width=".264583"/></g></svg>