<svg height="50.775204mm" viewBox="0 0 50.799999 50.775204" width="50.799999mm" xmlns="http://www.w3.org/2000/svg"><g transform="translate(-42.629486 -89.604856)"><g fill="#fff"><path d="m68.203061 125.00079q-2.802929 0-4.787304.4961-1.984375.49609-1.984375 1.19062t1.984375 1.19063q1.984375.47129 4.787304.47129 2.80293 0 4.787305-.47129 2.00918-.4961 2.00918-1.19063t-2.00918-1.19062q-1.984375-.4961-4.787305-.4961z"/><path d="m73.808921 94.441419q-1.066602 0-1.066602 1.041797 0 1.066602 1.066602 1.066602 1.066601 0 1.066601-1.066602 0-1.041797-1.066601-1.041797z"/><path d="m67.855796 94.367009q-1.016993 0-1.016993 1.016992t1.016993 1.016992q1.016992 0 1.016992-1.016992t-1.016992-1.016992z"/><path d="m71.89896 108.48087v-1.26504h-3.175v-4.2416h-1.265039v4.2416h-3.175v1.26504h3.175v5.92832h1.265039v-5.92832z"/><path d="m72.965561 109.54747h-3.175v5.92832h-3.398242v-5.92832h-3.175v-3.37343h3.175v-4.24161h3.398242v4.24161h3.175z"/><path d="m70.485093 123.04122-2.406055-.99218-2.38125.99218 2.38125.99219z"/><path d="m77.728061 109.72111q.272852-1.33946-.843359-4.93614-1.091406-3.62148-3.249414-6.002727-.322461-.198437-.570508-.173632-.37207.04961-.694531.37207-.297657.322461-.07441.768945 2.629297 1.785934 4.018359 5.134564 1.389062 3.34864 1.413867 4.83692z"/><path d="m62.547593 119.2213q2.38125-.79375 5.531445-.79375 3.274219 0 5.581054.79375 3.026172-6.10195 3.026172-9.57461 0-5.87871-8.508007-11.434954-8.483203 5.556244-8.483203 11.434954 0 3.74551 2.852539 9.57461z"/><path d="m73.188803 121.75138-.446484-1.5627q-2.083594-.49609-4.688086-.49609-2.554883 0-4.489648.44649l-.496094 1.58749q2.058789-.5457 4.985742-.5457 3.075781 0 5.13457.57051z"/><path d="m74.081772 124.40548-.545703-1.76113-2.207617.47129 2.182812 1.41386z"/><path d="m62.225132 124.43028.446484.0992 2.182813-1.41386-2.108399-.47129z"/><path d="m68.054233 134.37696q-1.835547 2.6541-4.960937 2.6541-.322461 0-.644922-.0248-.297656-.0496-.595313-.0744-.719336-.0248-2.108398-.24805-1.389062-.24805-3.100586-1.11621-1.513086-1.31465-3.844726-1.31465-1.785938 0-3.100586.84336-.372071.17363-.917774.71934-.992187 1.0666-1.612304 1.16582-.496094-.24805-.520899-.84336-.124023-1.16582 1.711524-3.00137-.322461.0496-1.21543.29766-.744141.22324-.992188.22324-.818554.12402-.868164.0248-.272851-.27285.198438-1.11621.396875-.71933 1.53789-1.26504.148829-.0744.942579-.42168 2.306835-1.21543 4.836914-1.21543 3.695898 0 6.67246 2.50528 1.190625.39687 2.406055.39687 3.720703 0 3.844727-3.07578-2.406055-.22324-4.01836-.81855-1.5875-.59532-1.5875-1.38907l1.984375-6.59804q-1.736328-2.72852-2.877343-5.55625-1.141016-2.82774-1.141016-5.35781 0-7.59024 8.235156-11.658203 0-.322461.07441-.967383-.843359-.694531-.843359-1.761133 0-2.282031 2.306836-2.282031 2.282031 0 2.282031 2.282031 0 .992188-.719336 1.661914 0 .768946.198437 1.041797.42168.595313 1.116211.620117.719336-.0248 1.190625-.644922.09922-.148828.198438-.917773-.644922-.669727-.644922-1.661914 0-2.331641 2.331641-2.331641 2.33164 0 2.33164 2.331641 0 1.314648-1.141015 2.033984-.09922.496094-.04961.79375 4.191992 4.960936 3.646289 11.459766-.173633 1.86035-.570508 3.67109-.396875 1.78594-1.389062 3.37344-.37207.84336-1.16582 1.90996-.768946 1.04179-1.339453 1.95957l1.95957 6.59804q-.02481.79375-1.63711 1.38907-1.612304.59531-4.067968.81855.124023 3.07578 3.869531 3.07578 1.21543 0 2.406055-.39687 2.951757-2.50528 6.67246-2.50528 2.530079 0 4.81211 1.21543.297656.14883.520898.24805.223242.0992.446485.17363 1.11621.57051 1.53789 1.26504.07441.22325.223242.57051.148828.34727-.0248.5457-.07441.0992-.868164-.0248-.248047 0-.992188-.22324-.917773-.24805-1.240234-.29766 1.835547 1.86035 1.736328 3.00137-.04961.57051-.545703.84336-.620117-.0992-1.612305-1.16582-.496094-.4961-.892969-.71934-1.389062-.84336-3.100586-.84336-2.38125 0-3.869531 1.31465-1.711523.86816-3.100586 1.11621-1.389062.22324-2.083593.24805-.297657.0248-.620118.0744-.32246.0248-.620117.0248-3.199804 0-4.985742-2.6541z"/><path d="m68.054233 132.56621q.07441 0 1.63711 1.51309 1.438671 1.36426 3.522265 1.36426.173633 0 .496094 0t.520898 0q1.066602-.0744 2.033985-.24805.967382-.19844 2.306836-.74414 2.579687-1.78594 4.762499-1.78594.942579 0 1.736329.22324.32246.0744.37207.17364.07441.0744.570508.29765 1.53789.79375.768945.17364-.744141-.64493-.570508-.94258.148828-.32246 1.141016-.69453 1.016992-.37207-1.438672-.59532-1.240234-.42168-2.579688-.42168-2.976562 0-6.077148 2.40606-1.091406.59531-1.860351.66973-.744141.0744-1.413868.0248-1.934765-.0744-2.604492-.5209-.644922-.47129-1.16582-1.04179-.496094-.5209-.967383-2.00918-.248047-.79375-1.190625-.89297-.967383.0992-1.190625.89297-.446484 1.48828-.967383 2.00918-.520898.5705-1.190625 1.04179-.644921.44649-2.554882.5209-.694532.0496-1.463477-.0248-.744141-.0744-1.810742-.66973-3.150195-2.40606-6.077148-2.40606-1.364258 0-2.579688.42168-2.480469.22325-1.488281.59532 1.016992.37207 1.190625.69453.148828.29765-.620117.94258-.744141.62011.818554-.17364.446485-.22324.520899-.29765.07441-.0992.396875-.17364.768945-.22324 1.761133-.22324 2.158007 0 4.737695 1.78594 1.339453.5457 2.282031.74414.967383.17363 2.083594.24805.173633 0 .471289 0 .322461 0 .545703 0 2.058789 0 3.522266-1.36426 1.53789-1.51309 1.612304-1.51309z"/></g><path d="m68.203061 125.00079q-2.802929 0-4.787304.4961-1.984375.49609-1.984375 1.19062t1.984375 1.19063q1.984375.47129 4.787304.47129 2.80293 0 4.787305-.47129 2.00918-.4961 2.00918-1.19063t-2.00918-1.19062q-1.984375-.4961-4.787305-.4961zm5.60586-30.559371q-1.066602 0-1.066602 1.041797 0 1.066602 1.066602 1.066602 1.066601 0 1.066601-1.066602 0-1.041797-1.066601-1.041797zm-5.953125-.07441q-1.016993 0-1.016993 1.016992t1.016993 1.016992q1.016992 0 1.016992-1.016992t-1.016992-1.016992zm4.043164 14.113865v-1.26504h-3.175v-4.2416h-1.265039v4.2416h-3.175v1.26504h3.175v5.92832h1.265039v-5.92832zm1.066601 1.0666h-3.175v5.92832h-3.398242v-5.92832h-3.175v-3.37343h3.175v-4.24161h3.398242v4.24161h3.175zm-2.480468 13.49375-2.406055-.99218-2.38125.99218 2.38125.99219zm7.242968-13.32011q.272852-1.33946-.843359-4.93614-1.091406-3.62148-3.249414-6.002731-.322461-.198437-.570508-.173632-.37207.04961-.694531.37207-.297657.322461-.07441.768945 2.629297 1.785938 4.018359 5.134568 1.389062 3.34864 1.413867 4.83692zm-15.180468 9.50019q2.38125-.79375 5.531445-.79375 3.274219 0 5.581054.79375 3.026172-6.10195 3.026172-9.57461 0-5.87871-8.508007-11.434958-8.483203 5.556248-8.483203 11.434958 0 3.74551 2.852539 9.57461zm10.64121 2.53008-.446484-1.5627q-2.083594-.49609-4.688086-.49609-2.554883 0-4.489648.44649l-.496094 1.58749q2.058789-.5457 4.985742-.5457 3.075781 0 5.13457.57051zm.892969 2.6541-.545703-1.76113-2.207617.47129 2.182812 1.41386zm-11.85664.0248.446484.0992 2.182813-1.41386-2.108399-.47129zm5.829101 9.94668q-1.835547 2.6541-4.960937 2.6541-.322461 0-.644922-.0248-.297656-.0496-.595313-.0744-.719336-.0248-2.108398-.24805-1.389062-.24805-3.100586-1.11621-1.513086-1.31465-3.844726-1.31465-1.785938 0-3.100586.84336-.372071.17363-.917774.71934-.992187 1.0666-1.612304 1.16582-.496094-.24805-.520899-.84336-.124023-1.16582 1.711524-3.00137-.322461.0496-1.21543.29766-.744141.22324-.992188.22324-.818554.12402-.868164.0248-.272851-.27285.198438-1.11621.396875-.71933 1.53789-1.26504.148829-.0744.942579-.42168 2.306835-1.21543 4.836914-1.21543 3.695898 0 6.67246 2.50528 1.190625.39687 2.406055.39687 3.720703 0 3.844727-3.07578-2.406055-.22324-4.01836-.81855-1.5875-.59532-1.5875-1.38907l1.984375-6.59804q-1.736328-2.72852-2.877343-5.55625-1.141016-2.82774-1.141016-5.35781 0-7.59024 8.235156-11.658207 0-.322461.07441-.967383-.843359-.694531-.843359-1.761133 0-2.282031 2.306836-2.282031 2.282031 0 2.282031 2.282031 0 .992188-.719336 1.661914 0 .768946.198437 1.041797.42168.595313 1.116211.620117.719336-.0248 1.190625-.644922.09922-.148828.198438-.917773-.644922-.669727-.644922-1.661914 0-2.331641 2.331641-2.331641 2.33164 0 2.33164 2.331641 0 1.314648-1.141015 2.033984-.09922.496094-.04961.79375 4.191992 4.96094 3.646289 11.45977-.173633 1.86035-.570508 3.67109-.396875 1.78594-1.389062 3.37344-.37207.84336-1.16582 1.90996-.768946 1.04179-1.339453 1.95957l1.95957 6.59804q-.02481.79375-1.63711 1.38907-1.612304.59531-4.067968.81855.124023 3.07578 3.869531 3.07578 1.21543 0 2.406055-.39687 2.951757-2.50528 6.67246-2.50528 2.530079 0 4.81211 1.21543.297656.14883.520898.24805.223242.0992.446485.17363 1.11621.57051 1.53789 1.26504.07441.22325.223242.57051.148828.34727-.0248.5457-.07441.0992-.868164-.0248-.248047 0-.992188-.22324-.917773-.24805-1.240234-.29766 1.835547 1.86035 1.736328 3.00137-.04961.57051-.545703.84336-.620117-.0992-1.612305-1.16582-.496094-.4961-.892969-.71934-1.389062-.84336-3.100586-.84336-2.38125 0-3.869531 1.31465-1.711523.86816-3.100586 1.11621-1.389062.22324-2.083593.24805-.297657.0248-.620118.0744-.32246.0248-.620117.0248-3.199804 0-4.985742-2.6541zm0-1.81075q.07441 0 1.63711 1.51309 1.438671 1.36426 3.522265 1.36426.173633 0 .496094 0t.520898 0q1.066602-.0744 2.033985-.24805.967382-.19844 2.306836-.74414 2.579687-1.78594 4.762499-1.78594.942579 0 1.736329.22324.32246.0744.37207.17364.07441.0744.570508.29765 1.53789.79375.768945.17364-.744141-.64493-.570508-.94258.148828-.32246 1.141016-.69453 1.016992-.37207-1.438672-.59532-1.240234-.42168-2.579688-.42168-2.976562 0-6.077148 2.40606-1.091406.59531-1.860351.66973-.744141.0744-1.413868.0248-1.934765-.0744-2.604492-.5209-.644922-.47129-1.16582-1.04179-.496094-.5209-.967383-2.00918-.248047-.79375-1.190625-.89297-.967383.0992-1.190625.89297-.446484 1.48828-.967383 2.00918-.520898.5705-1.190625 1.04179-.644921.44649-2.554882.5209-.694532.0496-1.463477-.0248-.744141-.0744-1.810742-.66973-3.150195-2.40606-6.077148-2.40606-1.364258 0-2.579688.42168-2.480469.22325-1.488281.59532 1.016992.37207 1.190625.69453.148828.29765-.620117.94258-.744141.62011.818554-.17364.446485-.22324.520899-.29765.07441-.0992.396875-.17364.768945-.22324 1.761133-.22324 2.158007 0 4.737695 1.78594 1.339453.5457 2.282031.74414.967383.17363 2.083594.24805.173633 0 .471289 0 .322461 0 .545703 0 2.058789 0 3.522266-1.36426 1.53789-1.51309 1.612304-1.51309z" stroke-width=".264583"/></g></svg>