<svg height="50.775211mm" viewBox="0 0 50.799999 50.775211" width="50.799999mm" xmlns="http://www.w3.org/2000/svg"><g transform="translate(-66.817379 -94.950239)"><g fill="#fff"><path d="m84.553131 130.99151-2.406055-.79375-1.860351 1.48828 2.356445.79375z"/><path d="m106.00919 131.06591q.17363.5209.17363.99219 0 1.46348-1.0666 2.25723-.0992.42168-.14883.84336.91777 1.28984.91777 2.08359 0 2.0836-4.01836 3.57188-4.018357 1.48828-9.649021 1.48828-5.655469 0-9.673828-1.48828-3.993554-1.48828-3.993554-3.57188 0-.81855.967382-2.1332-.04961-.27285-.148828-.76895-1.091406-.79375-1.091406-2.28203 0-.47129.148828-.96738.248047-.62012-.09922-.96738-.347265-.34727-.79375-.96739-.396875-1.24023-.396875-1.71152.02481-.22324.07441-.49609.07442-.27286.07442-.64493-1.091407-1.0914-2.282032-2.05878-1.16582-.99219-1.835547-2.38125-.79375-1.63711-1.463476-3.29903-.644922-1.68672-.644922-3.29902 0-3.05098 1.612305-5.15938 1.612304-2.10839 4.365625-3.29902 3.671093-.24805 3.100586-.24805 4.316015 0 7.838281 3.19981v-8.70645h8.458398v8.73125q3.522266-3.22461 7.887894-3.22461-.62012 0 3.10058.24805 2.70371 1.19063 4.31602 3.29902 1.63711 2.1084 1.63711 5.15938 0 1.6123-.66973 3.27422-.64492 1.66191-1.41387 3.29902-.66972 1.41387-1.86035 2.45566-1.19062 1.0418-2.25722 2.0836-.0248.29765.0248.57051.0744.27285.0992.49609.0248.34727-.39688 1.71152-.44648.62012-.79375.96739-.32246.34726-.0992.94257z"/><path d="m92.217779 109.56026q-2.554883 0-2.554883 2.55488 0 2.55489 2.554883 2.55489t2.554883-2.55489q0-2.55488-2.554883-2.55488z"/><path d="m91.225592 105.07061-1.761133-1.71152v3.79512l1.761133-1.41387q-.07441-.0992-.07441-.32246 0-.14883.07441-.34727z"/><path d="m91.796099 106.38526-1.488281 1.61231h3.819922l-1.5875-1.5875q-.248047.0496-.322461.0496-.248047 0-.42168-.0744z"/><path d="m93.209967 105.81475 1.761132 1.33946v-3.79512l-1.785937 1.63711q.07441.19844.07441.42168 0 .14883-.04961.39687z"/><path d="m92.515435 104.40089 1.612305-1.90997h-3.819922l1.513086 1.93477q.148828-.0744.396875-.0744.09922 0 .297656.0496z"/><path d="m95.219146 130.22256-3.050976-1.46347-2.926953 1.46347 3.026172 1.46348z"/><path d="m90.258209 123.47569q-.02481-3.05098-.520899-6.12676-.496093-3.10058-.992187-3.77031-3.075781-3.39824-6.945312-3.39824-3.323829 0-5.060157 2.23242-1.141015 1.46348-1.141015 3.84473 0 4.96093 3.695898 9.27695.42168-.19844.818555-.34727.42168-.14882.843359-.29765-.223242-.4961-.446484-.94258-.223242-.44649-.471289-1.16582-.471289-1.38906-.372071-2.6293.173633-.76894.84336-.76894.297656 0 .79375.5209-.124024-.66973-.124024-.84336 0-2.30684 1.959571-2.85254 2.058789.0992 2.728515 3.07578.223242-.74414.620117-.84336.396875-.0992.520899-.0992.297656 0 .520898.14883.84336 1.04179 1.041797 3.02617.04961.44648.04961.86816.0248.42168.09922 1.19063.768946-.14883 1.537891-.0992z"/><path d="m82.841607 124.31905q-.223242-.57051-.471289-1.26504-.223242-.69453-.595312-1.48828-.198438-.39688-.496094-.39688-.42168 0-.446484.69454-.04961.59531 1.215429 2.72851.198438-.0744.396875-.12402.223243-.0744.396875-.14883z"/><path d="m85.322076 123.94698q-.09922-3.24941-.967383-5.25859-.297656-.5209-.868164-.5209-.719336 0-.719336.71933-.0248.0248-.0248.64492 0 1.06661 1.215429 4.66329 1.041797-.19844 1.364258-.24805z"/><path d="m87.653717 123.69893q.124023-1.90996-.198438-3.22461-.09922-.42168-.471289-.5209-.520898-.0744-.694531.57051-.198438 1.0666.347266 3.29903.496093-.12403 1.016992-.12403z"/><path d="m103.28067 136.00206q-.19844-1.78594-4.960938-2.72852-1.488281-.29765-3.001367-.34726-1.513086-.0496-3.100586-.12403-1.562695.14883-2.951758.22324-1.364257.0744-2.480468.29766-5.481836 1.11621-5.60586 2.67891-.198437.29765-.198437.62011 0 1.11622 1.785937 2.23243 0-1.14102.396875-1.71153.223243-.27285.446485-.5457.248047-.29766.496093-.59531 2.232422-1.33946 8.160743-1.19063 5.804296-.14883 8.086331 1.19063.5457.69453.94257 1.14101.39688.62012.39688 1.71153 1.78594-1.11621 1.78594-2.23243 0-.32246-.19844-.62011z"/><path d="m100.40333 138.30889q0-2.23242-8.23516-2.23242-8.111133 0-8.111133 2.23242.520899 2.20762 8.210352 2.20762 7.565429 0 8.135941-2.20762z"/><path d="m100.10567 130.99151 1.88516 1.48828 2.38125-.79375-1.88516-1.48828z"/><path d="m105.11622 125.50967q3.54707-4.39043 3.54707-9.25214 0-2.38125-1.14102-3.84473-1.76113-2.23242-5.06016-2.23242-3.894331 0-6.945307 3.39824-.520899.66973-1.016993 3.77031-.496093 3.07578-.520898 6.12676.892969-.0744 1.5875.0992.02481-.76895.02481-1.19063.0248-.42168.09922-.86816.173633-1.98438 1.041797-3.02617.198438-.14883.520899-.14883.124023 0 .520898.0992t.620117.84336q.644922-2.97656 2.728517-3.07578 1.95957.5457 1.95957 2.85254 0 .17363-.12402.84336.47129-.5209.79375-.5209.64492 0 .84336.76894.0744 1.24024-.37207 2.6293-.27285.71933-.4961 1.16582-.19843.44648-.42168.89297.44649.17363.89297.34726.47129.14883.91778.32246z"/><path d="m101.42032 124.31905q.14883.0744.34726.14883.22325.0496.44649.12402 1.24023-2.1332 1.21543-2.72851-.0496-.69454-.44649-.69454-.32246 0-.49609.39688-.39688.79375-.64492 1.48828-.22324.69453-.42168 1.26504z"/><path d="m98.939849 123.94698q.297657.0496 1.364261.24805 1.21543-3.59668 1.21543-4.66329 0-.62011-.0248-.64492 0-.71933-.71933-.71933-.59532 0-.868168.5209-.892969 2.00918-.967383 5.25859z"/><path d="m96.608209 123.69893q.520898 0 1.016992.12403.520898-2.23243.347266-3.29903-.198438-.64492-.694532-.57051-.396875.0992-.471289.5209-.347265 1.31465-.198437 3.22461z"/><path d="m104.02481 129.18077q1.11621-.12403 1.11621-1.24024 0-.71933-.64492-1.0914-2.08359-.84336-5.308204-1.36426-3.199804-.5457-6.994922-.5457-7.962304 0-12.352734 1.95957-.545703.42168-.545703 1.04179 0 1.26504 1.265039 1.21543 4.415235-1.66191 11.633398-1.66191 7.317383 0 11.831836 1.68672z"/></g><path d="m84.553131 130.99151-2.406055-.79375-1.860351 1.48828 2.356445.79375zm21.456059.0744q.17363.5209.17363.99219 0 1.46348-1.0666 2.25723-.0992.42168-.14883.84336.91777 1.28984.91777 2.08359 0 2.0836-4.01836 3.57188-4.018357 1.48828-9.649021 1.48828-5.655469 0-9.673828-1.48828-3.993554-1.48828-3.993554-3.57188 0-.81855.967382-2.1332-.04961-.27285-.148828-.76895-1.091406-.79375-1.091406-2.28203 0-.47129.148828-.96738.248047-.62012-.09922-.96738-.347265-.34727-.79375-.96739-.396875-1.24023-.396875-1.71152.02481-.22324.07441-.49609.07442-.27286.07442-.64493-1.091407-1.0914-2.282032-2.05878-1.16582-.99219-1.835547-2.38125-.79375-1.63711-1.463476-3.29903-.644922-1.68672-.644922-3.29902 0-3.05098 1.612305-5.15938 1.612304-2.10839 4.365625-3.29902 3.671093-.24805 3.100586-.24805 4.316015 0 7.838281 3.19981v-8.70645h8.458398v8.73125q3.522266-3.22461 7.887894-3.22461-.62012 0 3.10058.24805 2.70371 1.19063 4.31602 3.29902 1.63711 2.1084 1.63711 5.15938 0 1.6123-.66973 3.27422-.64492 1.66191-1.41387 3.29902-.66972 1.41387-1.86035 2.45566-1.19062 1.0418-2.25722 2.0836-.0248.29765.0248.57051.0744.27285.0992.49609.0248.34727-.39688 1.71152-.44648.62012-.79375.96739-.32246.34726-.0992.94257zm-13.791411-21.50565q-2.554883 0-2.554883 2.55488 0 2.55489 2.554883 2.55489t2.554883-2.55489q0-2.55488-2.554883-2.55488zm-.992187-4.48965-1.761133-1.71152v3.79512l1.761133-1.41387q-.07441-.0992-.07441-.32246 0-.14883.07441-.34727zm.570507 1.31465-1.488281 1.61231h3.819922l-1.5875-1.5875q-.248047.0496-.322461.0496-.248047 0-.42168-.0744zm1.413868-.57051 1.761132 1.33946v-3.79512l-1.785937 1.63711q.07441.19844.07441.42168 0 .14883-.04961.39687zm-.694532-1.41386 1.612305-1.90997h-3.819922l1.513086 1.93477q.148828-.0744.396875-.0744.09922 0 .297656.0496zm2.703711 25.82167-3.050976-1.46347-2.926953 1.46347 3.026172 1.46348zm-4.960937-6.74687q-.02481-3.05098-.520899-6.12676-.496093-3.10058-.992187-3.77031-3.075781-3.39824-6.945312-3.39824-3.323829 0-5.060157 2.23242-1.141015 1.46348-1.141015 3.84473 0 4.96093 3.695898 9.27695.42168-.19844.818555-.34727.42168-.14882.843359-.29765-.223242-.4961-.446484-.94258-.223242-.44649-.471289-1.16582-.471289-1.38906-.372071-2.6293.173633-.76894.84336-.76894.297656 0 .79375.5209-.124024-.66973-.124024-.84336 0-2.30684 1.959571-2.85254 2.058789.0992 2.728515 3.07578.223242-.74414.620117-.84336.396875-.0992.520899-.0992.297656 0 .520898.14883.84336 1.04179 1.041797 3.02617.04961.44648.04961.86816.0248.42168.09922 1.19063.768946-.14883 1.537891-.0992zm-7.416602.84336q-.223242-.57051-.471289-1.26504-.223242-.69453-.595312-1.48828-.198438-.39688-.496094-.39688-.42168 0-.446484.69454-.04961.59531 1.215429 2.72851.198438-.0744.396875-.12402.223243-.0744.396875-.14883zm2.480469-.37207q-.09922-3.24941-.967383-5.25859-.297656-.5209-.868164-.5209-.719336 0-.719336.71933-.0248.0248-.0248.64492 0 1.06661 1.215429 4.66329 1.041797-.19844 1.364258-.24805zm2.331641-.24805q.124023-1.90996-.198438-3.22461-.09922-.42168-.471289-.5209-.520898-.0744-.694531.57051-.198438 1.0666.347266 3.29903.496093-.12403 1.016992-.12403zm15.626953 12.30313q-.19844-1.78594-4.960938-2.72852-1.488281-.29765-3.001367-.34726-1.513086-.0496-3.100586-.12403-1.562695.14883-2.951758.22324-1.364257.0744-2.480468.29766-5.481836 1.11621-5.60586 2.67891-.198437.29765-.198437.62011 0 1.11622 1.785937 2.23243 0-1.14102.396875-1.71153.223243-.27285.446485-.5457.248047-.29766.496093-.59531 2.232422-1.33946 8.160743-1.19063 5.804296-.14883 8.086331 1.19063.5457.69453.94257 1.14101.39688.62012.39688 1.71153 1.78594-1.11621 1.78594-2.23243 0-.32246-.19844-.62011zm-2.87734 2.30683q0-2.23242-8.23516-2.23242-8.111133 0-8.111133 2.23242.520899 2.20762 8.210352 2.20762 7.565429 0 8.135941-2.20762zm-.29766-7.31738 1.88516 1.48828 2.38125-.79375-1.88516-1.48828zm5.01055-5.48184q3.54707-4.39043 3.54707-9.25214 0-2.38125-1.14102-3.84473-1.76113-2.23242-5.06016-2.23242-3.894331 0-6.945307 3.39824-.520899.66973-1.016993 3.77031-.496093 3.07578-.520898 6.12676.892969-.0744 1.5875.0992.02481-.76895.02481-1.19063.0248-.42168.09922-.86816.173633-1.98438 1.041797-3.02617.198438-.14883.520899-.14883.124023 0 .520898.0992t.620117.84336q.644922-2.97656 2.728514-3.07578 1.95957.5457 1.95957 2.85254 0 .17363-.12402.84336.47129-.5209.79375-.5209.64492 0 .84336.76894.0744 1.24024-.37207 2.6293-.27285.71933-.4961 1.16582-.19843.44648-.42168.89297.44649.17363.89297.34726.47129.14883.91778.32246zm-3.6959-1.19062q.14883.0744.34726.14883.22325.0496.44649.12402 1.24023-2.1332 1.21543-2.72851-.0496-.69454-.44649-.69454-.32246 0-.49609.39688-.39688.79375-.64492 1.48828-.22324.69453-.42168 1.26504zm-2.480471-.37207q.297657.0496 1.364261.24805 1.21543-3.59668 1.21543-4.66329 0-.62011-.0248-.64492 0-.71933-.71933-.71933-.59532 0-.868168.5209-.892969 2.00918-.967383 5.25859zm-2.33164-.24805q.520898 0 1.016992.12403.520898-2.23243.347266-3.29903-.198438-.64492-.694532-.57051-.396875.0992-.471289.5209-.347265 1.31465-.198437 3.22461zm7.416601 5.48184q1.11621-.12403 1.11621-1.24024 0-.71933-.64492-1.0914-2.08359-.84336-5.308204-1.36426-3.199804-.5457-6.994922-.5457-7.962304 0-12.352734 1.95957-.545703.42168-.545703 1.04179 0 1.26504 1.265039 1.21543 4.415235-1.66191 11.633398-1.66191 7.317383 0 11.831836 1.68672z" stroke-width=".264583"/></g></svg>