<svg height="50.775192mm" viewBox="0 0 50.800003 50.775192" width="50.800003mm" xmlns="http://www.w3.org/2000/svg"><g transform="translate(-62.933037 -27.187597)"><g fill="#fff"><path d="m88.33259 72.902872h11.459766q-.744141-2.951758-2.852539-5.233789-.818555-.942578-1.537891-1.562695-2.38125-1.934766-3.894336-4.564063-1.5875.595313-3.175.595313-1.637109 0-3.175-.595313-1.612305 2.678906-3.894336 4.564063-.74414.620117-1.53789 1.562695-2.133203 2.282031-2.852539 5.233789z"/><path d="m88.33259 60.475724q2.80293 0 4.787305-1.984375t1.984375-4.81211q0-2.306836-1.438672-4.142382-1.661914-2.133204-2.554883-4.514454-1.488281-.198437-2.778125-.198437-1.364258 0-2.778125.198437-1.016992 2.530079-2.579687 4.514454-1.438672 1.835546-1.438672 4.142382 0 2.827735 1.984375 4.81211t4.812109 1.984375z"/><path d="m88.33259 37.283341q2.530078 0 2.530078-2.530078t-2.530078-2.530078-2.530078 2.530078 2.530078 2.530078z"/><path d="m88.33259 43.137247q1.885156 0 3.348633.471289-.570508-1.041797-1.190625-2.306836-.595313-1.289843-.768945-2.554882-.694532.198437-1.389063.198437-.744141 0-1.413867-.198437-.198438 1.265039-.79375 2.554882-.595313 1.265039-1.141016 2.306836 1.959571-.471289 3.348633-.471289z"/><path d="m88.33259 74.564786h-13.518554q.471289-5.333008 4.539257-9.004102.669727-.620117.744141-.669726 2.108398-1.736328 3.59668-4.142383-3.819922-2.505273-3.819922-7.069336 0-2.827734 1.711523-5.084961.570508-.719336 1.21543-1.637109.669726-.917773 1.066601-1.785937-.595312.148828-1.810742.471289-1.190625.322461-1.761133.545703 1.711524-1.5875 3.249414-3.770313 1.562696-2.182812 1.835547-4.638476-1.265039-1.289844-1.265039-3.026172t1.21543-2.976562q1.240234-1.240235 3.001367-1.240235 1.711524 0 2.951758 1.240235 1.240234 1.240234 1.240234 2.976562 0 1.761133-1.265039 3.026172.272852 2.455664 1.835547 4.638476 1.5875 2.182813 3.299023 3.770313-.570507-.223242-1.810742-.545703-1.215429-.322461-1.810742-.471289.396875.868164 1.041797 1.785937.669727.917773 1.265039 1.637109 1.711523 2.257227 1.711523 5.084961 0 4.564063-3.819921 7.069336 1.413867 2.38125 3.571875 4.142383.37207.297656.74414.669726 4.092778 3.671094 4.539258 9.004102z"/></g><path d="m88.33259 72.902872h11.459766q-.744141-2.951758-2.852539-5.233789-.818555-.942578-1.537891-1.562695-2.38125-1.934766-3.894336-4.564063-1.5875.595313-3.175.595313-1.637109 0-3.175-.595313-1.612305 2.678906-3.894336 4.564063-.74414.620117-1.53789 1.562695-2.133203 2.282031-2.852539 5.233789zm0-12.427148q2.80293 0 4.787305-1.984375t1.984375-4.81211q0-2.306836-1.438672-4.142382-1.661914-2.133204-2.554883-4.514454-1.488281-.198437-2.778125-.198437-1.364258 0-2.778125.198437-1.016992 2.530079-2.579687 4.514454-1.438672 1.835546-1.438672 4.142382 0 2.827735 1.984375 4.81211t4.812109 1.984375zm0-23.192383q2.530078 0 2.530078-2.530078t-2.530078-2.530078-2.530078 2.530078 2.530078 2.530078zm0 5.853906q1.885156 0 3.348633.471289-.570508-1.041797-1.190625-2.306836-.595313-1.289843-.768945-2.554882-.694532.198437-1.389063.198437-.744141 0-1.413867-.198437-.198438 1.265039-.79375 2.554882-.595313 1.265039-1.141016 2.306836 1.959571-.471289 3.348633-.471289zm0 31.427539h-13.518554q.471289-5.333008 4.539257-9.004102.669727-.620117.744141-.669726 2.108398-1.736328 3.59668-4.142383-3.819922-2.505273-3.819922-7.069336 0-2.827734 1.711523-5.084961.570508-.719336 1.21543-1.637109.669726-.917773 1.066601-1.785937-.595312.148828-1.810742.471289-1.190625.322461-1.761133.545703 1.711524-1.5875 3.249414-3.770313 1.562696-2.182812 1.835547-4.638476-1.265039-1.289844-1.265039-3.026172t1.21543-2.976562q1.240234-1.240235 3.001367-1.240235 1.711524 0 2.951758 1.240235 1.240234 1.240234 1.240234 2.976562 0 1.761133-1.265039 3.026172.272852 2.455664 1.835547 4.638476 1.5875 2.182813 3.299023 3.770313-.570507-.223242-1.810742-.545703-1.215429-.322461-1.810742-.471289.396875.868164 1.041797 1.785937.669727.917773 1.265039 1.637109 1.711523 2.257227 1.711523 5.084961 0 4.564063-3.819921 7.069336 1.413867 2.38125 3.571875 4.142383.37207.297656.74414.669726 4.092778 3.671094 4.539258 9.004102z" stroke-width=".264583"/></g></svg>