<svg height="50.775208mm" viewBox="0 0 50.800007 50.775208" width="50.800007mm" xmlns="http://www.w3.org/2000/svg"><g transform="translate(-71.160515 -99.092914)"><g fill="#fff"><path d="m86.365307 126.45254q-.694531-.59531-2.133203-2.35645-2.505273-2.82773-2.802929-2.82773-.248047 0-.248047.34727 0 .44648.79375 1.81074.694531 1.95957 1.141015 3.59668 1.116211-.22324 3.249414-.57051z"/><path d="m92.219214 125.95645q-.644922-.54571-1.240235-1.81075-.719336-1.46347-1.736328-4.53925-.396875-1.21543-.744141-2.05879-.347265-.84336-.496093-.81856-.07441.0248-.07441.39688.0248.37207.0248.59531 0 .66973.620118 3.39824.595312 2.82774.595312 4.04317.02481.74414-.148828 1.0666 1.289844-.17364 3.199805-.27285z"/><path d="m98.594018 125.88205q-.719336-.81855-.942578-2.75332-.09922-.76894-.272852-2.20762-.148828-1.46347-.223242-3.62148-.07441-1.5627-.248047-2.70371-.173632-1.14102-.347265-1.19063-.198438.0496-.347266 1.19063-.124023 1.14101-.198437 2.70371-.124024 2.15801-.297657 3.62148-.173632 1.43868-.248046 2.20762-.223243 2.0836-.942579 2.75332.496094 0 .992188-.0744.520898-.0992 1.041797-.0992.520898 0 1.016992.0992.520898.0744 1.016992.0744z"/><path d="m104.12546 126.20451q-.17363-.37207-.17363-1.04179 0-1.26504.62012-4.04317.59531-2.77812.59531-3.39824 0-.79375-.0248-.81856-.34727-.0744-1.26504 2.70372-.94258 2.87734-1.73633 4.53925-.57051 1.19063-1.21543 1.83555 1.16582.0496 3.1998.22324z"/><path d="m110.07859 127.02307q.22324-.91778.49609-1.81074.29766-.91778.59531-1.81075.79375-1.46347.79375-1.78593 0-.34727-.24804-.34727-.39688 0-2.80293 2.80293-.74414.86816-1.26504 1.48828-.5209.59531-.86817.94258 1.68672.22324 3.29903.5209z"/><path d="m77.683667 114.29824q-1.661914 0-1.661914 1.66192 0 1.68672 1.661914 1.68672 1.686719 0 1.686719-1.68672 0-1.66192-1.686719-1.66192z"/><path d="m97.775463 108.19629q.372071 4.01836.744141 8.03672.396875 3.99355.79375 7.98711.02481.57051.570508.57051.396878-.0248.545698-.34727 2.15801-5.20898 3.175-8.06152 1.0418-2.87735 1.26504-3.54707-1.14101-1.09141-1.14101-2.45567 0-1.19062.84336-2.03398.86816-.86817 2.08359-.86817 1.19063 0 2.03399.86817.86816.84336.86816 2.03398 0 2.15801-2.23242 2.92696l-1.81074 10.81484q-.12403.74414.52089.74414.5209 0 .79375-.27285 2.97657-2.97656 4.26641-4.61367 1.31465-1.63711 1.83555-2.28204-.54571-.71933-.54571-1.73632 0-2.90215 2.90215-2.90215 1.19063 0 2.03399.86816.86816.84336.86816 2.03399 0 1.21543-.86816 2.05879-.84336.84336-2.03399.84336-.37207 0-.66972-.0744-1.98438 4.29121-3.175 8.78086-1.017 3.64629-1.26504 6.92051.14883.69453.17363.71933-.0744-.29765.0992.57051.0992.39688.0992.76895-.14883.39687-.62012.89297-.42168.47128-.62012 1.86035.91778 1.28984.91778 2.08359 0 2.08359-4.01836 3.57188-4.01836 1.48828-9.649026 1.48828-5.655469 0-9.673828-1.48828-3.993555-1.48829-3.993555-3.57188 0-.81855.967383-2.1332-.297656-1.41387-.644922-1.81074-.496094-.4961-.644922-.89297 0-.32246.07441-.74414.04961-.19844.07441-.34727.02481-.17363.04961-.24805.09922-.27285.198437-.76894-.248047-3.12539-1.215429-6.8709-1.289844-4.71289-3.199805-8.83047-.42168.12403-.868164.12403-2.902148 0-2.902148-2.90215t2.902148-2.90215 2.902148 2.90215q0 .89297-.446484 1.6123 1.463476 1.86035 2.926953 3.47266 1.488281 1.5875 3.274219 3.49746.223242.32246.644922.32246.719335 0 .644921-.74414-.04961-.22324-.620117-3.54707-.570508-3.32383-1.240234-7.24297-2.356445-.64492-2.356445-2.95176 0-1.19062.843359-2.03398.868164-.86817 2.058789-.86817 2.902148 0 2.902148 2.90215 0 1.28985-.992187 2.35645.124023.5209.620117 2.08359.496094 1.53789 1.537891 4.06797.570508 1.38906 1.141015 2.80293.595313 1.38906 1.190625 2.75332.148828.32246.520899.32246.520898-.0248.595312-.5457.04961-.29766 1.513086-15.99903-1.761133-.94257-1.761133-2.80293 0-1.19062.84336-2.05878.843359-.86817 2.058789-.86817 1.190625 0 2.033984.86817.868164.86816.868164 2.05878 0 1.68672-1.612305 2.77813z"/><path d="m91.078198 133.84434q-1.314648 0-1.314648 1.38906t1.314648 1.38906q1.339453 0 1.339453-1.38906t-1.339453-1.38906z"/><path d="m83.512768 128.8834q.297657 1.21543.520899 2.20762.248047.96738.421679 2.10839.198438.0992.446485.0992 4.415234-1.66191 11.633398-1.66191 7.317381 0 11.831831 1.68672.24805-.0496.37208-.12403.14882-1.11621.39687-2.03398.24805-.94258.5457-2.18281-2.82773-.79375-6.17636-1.31465-3.34864-.5457-6.945316-.5457-3.59668 0-6.870899.52089-3.274218.5209-6.176367 1.24024z"/><path d="m108.41667 136.39922-1.78593-1.71152-2.28203.91777 1.81074 1.71152z"/><path d="m99.710229 134.63809-3.199805-1.66192-3.075781 1.66192 3.199805 1.68671z"/><path d="m88.994604 135.63027-2.505273-.84336-1.984375 1.5627 2.480469.84336z"/><path d="m115.28757 114.29824q-1.68672 0-1.68672 1.66192 0 1.68672 1.68672 1.68672 1.66192 0 1.66192-1.68672 0-1.66192-1.66192-1.66192z"/><path d="m86.315698 108.69238q-1.661914 0-1.661914 1.68672 0 1.66192 1.661914 1.66192 1.686719 0 1.686719-1.66192 0-1.68672-1.686719-1.68672z"/><path d="m96.48562 103.73145q-1.661914 0-1.661914 1.68671 0 1.66192 1.661914 1.66192t1.661914-1.66192q0-1.68671-1.661914-1.68671z"/><path d="m106.65554 108.69238q-1.68672 0-1.68672 1.68672 0 1.66192 1.68672 1.66192 1.66192 0 1.66192-1.66192 0-1.68672-1.66192-1.68672z"/><path d="m102.01706 133.84434q-1.31464 0-1.31464 1.38906t1.31464 1.38906q1.33946 0 1.33946-1.38906t-1.33946-1.38906z"/><path d="m96.560034 138.28438q-4.712891 0-8.011914.71933-3.274219.71934-3.274219 2.05879 0 1.38906 3.274219 2.23242 3.299023.84336 8.011914.84336 4.688086 0 8.061526-.84336 3.39824-.84336 3.39824-2.23242 0-1.33945-3.39824-2.05879-3.37344-.71933-8.061526-.71933z"/></g><path d="m86.365307 126.45254q-.694531-.59531-2.133203-2.35645-2.505273-2.82773-2.802929-2.82773-.248047 0-.248047.34727 0 .44648.79375 1.81074.694531 1.95957 1.141015 3.59668 1.116211-.22324 3.249414-.57051zm5.853907-.49609q-.644922-.54571-1.240235-1.81075-.719336-1.46347-1.736328-4.53925-.396875-1.21543-.744141-2.05879-.347265-.84336-.496093-.81856-.07441.0248-.07441.39688.0248.37207.0248.59531 0 .66973.620118 3.39824.595312 2.82774.595312 4.04317.02481.74414-.148828 1.0666 1.289844-.17364 3.199805-.27285zm6.374804-.0744q-.719336-.81855-.942578-2.75332-.09922-.76894-.272852-2.20762-.148828-1.46347-.223242-3.62148-.07441-1.5627-.248047-2.70371-.173632-1.14102-.347265-1.19063-.198438.0496-.347266 1.19063-.124023 1.14101-.198437 2.70371-.124024 2.15801-.297657 3.62148-.173632 1.43868-.248046 2.20762-.223243 2.0836-.942579 2.75332.496094 0 .992188-.0744.520898-.0992 1.041797-.0992.520898 0 1.016992.0992.520898.0744 1.016992.0744zm5.531442.32246q-.17363-.37207-.17363-1.04179 0-1.26504.62012-4.04317.59531-2.77812.59531-3.39824 0-.79375-.0248-.81856-.34727-.0744-1.26504 2.70372-.94258 2.87734-1.73633 4.53925-.57051 1.19063-1.21543 1.83555 1.16582.0496 3.1998.22324zm5.95313.81856q.22324-.91778.49609-1.81074.29766-.91778.59531-1.81075.79375-1.46347.79375-1.78593 0-.34727-.24804-.34727-.39688 0-2.80293 2.80293-.74414.86816-1.26504 1.48828-.5209.59531-.86817.94258 1.68672.22324 3.29903.5209zm-32.394923-12.72483q-1.661914 0-1.661914 1.66192 0 1.68672 1.661914 1.68672 1.686719 0 1.686719-1.68672 0-1.66192-1.686719-1.66192zm20.091796-6.10195q.372071 4.01836.744141 8.03672.396875 3.99355.79375 7.98711.02481.57051.570508.57051.396878-.0248.545698-.34727 2.15801-5.20898 3.175-8.06152 1.0418-2.87735 1.26504-3.54707-1.14101-1.09141-1.14101-2.45567 0-1.19062.84336-2.03398.86816-.86817 2.08359-.86817 1.19063 0 2.03399.86817.86816.84336.86816 2.03398 0 2.15801-2.23242 2.92696l-1.81074 10.81484q-.12403.74414.52089.74414.5209 0 .79375-.27285 2.97657-2.97656 4.26641-4.61367 1.31465-1.63711 1.83555-2.28204-.54571-.71933-.54571-1.73632 0-2.90215 2.90215-2.90215 1.19063 0 2.03399.86816.86816.84336.86816 2.03399 0 1.21543-.86816 2.05879-.84336.84336-2.03399.84336-.37207 0-.66972-.0744-1.98438 4.29121-3.175 8.78086-1.017 3.64629-1.26504 6.92051.14883.69453.17363.71933-.0744-.29765.0992.57051.0992.39688.0992.76895-.14883.39687-.62012.89297-.42168.47128-.62012 1.86035.91778 1.28984.91778 2.08359 0 2.08359-4.01836 3.57188-4.01836 1.48828-9.649026 1.48828-5.655469 0-9.673828-1.48828-3.993555-1.48829-3.993555-3.57188 0-.81855.967383-2.1332-.297656-1.41387-.644922-1.81074-.496094-.4961-.644922-.89297 0-.32246.07441-.74414.04961-.19844.07441-.34727.02481-.17363.04961-.24805.09922-.27285.198437-.76894-.248047-3.12539-1.215429-6.8709-1.289844-4.71289-3.199805-8.83047-.42168.12403-.868164.12403-2.902148 0-2.902148-2.90215t2.902148-2.90215 2.902148 2.90215q0 .89297-.446484 1.6123 1.463476 1.86035 2.926953 3.47266 1.488281 1.5875 3.274219 3.49746.223242.32246.644922.32246.719335 0 .644921-.74414-.04961-.22324-.620117-3.54707-.570508-3.32383-1.240234-7.24297-2.356445-.64492-2.356445-2.95176 0-1.19062.843359-2.03398.868164-.86817 2.058789-.86817 2.902148 0 2.902148 2.90215 0 1.28985-.992187 2.35645.124023.5209.620117 2.08359.496094 1.53789 1.537891 4.06797.570508 1.38906 1.141015 2.80293.595313 1.38906 1.190625 2.75332.148828.32246.520899.32246.520898-.0248.595312-.5457.04961-.29766 1.513086-15.99903-1.761133-.94257-1.761133-2.80293 0-1.19062.84336-2.05878.843359-.86817 2.058789-.86817 1.190625 0 2.033984.86817.868164.86816.868164 2.05878 0 1.68672-1.612305 2.77813zm-6.697265 25.64805q-1.314648 0-1.314648 1.38906t1.314648 1.38906q1.339453 0 1.339453-1.38906t-1.339453-1.38906zm-7.56543-4.96094q.297657 1.21543.520899 2.20762.248047.96738.421679 2.10839.198438.0992.446485.0992 4.415234-1.66191 11.633398-1.66191 7.317381 0 11.831831 1.68672.24805-.0496.37208-.12403.14882-1.11621.39687-2.03398.24805-.94258.5457-2.18281-2.82773-.79375-6.17636-1.31465-3.34864-.5457-6.945316-.5457-3.59668 0-6.870899.52089-3.274218.5209-6.176367 1.24024zm24.903902 7.51582-1.78593-1.71152-2.28203.91777 1.81074 1.71152zm-8.706441-1.76113-3.199805-1.66192-3.075781 1.66192 3.199805 1.68671zm-10.715625.99218-2.505273-.84336-1.984375 1.5627 2.480469.84336zm26.292966-21.33203q-1.68672 0-1.68672 1.66192 0 1.68672 1.68672 1.68672 1.66192 0 1.66192-1.68672 0-1.66192-1.66192-1.66192zm-28.971872-5.60586q-1.661914 0-1.661914 1.68672 0 1.66192 1.661914 1.66192 1.686719 0 1.686719-1.66192 0-1.68672-1.686719-1.68672zm10.169922-4.96093q-1.661914 0-1.661914 1.68671 0 1.66192 1.661914 1.66192t1.661914-1.66192q0-1.68671-1.661914-1.68671zm10.16992 4.96093q-1.68672 0-1.68672 1.68672 0 1.66192 1.68672 1.66192 1.66192 0 1.66192-1.66192 0-1.68672-1.66192-1.68672zm-4.63848 25.15196q-1.31464 0-1.31464 1.38906t1.31464 1.38906q1.33946 0 1.33946-1.38906t-1.33946-1.38906zm-5.457026 4.44004q-4.712891 0-8.011914.71933-3.274219.71934-3.274219 2.05879 0 1.38906 3.274219 2.23242 3.299023.84336 8.011914.84336 4.688086 0 8.061526-.84336 3.39824-.84336 3.39824-2.23242 0-1.33945-3.39824-2.05879-3.37344-.71933-8.061526-.71933z" stroke-width=".264583"/></g></svg>