<svg clip-rule="evenodd" fill-rule="evenodd" height="50mm" image-rendering="optimizeQuality" shape-rendering="geometricPrecision" text-rendering="geometricPrecision" viewBox="0 0 50 50" width="50mm" xmlns="http://www.w3.org/2000/svg" xmlns:xlink="http://www.w3.org/1999/xlink"><linearGradient id="a" gradientUnits="userSpaceOnUse" x1="382.42917" x2="388.71917" xlink:href="#b" y1="-386.04" y2="-386.21"/><linearGradient id="b"><stop offset="0" stop-color="#fff"/><stop offset="1" stop-color="#fff" stop-opacity="0"/></linearGradient><linearGradient id="c" gradientUnits="userSpaceOnUse" x1="391.1" x2="393.27" xlink:href="#b" y1="-401.61" y2="-401.61"/><linearGradient id="d" gradientUnits="userSpaceOnUse" x1="393.32" x2="401.31" xlink:href="#b" y1="-388.47" y2="-387.49"/><linearGradient id="e" gradientUnits="userSpaceOnUse" x1="490.24" x2="511.24" xlink:href="#b" y1="-382.24" y2="-382.24"/><linearGradient id="f" gradientUnits="userSpaceOnUse" x1="491.59" x2="499.17" xlink:href="#b" y1="-377.43" y2="-377.43"/><g transform="translate(-368.06 412.37)"><path d="m393.07-404.07a2.6592 2.5032 0 0 0 -2.659 2.5036 2.6592 2.5032 0 0 0 1.0632 2.0018c-16.923 14.771-5.84 26.84-5.84 26.84h14.872s7.7796-8.4764.34227-19.915l-5.5468 7.7418-2.9943-2.1441 6.2149-8.6739c-1.0858-1.2578-2.3596-2.543-3.8566-3.8496a2.6592 2.5032 0 0 0 1.0637-2.0018 2.6592 2.5032 0 0 0 -2.6589-2.5036z" fill="#514b46" stroke="#000" stroke-linejoin="round" stroke-width="1.2"/><path d="m386.47-373.35s-10.266-12.757 6.6183-26.134c-4.0836 5.0625-10.216 13.857-1.5129 26.129z" fill="url(#a)" opacity=".5"/><ellipse cx="392.19" cy="-401.61" fill="url(#c)" opacity=".5" rx="1.0826" ry="1.1989"/><path d="m395.53-384.07c.0936 0 5.2619-7.4134 5.2619-7.4134s.35715.38004.52085.84774l-5.0203 7.1439z" fill="url(#d)" opacity=".5"/><path d="m402.5-388.01c2.8459 8.9433-2.293 14.667-2.293 14.667h-3.391c2.2628-.0808 6.966-8.42 5.6839-14.667z" fill-opacity=".90196" opacity=".2" stroke="#000" stroke-width=".26458"/><g transform="translate(-107.69 9.7816)"><path d="m490.96-383.12-1.2692.78752v3.1293l1.2692.78795h19.564l1.2692-.78795v-3.1293l-1.2692-.78752h-9.782z" fill="#514b46" stroke="#000" stroke-linejoin="round" stroke-width="1.1999"/><path d="m511.24-381.97-20.994.009.88442-.54198 19.247-.015z" fill="url(#e)" opacity=".5"/><path d="m511.24-381.97-.008 2.4035-.86604.52378-8.4393-.0102s2.9487-.62841 1.9391-2.8938c-.001-.004 5.2771-.0199 7.3742-.0233z" opacity=".2"/><g clip-rule="evenodd" fill-rule="evenodd" image-rendering="optimizeQuality" shape-rendering="geometricPrecision"><path d="m490.96-378.42v1.9595h19.564v-1.9595z" fill="#514b46" stroke="#000" stroke-linecap="round" stroke-linejoin="round" stroke-width="1.2"/><path d="m491.59-377.79h7.5756v.70898h-7.5756z" fill="url(#f)" opacity=".5" stroke-width=".7"/></g></g></g></svg>