<svg clip-rule="evenodd" fill-rule="evenodd" height="50mm" image-rendering="optimizeQuality" shape-rendering="geometricPrecision" text-rendering="geometricPrecision" viewBox="0 0 50 50" width="50mm" xmlns="http://www.w3.org/2000/svg" xmlns:xlink="http://www.w3.org/1999/xlink"><linearGradient id="a" gradientTransform="matrix(1.0258 0 0 1.0253 -14.96 3.762)" gradientUnits="userSpaceOnUse" x1="284.57" x2="288.14" xlink:href="#b" y1="-399.25" y2="-399.25"/><linearGradient id="b"><stop offset="0" stop-color="#fff"/><stop offset="1" stop-color="#fff" stop-opacity="0"/></linearGradient><linearGradient id="c" gradientTransform="matrix(1.0258 0 0 1.0253 -14.96 3.762)" gradientUnits="userSpaceOnUse" x1="293.02" x2="296.47" xlink:href="#b" y1="-400.76" y2="-400.76"/><linearGradient id="d" gradientTransform="matrix(1.0258 0 0 1.0253 -14.96 3.762)" gradientUnits="userSpaceOnUse" x1="301.35" x2="304.9" xlink:href="#b" y1="-400.73" y2="-400.73"/><linearGradient id="e" gradientTransform="matrix(1.0258 0 0 1.0253 -14.43 3.762)" gradientUnits="userSpaceOnUse" x1="285.93" x2="292.3" xlink:href="#b" y1="-383.26" y2="-383.26"/><linearGradient id="f" gradientUnits="userSpaceOnUse" x1="490.24" x2="511.24" xlink:href="#b" y1="-382.24" y2="-382.24"/><linearGradient id="g" gradientUnits="userSpaceOnUse" x1="491.59" x2="499.17" xlink:href="#b" y1="-377.43" y2="-377.43"/><g stroke-width="1.0125" transform="matrix(.98758 0 0 .98775 -258.811 413.6303)"><g style="clip-rule:evenodd;fill:#514b46;fill-rule:evenodd;shape-rendering:geometricPrecision;stroke:#000;stroke-width:1.215;image-rendering:optimizeQuality"><path d="m276.32-409.42v7.6807l4.1545 3.1436-2.8266 19.346h19.46l-2.8266-19.346 4.1545-3.1436v-7.6807h-4.9103v3.372h-3.7483v-3.372h-4.7979v3.372h-3.7483v-3.372z" stroke-linejoin="round" stroke-width="1.2149"/><g fill-opacity=".90196"><path d="m280.48-398.59h13.807"/><path d="m298.44-401.74h-22.116"/></g></g><path d="m276.95-402.38v-6.4396h3.6577v.4901h-3.0613v4.8349z" fill="url(#a)" opacity=".5"/><path d="m285.62-405.47v-3.3513h3.5384v.52985h-2.995v2.3048z" fill="url(#c)" opacity=".5"/><path d="m294.16-405.44v-3.3513h3.6444v.43714h-3.2071v2.3048z" fill="url(#d)" opacity=".5"/><path d="m281.56-397.43-2.6844 17.52h6.5089s1.1265-16.751-3.8244-17.52z" fill="url(#e)" opacity=".5"/><path d="m296.4-379.9-2.6563-18.588h-11.866s12.395.52916 14.522 18.588z" fill-opacity=".90196" opacity=".2"/></g><g transform="translate(-475.74 422.151)"><path d="m490.96-383.12-1.2692.78752v3.1293l1.2692.78795h19.564l1.2692-.78795v-3.1293l-1.2692-.78752h-9.782z" fill="#514b46" stroke="#000" stroke-linejoin="round" stroke-width="1.1999"/><path d="m511.24-381.97-20.994.009.88442-.54198 19.247-.015z" fill="url(#f)" opacity=".4"/><path d="m511.24-381.97-.008 2.4035-.86604.52378-8.4393-.0102s2.9487-.62841 1.9391-2.8938c-.001-.004 5.2771-.0199 7.3742-.0233z" opacity=".2"/><g clip-rule="evenodd" fill-rule="evenodd" image-rendering="optimizeQuality" shape-rendering="geometricPrecision"><path d="m490.96-378.42v1.9595h19.564v-1.9595z" fill="#514b46" stroke="#000" stroke-linecap="round" stroke-linejoin="round" stroke-width="1.2"/><path d="m491.59-377.79h7.5756v.70898h-7.5756z" fill="url(#g)" opacity=".4" stroke-width=".7"/></g></g></svg>