<svg clip-rule="evenodd" fill-rule="evenodd" height="50mm" image-rendering="optimizeQuality" shape-rendering="geometricPrecision" text-rendering="geometricPrecision" viewBox="0 0 50 50" width="50mm" xmlns="http://www.w3.org/2000/svg" xmlns:xlink="http://www.w3.org/1999/xlink"><linearGradient id="a" gradientTransform="matrix(1.013 0 0 1.0128 -6.496 54.052)" gradientUnits="userSpaceOnUse" x1="284.57" x2="288.14" xlink:href="#b" y1="-399.25" y2="-399.25"/><linearGradient id="b"><stop offset="0" stop-color="#fff"/><stop offset="1" stop-color="#fff" stop-opacity="0"/></linearGradient><linearGradient id="c" gradientTransform="matrix(1.013 0 0 1.0128 -6.496 54.052)" gradientUnits="userSpaceOnUse" x1="293.02" x2="296.47" xlink:href="#b" y1="-400.76" y2="-400.76"/><linearGradient id="d" gradientTransform="matrix(1.013 0 0 1.0128 -6.496 54.052)" gradientUnits="userSpaceOnUse" x1="301.35" x2="304.9" xlink:href="#b" y1="-400.73" y2="-400.73"/><linearGradient id="e" gradientTransform="matrix(1.013 0 0 1.0128 -5.9734 54.052)" gradientUnits="userSpaceOnUse" x1="285.93" x2="292.3" xlink:href="#b" y1="-383.26" y2="-383.26"/><linearGradient id="f" gradientUnits="userSpaceOnUse" x1="490.24" x2="511.24" xlink:href="#b" y1="-382.24" y2="-382.24"/><linearGradient id="g" gradientUnits="userSpaceOnUse" x1="491.59" x2="499.17" xlink:href="#b" y1="-377.43" y2="-377.43"/><g transform="translate(-267.09 363.29)"><g style="clip-rule:evenodd;fill-rule:evenodd;shape-rendering:geometricPrecision;stroke:#1a1a1a;stroke-width:1.2;image-rendering:optimizeQuality"><path d="m281.17-354.06v7.5865l4.1028 3.1051-2.7915 19.108h19.218l-2.7915-19.108 4.1028-3.1051v-7.5865h-4.8492v3.3306h-3.7017v-3.3306h-4.7382v3.3306h-3.7017v-3.3306z" fill="#e7cd97" stroke-linejoin="round" stroke-width="1.1999"/><g fill="#514b46" fill-opacity=".90196"><path d="m285.27-343.37h13.635"/><path d="m303.01-346.48h-21.841"/></g></g><path d="m281.79-347.11v-6.3606h3.6122v.48409h-3.0232v4.7756z" fill="url(#a)"/><path d="m290.34-350.16v-3.3102h3.4944v.52335h-2.9578v2.2766z" fill="url(#c)"/><path d="m298.79-350.13v-3.3102h3.5991v.43178h-3.1672v2.2766z" fill="url(#d)"/><path d="m286.34-342.22-2.6511 17.305h6.428s1.1125-16.545-3.7769-17.305z" fill="url(#e)"/><path d="m301-324.91-2.6233-18.36h-11.718s12.241.52268 14.342 18.36z" fill-opacity=".90196" opacity=".15"/><g transform="translate(-208.66 58.859)"><path d="m490.96-383.12-1.2692.78752v3.1293l1.2692.78795h19.564l1.2692-.78795v-3.1293l-1.2692-.78752h-9.782z" fill="#e7cd97" stroke="#1a1a1a" stroke-linejoin="round" stroke-width="1.1999"/><path d="m511.24-381.97-20.994.009.88442-.54198 19.247-.015z" fill="url(#f)"/><path d="m511.24-381.97-.008 2.4035-.86604.52378-8.4393-.0102s2.9487-.62841 1.9391-2.8938c-.001-.004 5.2771-.0199 7.3742-.0233z" opacity=".15"/><g clip-rule="evenodd" fill-rule="evenodd" image-rendering="optimizeQuality" shape-rendering="geometricPrecision"><path d="m490.96-378.42v1.9595h19.564v-1.9595z" fill="#e7cd97" stroke="#1a1a1a" stroke-linecap="round" stroke-linejoin="round" stroke-width="1.1999"/><path d="m491.59-377.79h7.5756v.70898h-7.5756z" fill="url(#g)" stroke-width=".7"/></g></g></g></svg>