<svg viewBox="0 0 81 81" xmlns="http://www.w3.org/2000/svg"><path d="m0 0h81v81h-81z" fill="none"/><path d="m19.6 72h47.4l-2-6.1s-.1-17-.1-26.1c0-17.3-8.5-25.3-16-28.4-5.6-2.3-14.6-1.8-14.6-1.8l3.3 6.5-25.6 20.3 2 12.2 13.4 3.5 6.1-5.1c1.2.5 2.5.8 3.7 1.1v.3s-14.3 8.6-17.6 23.6zm11.8-40.7c-.6.3-1.1-.5-.6-1l7.2-6.2 2.2 3.7z" fill="#010101"/><path d="m15.8 38 1.3 7.9 4.7 1.1-.1-4.6-2.9-.5zm15-4.6 15.6-3.8 2.2-3.8s2.8 1.1 2.1 6.3-6.8 8.3-12.1 7.6c-6.9-.9-7.8-6.3-7.8-6.3zm5.2 34.5c5.1-16.4 16.4-13 16.8-22.4-3.3 5.9-10.7 5.6-10.7 5.6s-11.6 5.1-15.8 16.8z" fill="#6d6e6e"/></svg>