<svg clip-rule="evenodd" fill-rule="evenodd" height="50mm" image-rendering="optimizeQuality" shape-rendering="geometricPrecision" text-rendering="geometricPrecision" viewBox="0 0 50 50" width="50mm" xmlns="http://www.w3.org/2000/svg"><g stroke-width="1.0279" transform="matrix(.9729 0 0 .97289 225.56 -72.835)"><path d="m-211.4 82.628c-.85688.39763.91037 2.4838.41563 3.3902-.1003.12143-.20237.23098-.30487.3359-1.0258.01655-4.5986-.8202-4.5228-.03294.54362.94713 2.3664 1.7884 1.8416 3.1748-3.5972 5.2469-8.1354 9.9563-10.62 16.679-.1423 2.1439 2.1694 3.4443 5.5124 4.5689 2.5962-.38663 3.8778-2.8441 6.4384-4.4256 2.0271-1.2652 4.6524-1.1717 7.1776-2.3666-1.0752 7.2979-10.037 8.4291-10.809 15.572h28.456c.75965-18.46-1.7922-30.199-19.308-34.033-.82805-1.4328-2.4329-2.9524-4.2785-2.8628z" style="clip-rule:evenodd;fill:#404040;fill-rule:evenodd;image-rendering:optimizeQuality;shape-rendering:geometricPrecision;stroke:#000;stroke-width:1.1306"/><g fill="#e6e6e6"><path d="m-217.67 106.1c.41921-.42253.69869.42253.41921 1.1266-.97807.56332-2.0598 1.737-2.7946 2.2532-.56555.3974-1.232.67678 2.3754-3.3799z" stroke-width="1.2334"/><path d="m-221.39 103.22c.55886-.42243.83834.28166.55886.98585-.27938.42244-1.2576.98576-1.9562 1.1265-.6987.28165-.97818 0 1.3973-2.1124z" stroke-width="1.2334"/><path d="m-206.78 102.03c1.7305-.88172 4.038-2.2044 2.9997-4.1883-.34522-.53742-1.1773-1.7692-2.0768-2.3146 1.2692 2.976.69233 3.527-1.6151 6.7234"/><path d="m-215.05 96.608c.72947-1.2648 1.7136-2.5233 3.0903-3.151 2.8468-1.1824.62669.88896.0371 1.466.53136.82843.0485 1.944-1.1049 1.6001-.14164-.03666.22979-.61359.13194-.6118-.55819.01031-1.006 1.13-1.6548 1.3408-.40982.28184-.68654-.32414-.49958-.64405z"/><path d="m-191.6 118.95c.72273-13.368-1.4471-26.795-12.887-28.253 10.467 3.3477 10.028 14.007 9.8123 28.253z" stroke-width="1.0791"/></g><path d="m-202.12 99.593c-.68825 1.3938-1.1998 8.7524-3.5823 7.0746-.37002-.38569-.0361-.93791-.009-1.3884.0693-.29896.45-1.2525.30618-1.3184-.20729-.0949-1.832.63004-2.4614.84544-9.2796 3.1767-4.0119 1.366 5.747-5.2132z" opacity=".15"/><path clip-rule="evenodd" d="m-211.4 82.628c-.77356.35897 2.8462 2.7685 2.755 3.7695 16.623 4.0567 16.806 15.02 16.061 33.127h4.7702c.75964-18.46-1.7922-30.199-19.308-34.033-.82805-1.4328-2.4329-2.9524-4.2785-2.8628z" fill-rule="evenodd" image-rendering="optimizeQuality" opacity=".15" shape-rendering="geometricPrecision"/></g></svg>