<svg clip-rule="evenodd" fill-rule="evenodd" height="50mm" image-rendering="optimizeQuality" shape-rendering="geometricPrecision" text-rendering="geometricPrecision" viewBox="0 0 50 50" width="50mm" xmlns="http://www.w3.org/2000/svg"><g stroke-width="1.0311" transform="matrix(.99861 0 0 .94185 -3925.1 1957.9)"><path d="m-243.8 28.9h-11.075c-2.2-5.4 3.175-11.333 7.275-13.033-4.9-2.9-2.7-9.3673 1.5-9.9673-1-.7-1.5-1.7-1.5-2.9 0-1 .4-1.9 1.1-2.6s1.6-1.1 2.7-1.1c1 0 1.9.4 2.7 1.1.7.7 1.1 1.6 1.1 2.6 0 1.2-.5 2.2-1.5 2.9 4.6 1.9 5.8 7.9673 1.5 9.9673 5.6 2.1 9.075 8.3327 7.275 13.033z" fill="#404040" stroke="#141414" stroke-linejoin="round" stroke-width="1.0967" transform="matrix(1.1153 0 0 1.1414 4227.5 -2065.7)"/><path d="m3955.6-2066.5c-.9329 0-1.7362.2651-2.4112.7431 3.3843.6247 6.0778 3.5973 2.3305 6.7903 5.1303 2.1687 6.4685 9.0937 1.673 11.376 6.2455 2.397 8.0044 9.5114 5.997 14.876h4.7625c2.0074-5.3647-1.8677-12.479-8.1132-14.876 4.7956-2.2828 3.4568-9.2078-1.6735-11.376 1.1152-.799 1.6735-1.9407 1.6735-3.3104 0-1.1414-.4461-2.1688-1.2269-2.9678-.8921-.799-1.8965-1.2552-3.0117-1.2552z" opacity=".15"/></g></svg>