<svg clip-rule="evenodd" fill-rule="evenodd" height="50mm" image-rendering="optimizeQuality" shape-rendering="geometricPrecision" text-rendering="geometricPrecision" viewBox="0 0 50 50" width="50mm" xmlns="http://www.w3.org/2000/svg"><g stroke-width="1.0279" transform="matrix(.97316 0 0 .9725 223.38 28.246)"><path d="m-209.1-20.964c-.85664.39442.91011 2.4637.41551 3.3628-.10027.12045-.20231.22911-.30478.33318-1.0255.01641-4.5973-.81357-4.5216-.03263.54346.93947 2.3657 1.7739 1.8411 3.1491-.38008.55007-.77069 1.0942-1.1683 1.6353-3.364 4.5789-7.2274 8.9453-9.4483 14.909-.14226 2.1265 2.1688 3.4164 5.5109 4.532 2.5955-.38351 3.8767-2.8211 6.4366-4.3898 2.0266-1.255 4.6511-1.1622 7.1755-2.3475-1.0749 7.2389-10.034 8.3609-10.805 15.446h28.448c.75944-18.31-1.7917-29.955-19.302-33.758-.82783-1.4212-2.4322-2.9285-4.2773-2.8397z" style="clip-rule:evenodd;fill:#fafafa;fill-rule:evenodd;image-rendering:optimizeQuality;shape-rendering:geometricPrecision;stroke:#3a3a3a;stroke-width:1.1307"/><g fill="#3a3a3a"><path d="m-215.37 2.3182c.41909-.41911.6985.41911.41909 1.1175-.9778.55877-2.0592 1.7229-2.7938 2.235-.5654.39418-1.2317.6713 2.3747-3.3525z" stroke-width="1.2335"/><path d="m-219.1-.54145c.55871-.41902.83811.27938.55871.97788-.2793.41902-1.2572.97778-1.9556 1.1174-.6985.27937-.97791 0 1.3969-2.0953z" stroke-width="1.2335"/><path d="m-204.49-1.7148c1.7301-.87459 4.0369-2.1866 2.9989-4.1544-.34512-.53307-1.177-1.7549-2.0762-2.2959 1.2688 2.9519.69213 3.4984-1.6147 6.669"/><path d="m-212.76-7.0976c.72927-1.2545 1.7132-2.5028 3.0895-3.1256 2.846-1.1729.62652.88177.0371 1.4541.45898.73215-.076 1.774-1.1046 1.5872-.1416-.036365.22972-.60863.1319-.60686-.55803.010222-1.0057 1.1209-1.6544 1.33-.40971.27956-.68635-.32152-.49945-.63884z"/><path d="m-189.32 15.061c.72254-13.26-1.4467-26.578-12.884-28.025 10.464 3.3207 10.026 13.894 9.8095 28.025z" stroke-width="1.0791"/></g><path d="m-199.83-4.1365c-.68806 1.3825-1.1995 8.6816-3.5813 7.0174-.36991-.38257-.036-.93033-.009-1.3772.0693-.29653.44987-1.2423.30609-1.3077-.20723-.094156-1.8315.62494-2.4607.8386-9.277 3.151-4.0108 1.3549 5.7454-5.1711z" opacity=".15"/><path clip-rule="evenodd" d="m-209.1-20.964c-.77334.35606 2.8454 2.7462 2.7542 3.739 16.619 4.0239 16.801 14.898 16.056 32.859h4.7689c.75943-18.31-1.7917-29.955-19.302-33.758-.82783-1.4212-2.4322-2.9285-4.2773-2.8397z" fill-rule="evenodd" image-rendering="optimizeQuality" opacity=".15" shape-rendering="geometricPrecision"/></g></svg>