<svg clip-rule="evenodd" fill-rule="evenodd" height="50mm" image-rendering="optimizeQuality" shape-rendering="geometricPrecision" text-rendering="geometricPrecision" viewBox="0 0 50 50" width="50mm" xmlns="http://www.w3.org/2000/svg"><g stroke-width="1.0509" transform="matrix(.92933 0 0 .97435 120.5 27.685)"><path d="m-108.88-20.599c-2.1566-.000277-3.9054 1.7121-3.9054 3.8245 0 1.5779.99276 2.9927 2.4951 3.5624l-.60775 10.413-5.4862-6.3522c.3139-.56264.47829-1.1935.47829-1.8347 0-2.1125-1.7482-3.8251-3.9048-3.8251-2.1569-.000089-3.9054 1.7126-3.9051 3.8251 0 2.1123 1.7485 3.8246 3.9051 3.8245l3.9006 11.966 2.5279 3.9112v5.6412c0 .95361 5.3287 1.7299 10.619 1.758 5.2907-.02824 10.619-.80434 10.619-1.758v-5.6412l2.5276-3.9112 3.9009-11.966c2.1566.0000893 3.9051-1.7122 3.9051-3.8245 0-2.1126-1.7482-3.8252-3.9051-3.8251-2.1566.000063-3.9051 1.7126-3.9048 3.8251 0 .64114.1644 1.272.47829 1.8347l-5.4865 6.3522-.60774-10.413c1.5023-.56969 2.4933-1.9845 2.4951-3.5624 0-2.1123-1.7485-3.8246-3.9051-3.8245-2.1566.000053-3.9048 1.7123-3.9048 3.8245 0 .97513.38379 1.9128 1.0678 2.6212l-3.2803 9.8231-3.2803-9.8231c.68401-.70847 1.066-1.6461 1.0678-2.6212 0-2.1122-1.7482-3.8245-3.9048-3.8245z" fill="#fafafa" stroke="#3a3a3a" stroke-linejoin="round" stroke-width="1.2611"/><path d="m-94.135 10.565c-2.1453-.8839-5.0073-1.33-8.5737-1.33-3.5968 0-6.4884.45462-8.6809 1.3573l-.00011 2.6427c2.2051-.85727 5.2691-1.2865 8.6809-1.2865 3.3935 0 6.4405.41967 8.5737 1.2592z" fill="#3a3a3a" stroke-width="1.0509"/><path d="m-102.76 1.7374c-4.0027.058876-8.0111.78108-10.766 2.0285l1.7514 2.5899c2.0672-.99921 5.8884-1.4821 9.0144-1.4818 3.126-.0002568 6.9474.48261 9.0146 1.4818l1.7507-2.5899c-2.7547-1.2475-6.7627-1.9703-10.765-2.0285z" fill="#3a3a3a" stroke-width=".27805"/><path d="m-85.715-14.812c-.78079.000021-1.5065.22672-2.1167.6134 5.7291 1.0893 3.8969 5.9945.34626 6.4801l-6.3638 12.522-2.5275 3.9109v5.6415c-.000003.82573-3.9963 1.5171-8.5028 1.7064.69805.02931 1.407.04739 2.1167.05116 5.2907-.0282 10.62-.8039 10.62-1.7575v-5.6415l2.5275-3.9109 3.9009-11.966c2.1566.00009 3.9052-1.7122 3.9052-3.8246 0-2.1126-1.7483-3.8252-3.9052-3.8251z" opacity=".15"/></g></svg>