<svg clip-rule="evenodd" fill-rule="evenodd" height="50mm" image-rendering="optimizeQuality" shape-rendering="geometricPrecision" text-rendering="geometricPrecision" viewBox="0 0 50 50" width="50mm" xmlns="http://www.w3.org/2000/svg" xmlns:xlink="http://www.w3.org/1999/xlink"><linearGradient id="a" gradientUnits="userSpaceOnUse" x1="5.96226" x2="44.06178" y1="24.986762" y2="24.986762"><stop offset="0" stop-color="#3c3c3c"/><stop offset="1"/></linearGradient><filter id="b" color-interpolation-filters="sRGB"><feGaussianBlur result="blur" stdDeviation=".01 .01"/></filter><filter id="c" color-interpolation-filters="sRGB"><feFlood flood-opacity=".49804" result="flood"/><feComposite in="flood" in2="SourceGraphic" operator="in" result="composite1"/><feGaussianBlur in="composite1" result="blur" stdDeviation=".3"/><feOffset dx="1" dy="1" result="offset"/><feComposite in="SourceGraphic" in2="offset" result="composite2"/></filter><g clip-rule="evenodd" image-rendering="optimizeQuality" shape-rendering="geometricPrecision"><g fill-rule="evenodd"><path d="m25 6.55c-.8776 0-1.6536.2905-2.2614.9028-.641.6123-.9456 1.3212-.9456 2.159 0 1.2248.5739 2.127 1.7555 2.7394-2.9691 3.2861-8.7077 5.8222-8.8109 10.828.01 2.6744 1.4661 4.7641 3.3084 6.7996l-1.1142 5.8332c1.6971.5416 3.0898.9417 4.8276 1.1281-3.8819 4.5762-10.787-1.7402-15.209 2.9326l2.3302 3.5771c5.5928-3.962 13.374 3.6729 16.12-3.9621 2.7459 7.6351 10.527 0 16.12 3.9621l2.3297-3.5771c-4.422-4.6728-11.327 1.6436-15.209-2.9326 1.7377-.1864 3.1302-.5865 4.8273-1.1281l-1.1142-5.8332c1.8423-2.0355 3.3012-4.1252 3.3084-6.7996-.1032-5.0062-5.8418-7.5422-8.8109-10.828 1.1816-.6124 1.7555-1.5146 1.7555-2.7394 0-.8378-.304-1.5467-.9454-2.159-.6077-.6123-1.3837-.9028-2.2614-.9028z" fill="url(#a)" filter="url(#c)" stroke="#e6e6e6" stroke-linejoin="round" stroke-width="1.1"/><g fill="#e6e6e6"><ellipse cx="2720.3" cy="-271.4" filter="url(#b)" rx="16.3" ry="2.5" stroke-width=".91798" transform="matrix(.33232 0 0 .24998 -879.01 102.47)"/><ellipse cx="25" cy="9.6117" rx="1.1401" ry="1.1474" stroke-width=".26458"/></g></g><path d="m21.333 23.266h7.333m-3.6663-3.3339v6.7524" fill="none" stroke="#e6e6e6" stroke-width="1.4"/></g></svg>