<svg clip-rule="evenodd" fill-rule="evenodd" height="50mm" image-rendering="optimizeQuality" shape-rendering="geometricPrecision" text-rendering="geometricPrecision" viewBox="0 0 50 50" width="50mm" xmlns="http://www.w3.org/2000/svg" xmlns:xlink="http://www.w3.org/1999/xlink"><linearGradient id="a" gradientTransform="matrix(1.0008 0 0 1.0001 462.75 363.26)" gradientUnits="userSpaceOnUse" x1="-455.39" x2="-419.41" y1="-338.23" y2="-338.23"><stop offset="0" stop-color="#3c3c3c"/><stop offset="1"/></linearGradient><filter id="b" color-interpolation-filters="sRGB"><feFlood flood-opacity=".49804" result="flood"/><feComposite in="flood" in2="SourceGraphic" operator="in" result="composite1"/><feGaussianBlur in="composite1" result="blur" stdDeviation=".6"/><feOffset dx="1.6" dy="1.4" result="offset"/><feComposite in="SourceGraphic" in2="offset" result="composite2"/></filter><g stroke="#e6e6e6"><path d="m18.474 30.285c2.1026-1.198 3.3251-1.183 5.467-2.1991.2244 7.4251-9.9086 7.4565-8.0926 15.361l26.426.003s3.0977-32.274-16.795-33.626c0 0-1.9157-3.605-3.9286-3.2497 0 0-1.0654.83744-.45734 3.2065l-2.3061.74593s-3.2163-2.0717-4.1271-1.2701c-.8586.36934 1.099 3.2798 1.8779 3.9863-.78924 1.1423-8.5492 12.109-8.9675 15.682-.26658 2.2772 2.023 3.5185 3.7189 4.1193.96498.34188 1.7378.4764 1.7378.4764 1.4255-.25596 3.3449-2.0374 5.4475-3.2354z" style="clip-rule:evenodd;fill-rule:evenodd;image-rendering:optimizeQuality;shape-rendering:geometricPrecision;stroke-width:1.1;fill:url(#a);filter:url(#b)"/><path d="m23.941 28.086s4.4334-1.8669 4.2241-5.8348" fill="none" stroke-linecap="round" stroke-width="1.1"/><path d="m19.104 18.473s.59407-1.8464 3.4529-2.2941" stroke-linecap="round" stroke-width="1.4"/></g><ellipse cx="21.027" cy="18.001" fill="#e6e6e6" rx="1.2415" ry="1.1681"/><path d="m9.1691 29.241s.25452-.68232.92457-1.1184" fill="#fff" stroke="#e6e6e6" stroke-linecap="round" stroke-width="1.4"/><path d="m11.64 32.283c.69051-.8867 1.5832-1.3188 2.3844-1.9567" fill="#fff" stroke="#e6e6e6" stroke-linecap="round" stroke-width="1.2"/><path d="m30.806 14.872c4.3051 2.6334 8.4595 9.2509 8.1094 26.08" fill="none" stroke="#e6e6e6" stroke-linejoin="round" stroke-width="1.4"/></svg>