<svg clip-rule="evenodd" fill-rule="evenodd" height="50mm" image-rendering="optimizeQuality" shape-rendering="geometricPrecision" text-rendering="geometricPrecision" viewBox="0 0 50 50" width="50mm" xmlns="http://www.w3.org/2000/svg" xmlns:xlink="http://www.w3.org/1999/xlink"><linearGradient id="a" gradientTransform="matrix(.26749 0 0 .26799 -1093.5 713.11)" gradientUnits="userSpaceOnUse" x1="4127.2" x2="4235.7" y1="-2558.3" y2="-2558.3"><stop offset="0" stop-color="#3c3c3c"/><stop offset="1"/></linearGradient><filter id="b" color-interpolation-filters="sRGB"><feFlood flood-opacity=".49804" result="flood"/><feComposite in="flood" in2="SourceGraphic" operator="in" result="composite1"/><feGaussianBlur in="composite1" result="blur" stdDeviation=".3"/><feOffset dx="1" dy="1" result="offset"/><feComposite in="SourceGraphic" in2="offset" result="composite2"/></filter><path d="m25.019 43.45h-13.439c-2.4659-5.7238 4.0721-11.03 8.6676-12.832-5.4922-3.0738-2.5148-10.911 2.1927-11.547-1.1209-.74196-1.6813-2.3272-1.6813-3.5992 0-1.06.44836-2.014 1.2329-2.7559.78463-.74196 1.7934-1.1659 3.0263-1.1659 1.1208 0 2.1296.42396 3.0263 1.1659.7846.74196 1.2329 1.6959 1.2329 2.7559 0 1.2719-.56045 2.8573-1.6814 3.5992 5.1559 2.0139 7.0125 9.427 2.1928 11.547 6.2767 2.2259 10.685 7.8501 8.6676 12.832z" style="clip-rule:evenodd;fill-rule:evenodd;image-rendering:optimizeQuality;shape-rendering:geometricPrecision;stroke:#e6e6e6;stroke-linecap:square;stroke-linejoin:round;stroke-width:1.1;fill:url(#a);filter:url(#b)"/></svg>