<svg clip-rule="evenodd" fill-rule="evenodd" height="50mm" image-rendering="optimizeQuality" shape-rendering="geometricPrecision" text-rendering="geometricPrecision" viewBox="0 0 50 50" width="50mm" xmlns="http://www.w3.org/2000/svg" xmlns:xlink="http://www.w3.org/1999/xlink"><linearGradient id="a" gradientUnits="userSpaceOnUse" x1="5.96226" x2="44.06178" y1="25.01322" y2="25.01322"><stop offset="0" stop-color="#fff"/><stop offset="1" stop-color="#e6e6e6"/></linearGradient><filter id="b" color-interpolation-filters="sRGB"><feGaussianBlur result="blur" stdDeviation=".01 .01"/></filter><filter id="c" color-interpolation-filters="sRGB"><feFlood flood-opacity=".49804" result="flood"/><feComposite in="flood" in2="SourceGraphic" operator="in" result="composite1"/><feGaussianBlur in="composite1" result="blur" stdDeviation=".3"/><feOffset dx="1" dy="1" result="offset"/><feComposite in="SourceGraphic" in2="offset" result="composite2"/></filter><g clip-rule="evenodd" image-rendering="optimizeQuality" shape-rendering="geometricPrecision"><g fill-rule="evenodd"><path d="m25 6.55c-.87762 0-1.6536.29049-2.2614.90278-.64109.6123-.94562 1.3212-.94562 2.1591 0 1.2247.57388 2.127 1.7555 2.7394-2.9692 3.2861-8.7077 5.8222-8.8109 10.828.0079 2.6744 1.4661 4.7641 3.3084 6.7996l-1.1142 5.8332c1.697.5416 3.0898.94168 4.8276 1.1281-3.882 4.5762-10.787-1.7402-15.209 2.9326l2.3302 3.5771c5.5928-3.962 13.374 3.6729 16.12-3.9621 2.7458 7.6351 10.527.0037 16.12 3.9621l2.3297-3.5771c-4.422-4.6729-11.327 1.6436-15.209-2.9326 1.7378-.1864 3.1303-.58653 4.8273-1.1281l-1.1142-5.8332c1.8423-2.0355 3.3012-4.1252 3.3084-6.7996-.10319-5.0062-5.8417-7.5422-8.8109-10.828 1.1816-.6124 1.7555-1.5147 1.7555-2.7394 0-.8378-.30401-1.5468-.94536-2.1591-.60775-.6123-1.3838-.90278-2.2614-.90278z" fill="url(#a)" filter="url(#c)" stroke="#000" stroke-linejoin="round" stroke-width="1.1"/><ellipse cx="2720.3" cy="-271.4" filter="url(#b)" rx="16.3" ry="2.5" stroke-width=".91797" transform="matrix(.33232 0 0 .24998 -879.01 102.47)"/><ellipse cx="25" cy="9.6115" rx="1.1401" ry="1.1474" stroke-width=".26458"/></g><path d="m21.333 23.266h7.333m-3.6663-3.3339v6.7524" fill="none" stroke="#000" stroke-width="1.4"/></g></svg>