<svg shape-rendering="crispEdges" viewBox="0 -.5 16 16" xmlns="http://www.w3.org/2000/svg"><path d="m4 1h4m-4 1h1m3 0h3m-6 1h1m5 0h1m-8 1h1m1 0h1m5 0h1m-10 1h1m8 0h1m-11 1h1m5 0h1m3 0h1m-11 1h1m2 0h3m4 0h1m-10 1h2m2 0h1m4 0h1m-7 1h1m5 0h1m-8 1h1m5 0h1m-8 1h1m6 0h1m-8 1h8m-9 1h1m8 0h1m-10 1h10" stroke="#000"/><path d="m5 2h1m-1 9h1" stroke="#6d6d6d"/><path d="m6 2h1m-1 1h1m-2 1h1m-2 1h1m-2 1h1m-1 1h1m4 0h1m-1 1h1m-2 1h1m-2 1h1m-1 1h1m-3 2h2" stroke="#494949"/><path d="m7 2h1m-1 1h3m-3 1h4m-6 1h3m1 0h2m-7 1h3m2 0h2m-7 1h1m4 0h2m-2 1h2m-3 1h3m-4 1h3m-3 1h2m-3 2h3" stroke="#242424"/><path d="m10 3h1m0 1h1m-4 1h1m2 0h1m-5 1h1m3 0h1m-1 1h1m-1 1h1m-1 1h1m-2 1h1m-2 1h2m-2 2h3" stroke="#151515"/></svg>