<svg shape-rendering="crispEdges" viewBox="0 -.5 16 16" xmlns="http://www.w3.org/2000/svg"><path d="m7 1h2m-3 1h1m2 0h1m-4 1h1m2 0h1m-3 1h2m-8 1h1m12 0h1m-13 1h2m3 0h2m3 0h2m-12 1h1m1 0h1m1 0h1m2 0h1m1 0h1m1 0h1m-12 1h1m2 0h1m4 0h1m2 0h1m-11 1h1m8 0h1m-10 1h1m8 0h1m-9 1h1m6 0h1m-8 1h8m-9 1h1m8 0h1m-10 1h10" stroke="#000"/><path d="m7 2h1m-5 5h1m-1 1h1" stroke="#6d6d6d"/><path d="m8 2h1m-1 1h1m3 4h1m-2 1h2m-2 1h1m-2 1h2m-3 1h2m-2 2h3" stroke="#151515"/><path d="m7 3h1m-1 4h1m-4 1h1m1 0h1m-3 1h2m-2 1h2m-1 1h1m-2 2h2" stroke="#494949"/><path d="m8 7h1m-2 1h3m-4 1h5m-5 1h4m-4 1h3m-3 2h3" stroke="#242424"/></svg>