<svg height="50.775211mm" viewBox="0 0 50.799999 50.775211" width="50.799999mm" xmlns="http://www.w3.org/2000/svg"><g transform="translate(-77.240891 -107.44508)"><g fill="#fff"><path d="m105.91506 151.29942q-.39688-.24805-1.11622-1.0418-.12402-.12402-.24804-.22324-.12403-.12403-.24805-.27285-.19844-.12403-.39687-.12403-1.28985 0-.96739.96739.14883.22324.12403.19843.17363.17364 1.19062 1.11621.47129.44649.89297.64493.22324.14882.44648.14882.74415 0 .74415-.74414 0-.29765-.42168-.66972z"/><path d="m107.80021 138.67383-.44648-1.71152q-1.95957-.54571-4.68809-.54571-2.50527 0-4.489647.4961l-.496094 1.71152q2.158008-.57051 4.985741-.57051 3.02617 0 5.13457.62012z"/><path d="m105.0965 141.37754-2.40605.99219-2.38125-.99219 2.38125-.99219z"/><path d="m107.89943 140.0877q-2.1084-.57051-5.15937-.57051-2.852544 0-5.035356.5209l-.347266.96738 2.108399.47129-2.182813 1.38906-.471289-.0992-.595312 1.78594q.520898-.5457 2.356445-.91777 1.835542-.37207 4.241602-.37207 2.35644 0 4.16719.37207 1.83554.37207 2.38125.89297l-.62012-1.78594-.62012.12402-2.18281-1.38906 2.23242-.47129z"/><path d="m107.08088 127.11485v-2.77813h-2.97657v-3.86953h-2.75332v3.86953h-3.026169v2.77813h3.026169v5.53144h2.75332v-5.53144z"/><path d="m99.366618 151.29942q-.272852.27285-.272852.62011 0 .74415.744141.74415.223243 0 .396873-.12403.42168-.22324.81856-.62012.89297-.84335 1.24023-1.14101.0496-.0496.0496-.17363 0-.96739-.96738-.96739-.17364 0-.32246.14883-.22325.22324-.54571.47129-.29765.22324-.545699.5209-.223243.27285-.595313.5209z"/><path d="m111.9922 128.67754q.34727-1.33945-.76894-4.98574t-3.47266-6.10195q-.29765-.22324-.62011-.19844-.42168.0248-.79375.34727-.37208.32246-.0992.76894 2.90214 1.90996 4.34082 5.3082 1.43867 3.37344 1.41386 4.86172z"/><path d="m102.66564 152.21719q-1.83555 2.6541-4.960936 2.6541-.322461 0-.644922-.0248-.297656-.0496-.595312-.0744-.719336-.0248-2.108399-.24804-1.389062-.24805-3.100586-1.11621-1.513086-1.31465-3.844726-1.31465-1.785938 0-3.100586.84336-.37207.17363-.917773.71933-.992188 1.0666-1.612305 1.16582-.496094-.24804-.520899-.84336-.124023-1.16582 1.711524-3.00136-.322461.0496-1.21543.29765-.74414.22324-.992187.22324-.818555.12403-.868164.0248-.272852-.27285.198437-1.11621.396875-.71934 1.537891-1.26504.148828-.0744.942578-.42168 2.306836-1.21543 4.836914-1.21543 3.695898 0 6.672461 2.50527 1.190625.39688 2.406054.39688 3.720706 0 3.844726-3.07578-2.406054-.22324-4.018359-.81856-1.587499-.59531-1.587499-1.38906l1.984374-6.59805q-1.736328-2.72851-2.877343-5.55625-1.141016-2.82773-1.141016-5.35781 0-7.59023 8.235153-11.6582 0-.32246.0744-.96738-.84336-.69454-.84336-1.76114 0-2.28203 2.30683-2.28203 2.28204 0 2.28204 2.28203 0 .99219-.71934 1.66192 0 .76894.19844 1.04179.42168.59532 1.11621.62012.71933-.0248 1.19062-.64492.0992-.14883.19844-.91777-.64492-.66973-.64492-1.66192 0-2.33164 2.33164-2.33164t2.33164 2.33164q0 1.31465-1.14102 2.03399-.0992.49609-.0496.79375 4.192 4.96093 3.64629 11.45976-.17363 1.86035-.5705 3.67109-.39688 1.78594-1.38907 3.37344-.37207.84336-1.16582 1.90996-.76894 1.0418-1.33945 1.95957l1.95957 6.59805q-.0248.79375-1.63711 1.38906-1.6123.59532-4.06797.81856.12403 3.07578 3.86953 3.07578 1.21543 0 2.40606-.39688 2.95176-2.50527 6.67246-2.50527 2.53008 0 4.81211 1.21543.29765.14883.5209.24805.22324.0992.44648.17363 1.11621.57051 1.53789 1.26504.0744.22324.22324.57051.14883.34726-.0248.5457-.0744.0992-.86817-.0248-.24804 0-.99218-.22324-.91778-.24804-1.24024-.29765 1.83555 1.86035 1.73633 3.00136-.0496.57051-.5457.84336-.62012-.0992-1.61231-1.16582-.49609-.49609-.89297-.71933-1.38906-.84336-3.10058-.84336-2.38125 0-3.86953 1.31465-1.71153.86816-3.10059 1.11621-1.38906.22324-2.08359.24804-.29766.0248-.62012.0744-.32246.0248-.62012.0248-3.1998 0-4.98574-2.6541z"/></g><path d="m105.91506 151.29942q-.39688-.24805-1.11622-1.0418-.12402-.12402-.24804-.22324-.12403-.12403-.24805-.27285-.19844-.12403-.39687-.12403-1.28985 0-.96739.96739.14883.22324.12403.19843.17363.17364 1.19062 1.11621.47129.44649.89297.64493.22324.14882.44648.14882.74415 0 .74415-.74414 0-.29765-.42168-.66972zm1.88515-12.62559-.44648-1.71152q-1.95957-.54571-4.68809-.54571-2.50527 0-4.489647.4961l-.496094 1.71152q2.158008-.57051 4.985741-.57051 3.02617 0 5.13457.62012zm-2.70371 2.70371-2.40605.99219-2.38125-.99219 2.38125-.99219zm2.80293-1.28984q-2.1084-.57051-5.15937-.57051-2.852544 0-5.035356.5209l-.347266.96738 2.108399.47129-2.182813 1.38906-.471289-.0992-.595312 1.78594q.520898-.5457 2.356445-.91777 1.835542-.37207 4.241602-.37207 2.35644 0 4.16719.37207 1.83554.37207 2.38125.89297l-.62012-1.78594-.62012.12402-2.18281-1.38906 2.23242-.47129zm-.81855-12.97285v-2.77813h-2.97657v-3.86953h-2.75332v3.86953h-3.026169v2.77813h3.026169v5.53144h2.75332v-5.53144zm-7.714262 24.18457q-.272852.27285-.272852.62011 0 .74415.744141.74415.223243 0 .396873-.12403.42168-.22324.81856-.62012.89297-.84335 1.24023-1.14101.0496-.0496.0496-.17363 0-.96739-.96738-.96739-.17364 0-.32246.14883-.22325.22324-.54571.47129-.29765.22324-.545699.5209-.223243.27285-.595313.5209zm12.625582-22.62188q.34727-1.33945-.76894-4.98574t-3.47266-6.10195q-.29765-.22324-.62011-.19844-.42168.0248-.79375.34727-.37208.32246-.0992.76894 2.90214 1.90996 4.34082 5.3082 1.43867 3.37344 1.41386 4.86172zm-9.32656 23.53965q-1.83555 2.6541-4.960936 2.6541-.322461 0-.644922-.0248-.297656-.0496-.595312-.0744-.719336-.0248-2.108399-.24804-1.389062-.24805-3.100586-1.11621-1.513086-1.31465-3.844726-1.31465-1.785938 0-3.100586.84336-.37207.17363-.917773.71933-.992188 1.0666-1.612305 1.16582-.496094-.24804-.520899-.84336-.124023-1.16582 1.711524-3.00136-.322461.0496-1.21543.29765-.74414.22324-.992187.22324-.818555.12403-.868164.0248-.272852-.27285.198437-1.11621.396875-.71934 1.537891-1.26504.148828-.0744.942578-.42168 2.306836-1.21543 4.836914-1.21543 3.695898 0 6.672461 2.50527 1.190625.39688 2.406054.39688 3.720706 0 3.844726-3.07578-2.406054-.22324-4.018359-.81856-1.587499-.59531-1.587499-1.38906l1.984374-6.59805q-1.736328-2.72851-2.877343-5.55625-1.141016-2.82773-1.141016-5.35781 0-7.59023 8.235153-11.6582 0-.32246.0744-.96738-.84336-.69454-.84336-1.76114 0-2.28203 2.30683-2.28203 2.28204 0 2.28204 2.28203 0 .99219-.71934 1.66192 0 .76894.19844 1.04179.42168.59532 1.11621.62012.71933-.0248 1.19062-.64492.0992-.14883.19844-.91777-.64492-.66973-.64492-1.66192 0-2.33164 2.33164-2.33164t2.33164 2.33164q0 1.31465-1.14102 2.03399-.0992.49609-.0496.79375 4.192 4.96093 3.64629 11.45976-.17363 1.86035-.5705 3.67109-.39688 1.78594-1.38907 3.37344-.37207.84336-1.16582 1.90996-.76894 1.0418-1.33945 1.95957l1.95957 6.59805q-.0248.79375-1.63711 1.38906-1.6123.59532-4.06797.81856.12403 3.07578 3.86953 3.07578 1.21543 0 2.40606-.39688 2.95176-2.50527 6.67246-2.50527 2.53008 0 4.81211 1.21543.29765.14883.5209.24805.22324.0992.44648.17363 1.11621.57051 1.53789 1.26504.0744.22324.22324.57051.14883.34726-.0248.5457-.0744.0992-.86817-.0248-.24804 0-.99218-.22324-.91778-.24804-1.24024-.29765 1.83555 1.86035 1.73633 3.00136-.0496.57051-.5457.84336-.62012-.0992-1.61231-1.16582-.49609-.49609-.89297-.71933-1.38906-.84336-3.10058-.84336-2.38125 0-3.86953 1.31465-1.71153.86816-3.10059 1.11621-1.38906.22324-2.08359.24804-.29766.0248-.62012.0744-.32246.0248-.62012.0248-3.1998 0-4.98574-2.6541z" stroke-width=".264583"/></g></svg>