<svg height="50.775204mm" viewBox="0 0 50.800003 50.775204" width="50.800003mm" xmlns="http://www.w3.org/2000/svg"><g transform="translate(-37.95227 -79.849506)"><g fill="#fff"><path d="m71.017315 116.38687 2.083594 1.6123 2.604492-.89297-2.058789-1.6123z"/><path d="m77.144073 115.96519q.173633.52089.173633.99218 0 1.46348-1.066602 2.25723-.09922.42168-.148828.84336.917773 1.28984.917773 2.08359 0 2.0836-4.018359 3.57188t-9.649023 1.48828q-5.655469 0-9.673828-1.48828-3.993555-1.48828-3.993555-3.57188 0-.81855.967383-2.1332-.04961-.27285-.148828-.76895-1.091406-.79375-1.091406-2.28203 0-.47129.148828-.96738.248047-.62012-.09922-.96738-.347266-.34727-.79375-.96739-.396875-1.24023-.396875-1.71152.02481-.22324.07441-.49609.07441-.27285.07441-.64492-1.091406-1.09141-2.282031-2.05879-1.16582-.99219-1.835547-2.38125-.79375-1.63711-1.463476-3.29903-.644922-1.68672-.644922-3.29902 0-3.050976 1.612304-5.159375 1.612305-2.108398 4.365625-3.299023 3.671094-.248047 3.100586-.248047 4.316016 0 7.838281 3.199805v-8.706446h8.458399v8.73125q3.522265-3.224609 7.88789-3.224609-.620117 0 3.100586.248047 2.703711 1.190625 4.316016 3.299023 1.637109 2.108399 1.637109 5.159375 0 1.6123-.669727 3.27422-.644921 1.66191-1.413867 3.29902-.669726 1.41387-1.860351 2.45567-1.190625 1.04179-2.257227 2.08359-.0248.29766.02481.57051.07441.27285.09922.49609.0248.34727-.396875 1.71152-.446485.62012-.79375.96739-.322461.34726-.09922.94258z"/><path d="m73.721026 123.08413q-.09922-.5457-.347266-1.19062-.272851-.59532-.570507-.79375-.272852-.22325-.496094-.57051-2.505273-1.5875-8.904883-1.41387-6.498828-.17363-8.979297 1.41387-.297656.29765-.595312.5209-.272852.22324-.471289.81855-.272852.62012-.347266 1.21543-.04961.79375.694532.79375.719335 0 .694531-.76894.223242-2.48047 8.904882-2.48047 8.756055 0 9.004102 2.48047-.04961.76894.694531.76894.719336 0 .719336-.79375z"/><path d="m66.081182 108.44937q.322461 0 .644922.0496.322461.0248.620117.0248-.198437-2.25723.198438-3.6959.148828-.5457.545703-.59531.570508-.0992.818555.62012.198437 1.19062-.396875 3.79511.992187.17364 1.463476.17364.148828-3.81993 1.165821-6.07715.297656-.59531.992187-.59531.843359 0 .79375.81855.04961.0496.04961.76895 0 1.26503-1.413867 5.38261.719336.24805 1.240235.19844.272851-.71934.545703-1.51309.297656-.81855.74414-1.73632.198438-.47129.570508-.47129.42168 0 .520899.81855.0248.69453-1.463477 3.175.620117.29766 1.240234.32246.297657-.59531.545704-1.11621.272851-.5209.570507-1.33945.545703-1.5875.446485-3.02617-.198438-.86817-.967383-.86817-.37207 0-.917774.59531.124024-.79375.124024-.99218 0-1.0418-.520898-1.95957-.496094-.94258-1.711524-1.289847-.892969.04961-1.860351 1.091407-.967383 1.0418-1.289844 2.45566-.272852-.86816-.719336-.99218-.446484-.12403-.595313-.12403-.297656 0-.570507.17364-.992188 1.14101-1.21543 3.47265-.07441.5209-.09922 1.01699-.0248.4961-.09922 1.43868z"/><path d="m60.549737 108.47417q-.07441-.91777-.09922-1.41387-.0248-.49609-.07441-1.01699-.297656-2.38125-1.215429-3.47266-.248047-.17363-.595313-.17363-.148828 0-.620117.12403-.446484.12402-.669726.96738-.347266-1.41387-1.314649-2.45567-.942578-1.041793-1.835547-1.091402-1.240234.372072-1.736328 1.314652-.496094.91777-.496094 1.95957 0 .47129.124024.99218-.595313-.62011-.917774-.62011-.79375 0-.967382.89297-.124024 1.53789.446484 3.00136.272852.81856.520898 1.36426.272852.5209.595313 1.11621.595312-.0248 1.240234-.32246-1.513086-2.45566-1.463476-3.175.0248-.81855.496093-.81855.372071 0 .595313.47128.42168.89297.694531 1.71153.297656.81855.595313 1.53789.595312 0 1.240234-.19844-1.438672-4.19199-1.438672-5.40742 0-.66973.04961-.74414 0-.84336.79375-.84336.694531 0 1.016992.62012.992187 2.25722 1.16582 6.07715.496094-.0248 1.438672-.17364-.595313-2.6541-.37207-3.79511.223242-.74415.79375-.64493.421679.0992.545703.59532.396875 1.56269.198437 3.7207.396875-.0496 1.265039-.0992z"/><path d="m63.352667 94.558741q-1.21543 0-2.083594.868164t-.868164 2.083594q0 1.240234.868164 2.108398.868164.843363 2.083594.843363 2.951758 0 2.951758-2.951761 0-2.951758-2.951758-2.951758z"/><path d="m63.650323 89.225733q-.148828-.07441-.297656-.07441-.272852 0-.396875.09922l-1.5875-1.612305h-.570508v.694531l1.562695 1.562696q-.07441.148828-.07441.322461 0 .148828.07441.297656l-1.562695 1.5875v.644922h.570508l1.562695-1.562696q.173633.07441.42168.07441.198437 0 .322461-.04961l1.562695 1.537891h.669727v-.570508l-1.5875-1.537891q.07441-.173633.07441-.421679 0-.223243-.09922-.396875l1.612305-1.5875v-.595313h-.694532z"/><path d="m66.65169 115.61792-3.348633-1.5875-3.224609 1.5875 3.348633 1.6123z"/><path d="m55.886456 116.38687-2.629297-.89297-2.058789 1.6123 2.604492.89297z"/><path d="m75.159698 114.08003q1.116211-.12402 1.116211-1.24023 0-.71934-.644922-1.09141-2.083594-.84336-5.308203-1.36426-3.199805-.5457-6.994922-.5457-7.962304 0-12.352734 1.95957-.545703.42168-.545703 1.0418 0 1.26503 1.265039 1.21542 4.415234-1.66191 11.633398-1.66191 7.317383 0 11.831836 1.68672z"/><path d="m58.962237 97.113624q-2.877343-3.050977-6.523632-3.050977-3.348633 0-5.084961 2.232422-1.116211 1.413867-1.116211 3.844731 0 1.90996.545703 3.64628.02481.4961.620117.4961.595313 0 .644922-.59531-.198438-1.26504-.198438-2.25723 0-2.05879.967383-3.249415 1.389063-1.885156 4.316016-1.885156 2.877343 0 5.382617 2.282031.496094 0 .496094-.917773 0-.198438-.04961-.545703z"/><path d="m67.619073 97.113624q-.04961.347265-.04961.545703 0 .917773.496093.917773 2.480469-2.282031 5.407422-2.282031 2.877344 0 4.291211 1.885156.967383 1.190625.967383 3.249415 0 .99219-.198438 2.25723.02481.59531.644922.59531.620117 0 .620117-.4961.545704-1.73632.545704-3.64628 0-2.430864-1.116211-3.844731-1.761133-2.232422-5.084961-2.232422-3.671094 0-6.523633 3.050977z"/></g><path d="m71.017315 116.38687 2.083594 1.6123 2.604492-.89297-2.058789-1.6123zm6.126758-.42168q.173633.52089.173633.99218 0 1.46348-1.066602 2.25723-.09922.42168-.148828.84336.917773 1.28984.917773 2.08359 0 2.0836-4.018359 3.57188t-9.649023 1.48828q-5.655469 0-9.673828-1.48828-3.993555-1.48828-3.993555-3.57188 0-.81855.967383-2.1332-.04961-.27285-.148828-.76895-1.091406-.79375-1.091406-2.28203 0-.47129.148828-.96738.248047-.62012-.09922-.96738-.347266-.34727-.79375-.96739-.396875-1.24023-.396875-1.71152.02481-.22324.07441-.49609.07441-.27285.07441-.64492-1.091406-1.09141-2.282031-2.05879-1.16582-.99219-1.835547-2.38125-.79375-1.63711-1.463476-3.29903-.644922-1.68672-.644922-3.29902 0-3.050976 1.612304-5.159375 1.612305-2.108398 4.365625-3.299023 3.671094-.248047 3.100586-.248047 4.316016 0 7.838281 3.199805v-8.706446h8.458399v8.73125q3.522265-3.224609 7.88789-3.224609-.620117 0 3.100586.248047 2.703711 1.190625 4.316016 3.299023 1.637109 2.108399 1.637109 5.159375 0 1.6123-.669727 3.27422-.644921 1.66191-1.413867 3.29902-.669726 1.41387-1.860351 2.45567-1.190625 1.04179-2.257227 2.08359-.0248.29766.02481.57051.07441.27285.09922.49609.0248.34727-.396875 1.71152-.446485.62012-.79375.96739-.322461.34726-.09922.94258zm-3.423047 7.11894q-.09922-.5457-.347266-1.19062-.272851-.59532-.570507-.79375-.272852-.22325-.496094-.57051-2.505273-1.5875-8.904883-1.41387-6.498828-.17363-8.979297 1.41387-.297656.29765-.595312.5209-.272852.22324-.471289.81855-.272852.62012-.347266 1.21543-.04961.79375.694532.79375.719335 0 .694531-.76894.223242-2.48047 8.904882-2.48047 8.756055 0 9.004102 2.48047-.04961.76894.694531.76894.719336 0 .719336-.79375zm-7.639844-14.63476q.322461 0 .644922.0496.322461.0248.620117.0248-.198437-2.25723.198438-3.6959.148828-.5457.545703-.59531.570508-.0992.818555.62012.198437 1.19062-.396875 3.79511.992187.17364 1.463476.17364.148828-3.81993 1.165821-6.07715.297656-.59531.992187-.59531.843359 0 .79375.81855.04961.0496.04961.76895 0 1.26503-1.413867 5.38261.719336.24805 1.240235.19844.272851-.71934.545703-1.51309.297656-.81855.74414-1.73632.198438-.47129.570508-.47129.42168 0 .520899.81855.0248.69453-1.463477 3.175.620117.29766 1.240234.32246.297657-.59531.545704-1.11621.272851-.5209.570507-1.33945.545703-1.5875.446485-3.02617-.198438-.86817-.967383-.86817-.37207 0-.917774.59531.124024-.79375.124024-.99218 0-1.0418-.520898-1.95957-.496094-.94258-1.711524-1.289847-.892969.04961-1.860351 1.091407-.967383 1.0418-1.289844 2.45566-.272852-.86816-.719336-.99218-.446484-.12403-.595313-.12403-.297656 0-.570507.17364-.992188 1.14101-1.21543 3.47265-.07441.5209-.09922 1.01699-.0248.4961-.09922 1.43868zm-5.531445.0248q-.07441-.91777-.09922-1.41387-.0248-.49609-.07441-1.01699-.297656-2.38125-1.215429-3.47266-.248047-.17363-.595313-.17363-.148828 0-.620117.12403-.446484.12402-.669726.96738-.347266-1.41387-1.314649-2.45567-.942578-1.041793-1.835547-1.091402-1.240234.372072-1.736328 1.314652-.496094.91777-.496094 1.95957 0 .47129.124024.99218-.595313-.62011-.917774-.62011-.79375 0-.967382.89297-.124024 1.53789.446484 3.00136.272852.81856.520898 1.36426.272852.5209.595313 1.11621.595312-.0248 1.240234-.32246-1.513086-2.45566-1.463476-3.175.0248-.81855.496093-.81855.372071 0 .595313.47128.42168.89297.694531 1.71153.297656.81855.595313 1.53789.595312 0 1.240234-.19844-1.438672-4.19199-1.438672-5.40742 0-.66973.04961-.74414 0-.84336.79375-.84336.694531 0 1.016992.62012.992187 2.25722 1.16582 6.07715.496094-.0248 1.438672-.17364-.595313-2.6541-.37207-3.79511.223242-.74415.79375-.64493.421679.0992.545703.59532.396875 1.56269.198437 3.7207.396875-.0496 1.265039-.0992zm2.80293-13.915429q-1.21543 0-2.083594.868164t-.868164 2.083594q0 1.240234.868164 2.108398.868164.843363 2.083594.843363 2.951758 0 2.951758-2.951761 0-2.951758-2.951758-2.951758zm.297656-5.333008q-.148828-.07441-.297656-.07441-.272852 0-.396875.09922l-1.5875-1.612305h-.570508v.694531l1.562695 1.562696q-.07441.148828-.07441.322461 0 .148828.07441.297656l-1.562695 1.5875v.644922h.570508l1.562695-1.562696q.173633.07441.42168.07441.198437 0 .322461-.04961l1.562695 1.537891h.669727v-.570508l-1.5875-1.537891q.07441-.173633.07441-.421679 0-.223243-.09922-.396875l1.612305-1.5875v-.595313h-.694532zm3.001367 26.392187-3.348633-1.5875-3.224609 1.5875 3.348633 1.6123zm-10.765234.76895-2.629297-.89297-2.058789 1.6123 2.604492.89297zm19.273242-2.30684q1.116211-.12402 1.116211-1.24023 0-.71934-.644922-1.09141-2.083594-.84336-5.308203-1.36426-3.199805-.5457-6.994922-.5457-7.962304 0-12.352734 1.95957-.545703.42168-.545703 1.0418 0 1.26503 1.265039 1.21542 4.415234-1.66191 11.633398-1.66191 7.317383 0 11.831836 1.68672zm-16.197461-16.966406q-2.877343-3.050977-6.523632-3.050977-3.348633 0-5.084961 2.232422-1.116211 1.413867-1.116211 3.844731 0 1.90996.545703 3.64628.02481.4961.620117.4961.595313 0 .644922-.59531-.198438-1.26504-.198438-2.25723 0-2.05879.967383-3.249415 1.389063-1.885156 4.316016-1.885156 2.877343 0 5.382617 2.282031.496094 0 .496094-.917773 0-.198438-.04961-.545703zm8.656836 0q-.04961.347265-.04961.545703 0 .917773.496093.917773 2.480469-2.282031 5.407422-2.282031 2.877344 0 4.291211 1.885156.967383 1.190625.967383 3.249415 0 .99219-.198438 2.25723.02481.59531.644922.59531.620117 0 .620117-.4961.545704-1.73632.545704-3.64628 0-2.430864-1.116211-3.844731-1.761133-2.232422-5.084961-2.232422-3.671094 0-6.523633 3.050977z" stroke-width=".264583"/></g></svg>