<svg height="50.775192mm" viewBox="0 0 50.799999 50.775192" width="50.799999mm" xmlns="http://www.w3.org/2000/svg"><path d="m67.360868 136.04661h-13.518554q.471289-5.33301 4.539258-9.0041.669726-.62012.74414-.66973 2.108399-1.73632 3.59668-4.14238-3.819922-2.50527-3.819922-7.06933 0-2.82774 1.711524-5.08496.570507-.71934 1.215429-1.63711.669727-.91778 1.066602-1.78594-.595313.14883-1.810742.47129-1.190625.32246-1.761133.5457 1.711523-1.5875 3.249414-3.77031 1.562695-2.18281 1.835547-4.638478-1.265039-1.289844-1.265039-3.026172t1.215429-2.976563q1.240235-1.240234 3.001367-1.240234 1.711524 0 2.951758 1.240234 1.240235 1.240235 1.240235 2.976563 0 1.761133-1.265039 3.026172.272851 2.455668 1.835546 4.638478 1.5875 2.18281 3.299024 3.77031-.570508-.22324-1.810742-.5457-1.21543-.32246-1.810743-.47129.396875.86816 1.041797 1.78594.669727.91777 1.265039 1.63711 1.711524 2.25722 1.711524 5.08496 0 4.56406-3.819922 7.06933 1.413867 2.38125 3.571875 4.14238.37207.29766.744141.66973 4.092773 3.67109 4.539257 9.0041z" stroke-width=".264583" transform="translate(-41.961315 -88.669416)"/></svg>