<svg height="50.775192mm" viewBox="0 0 50.799999 50.775192" width="50.799999mm" xmlns="http://www.w3.org/2000/svg"><g transform="translate(-75.436829 -92.010267)"><g fill="#fff"><path d="m100.83668 95.408143h3.42305v3.373437h5.13457v-3.373437h5.90352v8.855277l-3.99356 4.61367q1.28984 1.63711.0496 3.44785-.19844.32246-.19844.59531 0 .32246.19844.62012.5209.76894.49609 2.18281 0 1.38906-.52089 2.18281-.17364.24805-.17364.5209 0 .34727.22325.64492 1.16582 1.76114-.0496 3.47266-.17364.29766-.17364.57051t.17364.57051q.5457.81855.5457 2.28203 0 1.43867-.59531 2.1332l4.01836 2.00918v2.1332h1.66191v7.19336h-32.270898v-7.16855h1.686719v-2.13321l3.993554-2.03398q-.595312-.69453-.595312-2.1332t.545703-2.25723q.198437-.27285.198437-.57051 0-.24804-.198437-.5705-1.21543-1.73633-.02481-3.47266.223242-.39688.223242-.64492 0-.24805-.173632-.54571-.545703-.79375-.570508-2.18281 0-1.41387.520898-2.18281.223242-.29766.223242-.62012 0-.27285-.198437-.57051-1.265039-1.81074.04961-3.47265l-3.993554-4.58887v-8.855273h5.903515v3.348633l5.109766.02481v-3.373438z"/><path d="m88.136683 101.70853v2.15801q3.175-.14883 6.325196-.29766 3.175-.17363 6.374801-.17363 3.12539 0 6.30039.19844 3.19981.19844 6.39961.27285 0-.81855 0-1.0666 0-.27285 0-1.09141z"/><path d="m89.203285 130.92845q-1.066602.0992-1.066602 1.06661 0 1.0666 1.066602 1.0666l11.633395-.39688 11.6334.39688q1.0666 0 1.0666-1.0666 0-.96739-1.0666-1.06661-2.90215-.17363-5.8291-.29765-2.90215-.14883-5.8043-.14883-2.902145 0-5.829098.14883-2.902149.12402-5.804297.29765z"/><path d="m102.10172 124.20638q.71934-.5705 2.1084-.5705 1.41387 0 2.15801.5705.74414.59532.74414 1.78594.0248 1.19063-.74414 1.5627-.79375.42168-2.15801.42168t-2.1084-.42168q-.79375-.37207-.76894-1.5627.0248-1.19062.76894-1.78594z"/><path d="m95.305238 124.20638q.744141-.5705 2.133203-.5705 1.389063 0 2.133203.5705.744136.59532.669726 1.78594-.0496 1.19063-.669726 1.5627-.644922.42168-2.182812.39687-1.513086-.0496-2.083594-.39687-.595312-.32246-.669727-1.53789-.07441-1.21543.669727-1.81075z"/><path d="m100.83668 106.32221q-2.356442 0-5.457028.32246-3.100586.29765-3.894336.5457-.818554.29766-.74414.94258.07441.64492.74414.84336.669727.22324 2.654102-.0496 1.984375-.27285 2.455664.0496.446484.34726.446484 1.63711 0 1.26504-.446484 1.73632-.471289.47129-2.554883.12403-2.058789-.34727-2.554883-.12403-.496094.22325-.396875.81856.09922.57051.396875.84336.297656.29765.868164-.12403.595313-.42167.892969.12403.297656.59531.297656 1.71152t-.297656 1.66192q-.297656.5705-.892969.14882-.570508-.44648-.868164-.14882-.322461.32246-.347265.96738 0 .62012.347265.79375.322461.22324 2.480469-.0992 2.158008-.34727 2.629297.0992.446484.47129.446484 1.66191 0 1.19063-.446484 1.71153-.471289.5457-2.654102.17363-2.158008-.39688-2.455664-.17363-.967383.79375 0 1.68671.297656.29766.868164-.12402.595313-.42168.892969.12402.297656.57051.297656 1.68672t-.297656 1.66192q-.297656.59531-.892969.17363-.570508-.44648-.868164-.17363-.297656.29765-.471289.89297-.173633.5705.471289.79375.496094.19843 3.274219-.0744 2.778125-.27285 6.077145-.27285 3.27422 0 6.12676.22324 2.85254.19844 3.22461.12403.5209-.0744.39688-.71934-.0992-.66973-.39688-.96738-.32246-.27285-.91777.17363-.57051.42168-.84336-.17363-.29766-.54571-.29766-1.66192t.29766-1.68672q.27285-.5457.86816-.12402t.89297.12402q.91777-.91777 0-1.68671-.29766-.22325-2.55488.12402-2.25723.34726-2.57969-.12402-.32246-.44649-.37207-1.5627-.0248-1.14102.37207-1.81074.39688-.66973 2.57969-.24805 2.20761.42168 2.55488.24805.29766-.14883.29766-.79375t-.29766-.96738q-.32246-.29766-.91777.14882-.57051.42168-.84336-.14882-.29766-.54571-.29766-1.66192t.29766-1.71152q.27285-.5457.84336-.12403.59531.42168.91777.12403.29766-.27285.32246-.84336.0496-.59531-.32246-.81856-.42168-.22324-2.57969.12403-2.158.34726-2.55488-.12403-.39687-.47128-.39687-1.68671t.39687-1.68672q.39688-.44649 2.43086-.0496 2.03398.39687 2.70371.0496.64492-.32246.69453-.89297.0744-.59531-.69453-.89297-.81855-.24805-3.94394-.5457-3.10059-.32246-5.40743-.32246z"/><path d="m98.777894 108.97631q.694531-.57051 2.033986-.57051 1.36426 0 2.08359.57051.71934.59531.71934 1.68672 0 1.0914-.71934 1.68671-.71933.59532-2.08359.59532-1.339455 0-2.033986-.59532-.719336-.59531-.719336-1.68671 0-1.09141.719336-1.68672z"/><path d="m102.10172 114.01166q.71934-.57051 2.1084-.57051 1.41387 0 2.15801.57051.74414.59531.74414 1.71152 0 1.09141-.74414 1.66192-.74414.59531-2.15801.59531-1.38906 0-2.1084-.59531-.74414-.57051-.74414-1.66192 0-1.11621.74414-1.71152z"/><path d="m95.305238 114.01166q.744141-.57051 2.133203-.57051 1.389063 0 2.133203.57051.744136.59531.744136 1.71152 0 1.09141-.744136 1.66192-.74414.59531-2.133203.59531-1.389062 0-2.133203-.59531-.744141-.57051-.744141-1.66192 0-1.11621.744141-1.71152z"/><path d="m98.777894 119.14623q.694531-.57051 2.033986-.57051 1.36426 0 2.08359.57051.71934.59531.71934 1.71152 0 1.09141-.71934 1.66192-.71933.59531-2.08359.59531-1.339455 0-2.033986-.59531-.719336-.57051-.719336-1.66192 0-1.11621.719336-1.71152z"/><path d="m86.449965 134.74838v1.68672h28.798245v-1.68672z"/></g><path d="m100.83668 95.408143h3.42305v3.373437h5.13457v-3.373437h5.90352v8.855277l-3.99356 4.61367q1.28984 1.63711.0496 3.44785-.19844.32246-.19844.59531 0 .32246.19844.62012.5209.76894.49609 2.18281 0 1.38906-.52089 2.18281-.17364.24805-.17364.5209 0 .34727.22325.64492 1.16582 1.76114-.0496 3.47266-.17364.29766-.17364.57051t.17364.57051q.5457.81855.5457 2.28203 0 1.43867-.59531 2.1332l4.01836 2.00918v2.1332h1.66191v7.19336h-32.270898v-7.16855h1.686719v-2.13321l3.993554-2.03398q-.595312-.69453-.595312-2.1332t.545703-2.25723q.198437-.27285.198437-.57051 0-.24804-.198437-.5705-1.21543-1.73633-.02481-3.47266.223242-.39688.223242-.64492 0-.24805-.173632-.54571-.545703-.79375-.570508-2.18281 0-1.41387.520898-2.18281.223242-.29766.223242-.62012 0-.27285-.198437-.57051-1.265039-1.81074.04961-3.47265l-3.993554-4.58887v-8.855273h5.903515v3.348633l5.109766.02481v-3.373438zm-12.699997 6.300387v2.15801q3.175-.14883 6.325196-.29766 3.175-.17363 6.374801-.17363 3.12539 0 6.30039.19844 3.19981.19844 6.39961.27285 0-.81855 0-1.0666 0-.27285 0-1.09141zm1.066602 29.21992q-1.066602.0992-1.066602 1.06661 0 1.0666 1.066602 1.0666l11.633395-.39688 11.6334.39688q1.0666 0 1.0666-1.0666 0-.96739-1.0666-1.06661-2.90215-.17363-5.8291-.29765-2.90215-.14883-5.8043-.14883-2.902145 0-5.829098.14883-2.902149.12402-5.804297.29765zm12.898435-6.72207q.71934-.5705 2.1084-.5705 1.41387 0 2.15801.5705.74414.59532.74414 1.78594.0248 1.19063-.74414 1.5627-.79375.42168-2.15801.42168t-2.1084-.42168q-.79375-.37207-.76894-1.5627.0248-1.19062.76894-1.78594zm-6.796482 0q.744141-.5705 2.133203-.5705 1.389063 0 2.133203.5705.744136.59532.669726 1.78594-.0496 1.19063-.669726 1.5627-.644922.42168-2.182812.39687-1.513086-.0496-2.083594-.39687-.595312-.32246-.669727-1.53789-.07441-1.21543.669727-1.81075zm5.531442-17.88417q-2.356442 0-5.457028.32246-3.100586.29765-3.894336.5457-.818554.29766-.74414.94258.07441.64492.74414.84336.669727.22324 2.654102-.0496 1.984375-.27285 2.455664.0496.446484.34726.446484 1.63711 0 1.26504-.446484 1.73632-.471289.47129-2.554883.12403-2.058789-.34727-2.554883-.12403-.496094.22325-.396875.81856.09922.57051.396875.84336.297656.29765.868164-.12403.595313-.42167.892969.12403.297656.59531.297656 1.71152t-.297656 1.66192q-.297656.5705-.892969.14882-.570508-.44648-.868164-.14882-.322461.32246-.347265.96738 0 .62012.347265.79375.322461.22324 2.480469-.0992 2.158008-.34727 2.629297.0992.446484.47129.446484 1.66191 0 1.19063-.446484 1.71153-.471289.5457-2.654102.17363-2.158008-.39688-2.455664-.17363-.967383.79375 0 1.68671.297656.29766.868164-.12402.595313-.42168.892969.12402.297656.57051.297656 1.68672t-.297656 1.66192q-.297656.59531-.892969.17363-.570508-.44648-.868164-.17363-.297656.29765-.471289.89297-.173633.5705.471289.79375.496094.19843 3.274219-.0744 2.778125-.27285 6.077145-.27285 3.27422 0 6.12676.22324 2.85254.19844 3.22461.12403.5209-.0744.39688-.71934-.0992-.66973-.39688-.96738-.32246-.27285-.91777.17363-.57051.42168-.84336-.17363-.29766-.54571-.29766-1.66192t.29766-1.68672q.27285-.5457.86816-.12402t.89297.12402q.91777-.91777 0-1.68671-.29766-.22325-2.55488.12402-2.25723.34726-2.57969-.12402-.32246-.44649-.37207-1.5627-.0248-1.14102.37207-1.81074.39688-.66973 2.57969-.24805 2.20761.42168 2.55488.24805.29766-.14883.29766-.79375t-.29766-.96738q-.32246-.29766-.91777.14882-.57051.42168-.84336-.14882-.29766-.54571-.29766-1.66192t.29766-1.71152q.27285-.5457.84336-.12403.59531.42168.91777.12403.29766-.27285.32246-.84336.0496-.59531-.32246-.81856-.42168-.22324-2.57969.12403-2.158.34726-2.55488-.12403-.39687-.47128-.39687-1.68671t.39687-1.68672q.39688-.44649 2.43086-.0496 2.03398.39687 2.70371.0496.64492-.32246.69453-.89297.0744-.59531-.69453-.89297-.81855-.24805-3.94394-.5457-3.10059-.32246-5.40743-.32246zm-2.058786 2.6541q.694531-.57051 2.033986-.57051 1.36426 0 2.08359.57051.71934.59531.71934 1.68672 0 1.0914-.71934 1.68671-.71933.59532-2.08359.59532-1.339455 0-2.033986-.59532-.719336-.59531-.719336-1.68671 0-1.09141.719336-1.68672zm3.323826 5.03535q.71934-.57051 2.1084-.57051 1.41387 0 2.15801.57051.74414.59531.74414 1.71152 0 1.09141-.74414 1.66192-.74414.59531-2.15801.59531-1.38906 0-2.1084-.59531-.74414-.57051-.74414-1.66192 0-1.11621.74414-1.71152zm-6.796482 0q.744141-.57051 2.133203-.57051 1.389063 0 2.133203.57051.744136.59531.744136 1.71152 0 1.09141-.744136 1.66192-.74414.59531-2.133203.59531-1.389062 0-2.133203-.59531-.744141-.57051-.744141-1.66192 0-1.11621.744141-1.71152zm3.472656 5.13457q.694531-.57051 2.033986-.57051 1.36426 0 2.08359.57051.71934.59531.71934 1.71152 0 1.09141-.71934 1.66192-.71933.59531-2.08359.59531-1.339455 0-2.033986-.59531-.719336-.57051-.719336-1.66192 0-1.11621.719336-1.71152zm-12.327929 15.60215v1.68672h28.798245v-1.68672z" stroke-width=".264583"/></g></svg>