<svg height="50.775192mm" viewBox="0 0 50.800007 50.775192" width="50.800007mm" xmlns="http://www.w3.org/2000/svg"><g transform="translate(-83.855812 -92.812086)"><g fill="#fff"><path d="m93.802782 122.50293q-.198438.24805-.520899.47129-.694531.5209-.992187-.0992-.173633-.29766.0248-.91777.347266-.29766.471289-.39688.768946-.91777 1.265039-1.6123.248047-.0496.372071-.0248.868164.14883.446484 1.0666-.223242.44649-.545703.81856-.297656.34726-.520898.69453z"/><path d="m101.14497 111.48965q.49609-1.53789 1.88516-1.66192.94257-.0744 1.6371-.0744.69454 0 1.48829-.24805-.79375 2.23243-1.81075 2.90215-.5457.32246-1.51308.39688-.71934.0496-1.11621-.0992-.39688-.14883-.57051-1.21543z"/><path d="m99.50786 124.68574q1.19062-.84336 1.68672-1.76113.5209-.94258 1.41387-1.78594.0248-.29765.0744-.66972t.0992-.79375q.17363-.17364.27285-.19844.71934-.22324.84336.64492 0 .24805-.0496.49609-.0248.22325.0248.39688.14883.17363 1.11622.37207 3.57187.12402 6.57324-2.67891 0-.0248.14883-.22324.17363-.19844.19843-.24805.74414-1.11621 1.19063-4.63847.0496-.0992.27285-.22324.64492-.22325.81855.64492-.22324 3.1998-.96738 4.56406-.39687.71934-.89297 1.26504.42168-.22324.84336-.42168t.81856-.44649q1.26504-.76894 1.81074-2.97656.27285-.47129.79375-.42168.5457.0992.42168.81856-.57051 3.10058-2.43086 4.01836-.59531.29765-1.21543.5457-.59531.22324-1.16582.44648 1.46348-.0744 3.175-.47129.32246 0 .44648.27286.22325.49609-.47129.89297-3.49746.96738-4.44003.86816-.66973 2.1084-3.27422 4.63848-1.43867 1.38906-2.97657 2.70371-1.53789 1.28984-3.02617 2.57968-3.299021 2.90215-4.018357 5.65547 5.680277.0248 9.425777.0248 3.77032 0 6.92051 0 3.1502 0 6.35 0 3.19981-.0248 7.78867-.0248.34727 0 .27286-1.24023-.0496-1.24024-.17364-2.30684-1.33945.14883-2.53008-1.38906-1.19062-1.5627-1.0914-3.57188.0248-5.20898-.66973-9.37617-.66972-4.19199-2.6789-7.26777-3.27422-4.96094-10.39317-8.43359-.0992.62011-.22324 1.14101-.19844.79375-.74414.5209-.5209-.17363-.5457-.66973.0992-.44648.12402-.66972-.0248-.0744-.0496-.17364-.0248-.12402-.0248-.22324-.24805-1.28984-1.41387-2.92695-.19844 1.0418-.39688 1.41387-.19843.37207-.34726.64492-.27285.39687-.4961.76894-.19843.37207-.47129.81856-.27285-.29766-.59531-.69453-.29765-.42168-.5457-.71934-.22324-.22324-.44649-.42168-.19843-.22324-.79375-.37207.5209 1.93477-.27285 2.6541-.39687.39688-.86816 1.0666-.47129.64493-1.0666 1.19063-.34727.37207-.86817.86816-.49609.47129-.843356 1.24024-.471289 1.43867-1.860352 2.90215-1.364257 1.43867-3.001367 2.90214-3.571875 3.175-4.043164 4.61368-.644922 1.73632.07441 3.37343.669727 1.46348 1.835547 1.90996.694531.27286 1.711524-1.04179 1.091406-1.31465 1.438671-1.21543.644922.17363.42168.91777-.124023.42168-.79375 1.21543-.694531.76895-.719336 1.01699-.124023.29766.496094.47129.768945.19844 2.877344-1.86035.248047-.24805.520898-.44648.297656-.22325.595313-.4961z"/><path d="m100.32641 125.87637q-.347261.37207-.570504.5457-.198437.14883-.37207.29766-.223242.19843-1.5875 1.63711-.570508.59531-1.364258.79375-.570507.14882-1.463476-.12403-3.100586-.81855-4.886524-3.27422-.719335-.91777-1.016992-2.20761-.272851-1.31465.297657-3.32383.545703-2.05879 3.91914-4.63848 3.695898-2.80293 4.365625-4.48965.545703-.96738 1.240234-2.1332.694532-1.16582 1.661918-2.25723.59531-.42168 1.11621-.96738.5457-.57051 1.0914-1.16582v-3.05098q1.38907.27286 1.98438.79375.29765.32247.66973.59532.37207.27285.66972.59531.62012-1.11621.79375-1.86035.0248-.17363.14883-.69453.14883-.5209.29766-1.711527.37207-.07441.64492.198438 1.16582 1.265039 2.18281 2.877339 4.53926 1.81075 8.28477 4.29122 3.77031 2.48046 5.75468 5.15937 5.70508 7.73906 5.70508 22.72109 0 3.1502-.32246 5.75469h-33.858398q-.32246-3.22461 3.423047-6.84609 1.686721-1.63711 3.497461-3.175 1.83555-1.53789 3.57188-3.12539 3.2246-2.97657 3.57187-4.7625-.12402-.29766-.47129-.39688-.86816.5209-1.73633.66973-.86816.14883-1.71152.19844-.5457.0248-1.09141.0496-.5209 0-1.24023-.24805-.96738 1.0914-1.66192 1.88515-.66972.76895-1.53789 1.38907z"/></g><path d="m93.802782 122.50293q-.198438.24805-.520899.47129-.694531.5209-.992187-.0992-.173633-.29766.0248-.91777.347266-.29766.471289-.39688.768946-.91777 1.265039-1.6123.248047-.0496.372071-.0248.868164.14883.446484 1.0666-.223242.44649-.545703.81856-.297656.34726-.520898.69453zm7.342188-11.01328q.49609-1.53789 1.88516-1.66192.94257-.0744 1.6371-.0744.69454 0 1.48829-.24805-.79375 2.23243-1.81075 2.90215-.5457.32246-1.51308.39688-.71934.0496-1.11621-.0992-.39688-.14883-.57051-1.21543zm-1.63711 13.19609q1.19062-.84336 1.68672-1.76113.5209-.94258 1.41387-1.78594.0248-.29765.0744-.66972t.0992-.79375q.17363-.17364.27285-.19844.71934-.22324.84336.64492 0 .24805-.0496.49609-.0248.22325.0248.39688.14883.17363 1.11622.37207 3.57187.12402 6.57324-2.67891 0-.0248.14883-.22324.17363-.19844.19843-.24805.74414-1.11621 1.19063-4.63847.0496-.0992.27285-.22324.64492-.22325.81855.64492-.22324 3.1998-.96738 4.56406-.39687.71934-.89297 1.26504.42168-.22324.84336-.42168t.81856-.44649q1.26504-.76894 1.81074-2.97656.27285-.47129.79375-.42168.5457.0992.42168.81856-.57051 3.10058-2.43086 4.01836-.59531.29765-1.21543.5457-.59531.22324-1.16582.44648 1.46348-.0744 3.175-.47129.32246 0 .44648.27286.22325.49609-.47129.89297-3.49746.96738-4.44003.86816-.66973 2.1084-3.27422 4.63848-1.43867 1.38906-2.97657 2.70371-1.53789 1.28984-3.02617 2.57968-3.299021 2.90215-4.018357 5.65547 5.680277.0248 9.425777.0248 3.77032 0 6.92051 0 3.1502 0 6.35 0 3.19981-.0248 7.78867-.0248.34727 0 .27286-1.24023-.0496-1.24024-.17364-2.30684-1.33945.14883-2.53008-1.38906-1.19062-1.5627-1.0914-3.57188.0248-5.20898-.66973-9.37617-.66972-4.19199-2.6789-7.26777-3.27422-4.96094-10.39317-8.43359-.0992.62011-.22324 1.14101-.19844.79375-.74414.5209-.5209-.17363-.5457-.66973.0992-.44648.12402-.66972-.0248-.0744-.0496-.17364-.0248-.12402-.0248-.22324-.24805-1.28984-1.41387-2.92695-.19844 1.0418-.39688 1.41387-.19843.37207-.34726.64492-.27285.39687-.4961.76894-.19843.37207-.47129.81856-.27285-.29766-.59531-.69453-.29765-.42168-.5457-.71934-.22324-.22324-.44649-.42168-.19843-.22324-.79375-.37207.5209 1.93477-.27285 2.6541-.39687.39688-.86816 1.0666-.47129.64493-1.0666 1.19063-.34727.37207-.86817.86816-.49609.47129-.843356 1.24024-.471289 1.43867-1.860352 2.90215-1.364257 1.43867-3.001367 2.90214-3.571875 3.175-4.043164 4.61368-.644922 1.73632.07441 3.37343.669727 1.46348 1.835547 1.90996.694531.27286 1.711524-1.04179 1.091406-1.31465 1.438671-1.21543.644922.17363.42168.91777-.124023.42168-.79375 1.21543-.694531.76895-.719336 1.01699-.124023.29766.496094.47129.768945.19844 2.877344-1.86035.248047-.24805.520898-.44648.297656-.22325.595313-.4961zm.81855 1.19063q-.347261.37207-.570504.5457-.198437.14883-.37207.29766-.223242.19843-1.5875 1.63711-.570508.59531-1.364258.79375-.570507.14882-1.463476-.12403-3.100586-.81855-4.886524-3.27422-.719335-.91777-1.016992-2.20761-.272851-1.31465.297657-3.32383.545703-2.05879 3.91914-4.63848 3.695898-2.80293 4.365625-4.48965.545703-.96738 1.240234-2.1332.694532-1.16582 1.661918-2.25723.59531-.42168 1.11621-.96738.5457-.57051 1.0914-1.16582v-3.05098q1.38907.27286 1.98438.79375.29765.32247.66973.59532.37207.27285.66972.59531.62012-1.11621.79375-1.86035.0248-.17363.14883-.69453.14883-.5209.29766-1.711527.37207-.07441.64492.198438 1.16582 1.265039 2.18281 2.877339 4.53926 1.81075 8.28477 4.29122 3.77031 2.48046 5.75468 5.15937 5.70508 7.73906 5.70508 22.72109 0 3.1502-.32246 5.75469h-33.858398q-.32246-3.22461 3.423047-6.84609 1.686721-1.63711 3.497461-3.175 1.83555-1.53789 3.57188-3.12539 3.2246-2.97657 3.57187-4.7625-.12402-.29766-.47129-.39688-.86816.5209-1.73633.66973-.86816.14883-1.71152.19844-.5457.0248-1.09141.0496-.5209 0-1.24023-.24805-.96738 1.0914-1.66192 1.88515-.66972.76895-1.53789 1.38907z" stroke-width=".264583"/></g></svg>