<svg height="50.775188mm" viewBox="0 0 50.799999 50.775188" width="50.799999mm" xmlns="http://www.w3.org/2000/svg"><g transform="translate(-76.839989 -108.71463)"><g fill="#fff"><path d="m102.23984 112.1125h3.42305v3.37344h5.13457v-3.37344h5.90352v8.85528l-3.99356 4.61367q1.28985 1.63711.0496 3.44785-.19844.32246-.19844.59531 0 .32246.19844.62012.5209.76895.49609 2.18281 0 1.38906-.52089 2.18281-.17364.24805-.17364.5209 0 .34727.22325.64493 1.16582 1.76113-.0496 3.47265-.17364.29766-.17364.57051t.17364.57051q.5457.81855.5457 2.28203 0 1.43867-.59531 2.1332l4.01836 2.00918v2.1332h1.66191v7.19336h-32.270898v-7.16855h1.686719v-2.1332l3.993554-2.03399q-.595312-.69453-.595312-2.1332t.545703-2.25723q.198438-.27285.198438-.57051 0-.24804-.198438-.5705-1.21543-1.73633-.02481-3.47266.223243-.39688.223243-.64492 0-.24805-.173633-.54571-.545703-.79375-.570508-2.18281 0-1.41386.520898-2.18281.223243-.29766.223243-.62012 0-.27285-.198438-.5705-1.265039-1.81075.04961-3.47266l-3.993554-4.58887v-8.85527h5.903515v3.34863l5.109766.0248v-3.37344z"/><path d="m93.086914 124.36602q4.241601-.66973 9.152926-.66973 4.98575 0 9.22735.66973l1.43867-1.81074q-5.06016-.89297-10.66602-.89297-5.655465 0-10.690817.89297z"/><path d="m87.853125 150.65899v3.79511h28.748635v-3.79511z"/><path d="m102.23984 145.59883q-5.159372 0-9.351364.34727l-3.348632 1.78593v1.24024h25.399996v-1.24024q-.84336-.44648-1.68672-.89296-.84335-.44649-1.66191-.89297-4.46484-.34727-9.35137-.34727z"/><path d="m114.93984 113.79922h-2.55488v3.47266h-8.4832v-3.44785h-3.34864v3.44785h-8.458394v-3.47266h-2.554882q0 1.5875 0 3.175 0 1.5627 0 3.12539 3.175-.19843 6.325195-.37207 3.175-.17363 6.374801-.17363 6.02754 0 12.7.5457z"/><path d="m106.72949 125.68067q-.81855.59531-.81855 1.68672 0 1.0914.81855 1.68672.76895.59531 2.28203.59531 1.51309 0 2.30684-.59531.79375-.59532.79375-1.68672 0-1.09141-.79375-1.68672-.79375-.57051-2.30684-.57051-1.51308 0-2.28203.57051z"/><path d="m100.05703 125.68067q-.768944.59531-.768944 1.68672 0 1.0914.768944 1.68672.74414.59531 2.15801.59531 1.43867 0 2.20762-.59531.74414-.59532.74414-1.68672 0-1.09141-.74414-1.68672-.76895-.57051-2.20762-.57051-1.41387 0-2.15801.57051z"/><path d="m93.161328 125.68067q-.818555.59531-.818555 1.68672 0 1.0914.818555 1.68672.768945.59531 2.257226.59531 1.513086 0 2.331641-.59531.79375-.59532.79375-1.68672 0-1.09141-.79375-1.68672-.818555-.57051-2.331641-.57051-1.488281 0-2.257226.57051z"/><path d="m109.83008 130.71602q-.29766.59531-.29766 1.71152 0 1.09141.29766 1.66192.27285.59531.86816.59531t.89297-.59531q.29766-.57051.29766-1.66192 0-1.11621-.29766-1.71152-.29766-.5457-.89297-.5457t-.86816.5457z"/><path d="m103.48008 130.71602q-.74414.59531-.74414 1.71152 0 1.09141.74414 1.66192.74414.59531 2.1332.59531 1.41387 0 2.15801-.59531.74414-.57051.74414-1.66192 0-1.11621-.74414-1.71152-.74414-.57051-2.15801-.57051-1.38906 0-2.1332.57051z"/><path d="m96.708398 130.71602q-.74414.59531-.74414 1.71152 0 1.09141.74414 1.66192.719336.59531 2.133203.59531 1.413869 0 2.158009-.59531.71933-.57051.71933-1.66192 0-1.11621-.71933-1.71152-.74414-.57051-2.158009-.57051-1.413867 0-2.133203.57051z"/><path d="m92.888476 130.71602q-.297656.59531-.297656 1.71152 0 1.09141.297656 1.66192.297657.59531.868164.59531.595313 0 .892969-.59531.297656-.57051.297656-1.66192 0-1.11621-.297656-1.71152-.297656-.5457-.892969-.5457-.570507 0-.868164.5457z"/><path d="m109.83008 140.91075q-.29766.5705-.29766 1.68671 0 1.11622.29766 1.68672.27285.57051.86816.57051t.89297-.57051q.29766-.5705.29766-1.68672 0-1.11621-.29766-1.68671-.29766-.54571-.89297-.54571t-.86816.54571z"/><path d="m92.888476 140.91075q-.297656.5705-.297656 1.68671 0 1.11622.297656 1.68672.297657.57051.868164.57051.595313 0 .892969-.57051.297656-.5705.297656-1.68672 0-1.11621-.297656-1.68671-.297656-.54571-.892969-.54571-.570507 0-.868164.54571z"/><path d="m96.708398 140.91075q-.74414.59531-.74414 1.78593 0 1.19063.74414 1.5875.694531.39688 2.182813.39688 1.513089 0 2.108399-.39688.57051-.39687.64492-1.5875.0744-1.19062-.64492-1.78593-.74414-.57051-2.158009-.57051-1.413867 0-2.133203.57051z"/><path d="m103.48008 140.91075q-.74414.59531-.74414 1.78593 0 1.19063.74414 1.5875.71933.39688 2.1332.39688 1.43867 0 2.15801-.39688.69453-.39687.71933-1.5875.0248-1.19062-.71933-1.78593-.74414-.57051-2.15801-.57051-1.38906 0-2.1332.57051z"/><path d="m106.72949 135.85059q-.81855.59531-.81855 1.71152 0 1.09141.81855 1.66192.76895.59531 2.28203.59531 1.51309 0 2.30684-.59531.79375-.57051.79375-1.66192 0-1.11621-.79375-1.71152-.79375-.57051-2.30684-.57051-1.51308 0-2.28203.57051z"/><path d="m100.05703 135.85059q-.768944.59531-.768944 1.71152 0 1.09141.768944 1.66192.74414.59531 2.15801.59531 1.43867 0 2.20762-.59531.74414-.57051.74414-1.66192 0-1.11621-.74414-1.71152-.76895-.57051-2.20762-.57051-1.41387 0-2.15801.57051z"/><path d="m93.161328 135.85059q-.818555.59531-.818555 1.71152 0 1.09141.818555 1.66192.768945.59531 2.257226.59531 1.513086 0 2.331641-.59531.79375-.57051.79375-1.66192 0-1.11621-.79375-1.71152-.818555-.57051-2.331641-.57051-1.488281 0-2.257226.57051z"/></g><path d="m102.23984 112.1125h3.42305v3.37344h5.13457v-3.37344h5.90352v8.85528l-3.99356 4.61367q1.28985 1.63711.0496 3.44785-.19844.32246-.19844.59531 0 .32246.19844.62012.5209.76895.49609 2.18281 0 1.38906-.52089 2.18281-.17364.24805-.17364.5209 0 .34727.22325.64493 1.16582 1.76113-.0496 3.47265-.17364.29766-.17364.57051t.17364.57051q.5457.81855.5457 2.28203 0 1.43867-.59531 2.1332l4.01836 2.00918v2.1332h1.66191v7.19336h-32.270898v-7.16855h1.686719v-2.1332l3.993554-2.03399q-.595312-.69453-.595312-2.1332t.545703-2.25723q.198438-.27285.198438-.57051 0-.24804-.198438-.5705-1.21543-1.73633-.02481-3.47266.223243-.39688.223243-.64492 0-.24805-.173633-.54571-.545703-.79375-.570508-2.18281 0-1.41386.520898-2.18281.223243-.29766.223243-.62012 0-.27285-.198438-.5705-1.265039-1.81075.04961-3.47266l-3.993554-4.58887v-8.85527h5.903515v3.34863l5.109766.0248v-3.37344zm-9.152926 12.25352q4.241601-.66973 9.152926-.66973 4.98575 0 9.22735.66973l1.43867-1.81074q-5.06016-.89297-10.66602-.89297-5.655465 0-10.690817.89297zm-5.233789 26.29297v3.79511h28.748635v-3.79511zm14.386715-5.06016q-5.159372 0-9.351364.34727l-3.348632 1.78593v1.24024h25.399996v-1.24024q-.84336-.44648-1.68672-.89296-.84335-.44649-1.66191-.89297-4.46484-.34727-9.35137-.34727zm12.7-31.79961h-2.55488v3.47266h-8.4832v-3.44785h-3.34864v3.44785h-8.458394v-3.47266h-2.554882q0 1.5875 0 3.175 0 1.5627 0 3.12539 3.175-.19843 6.325195-.37207 3.175-.17363 6.374801-.17363 6.02754 0 12.7.5457zm-8.21035 11.88145q-.81855.59531-.81855 1.68672 0 1.0914.81855 1.68672.76895.59531 2.28203.59531 1.51309 0 2.30684-.59531.79375-.59532.79375-1.68672 0-1.09141-.79375-1.68672-.79375-.57051-2.30684-.57051-1.51308 0-2.28203.57051zm-6.67246 0q-.768944.59531-.768944 1.68672 0 1.0914.768944 1.68672.74414.59531 2.15801.59531 1.43867 0 2.20762-.59531.74414-.59532.74414-1.68672 0-1.09141-.74414-1.68672-.76895-.57051-2.20762-.57051-1.41387 0-2.15801.57051zm-6.895702 0q-.818555.59531-.818555 1.68672 0 1.0914.818555 1.68672.768945.59531 2.257226.59531 1.513086 0 2.331641-.59531.79375-.59532.79375-1.68672 0-1.09141-.79375-1.68672-.818555-.57051-2.331641-.57051-1.488281 0-2.257226.57051zm16.668752 5.03535q-.29766.59531-.29766 1.71152 0 1.09141.29766 1.66192.27285.59531.86816.59531t.89297-.59531q.29766-.57051.29766-1.66192 0-1.11621-.29766-1.71152-.29766-.5457-.89297-.5457t-.86816.5457zm-6.35 0q-.74414.59531-.74414 1.71152 0 1.09141.74414 1.66192.74414.59531 2.1332.59531 1.41387 0 2.15801-.59531.74414-.57051.74414-1.66192 0-1.11621-.74414-1.71152-.74414-.57051-2.15801-.57051-1.38906 0-2.1332.57051zm-6.771682 0q-.74414.59531-.74414 1.71152 0 1.09141.74414 1.66192.719336.59531 2.133203.59531 1.413869 0 2.158009-.59531.71933-.57051.71933-1.66192 0-1.11621-.71933-1.71152-.74414-.57051-2.158009-.57051-1.413867 0-2.133203.57051zm-3.819922 0q-.297656.59531-.297656 1.71152 0 1.09141.297656 1.66192.297657.59531.868164.59531.595313 0 .892969-.59531.297656-.57051.297656-1.66192 0-1.11621-.297656-1.71152-.297656-.5457-.892969-.5457-.570507 0-.868164.5457zm16.941604 10.19473q-.29766.5705-.29766 1.68671 0 1.11622.29766 1.68672.27285.57051.86816.57051t.89297-.57051q.29766-.5705.29766-1.68672 0-1.11621-.29766-1.68671-.29766-.54571-.89297-.54571t-.86816.54571zm-16.941604 0q-.297656.5705-.297656 1.68671 0 1.11622.297656 1.68672.297657.57051.868164.57051.595313 0 .892969-.57051.297656-.5705.297656-1.68672 0-1.11621-.297656-1.68671-.297656-.54571-.892969-.54571-.570507 0-.868164.54571zm3.819922 0q-.74414.59531-.74414 1.78593 0 1.19063.74414 1.5875.694531.39688 2.182813.39688 1.513089 0 2.108399-.39688.57051-.39687.64492-1.5875.0744-1.19062-.64492-1.78593-.74414-.57051-2.158009-.57051-1.413867 0-2.133203.57051zm6.771682 0q-.74414.59531-.74414 1.78593 0 1.19063.74414 1.5875.71933.39688 2.1332.39688 1.43867 0 2.15801-.39688.69453-.39687.71933-1.5875.0248-1.19062-.71933-1.78593-.74414-.57051-2.15801-.57051-1.38906 0-2.1332.57051zm3.24941-5.06016q-.81855.59531-.81855 1.71152 0 1.09141.81855 1.66192.76895.59531 2.28203.59531 1.51309 0 2.30684-.59531.79375-.57051.79375-1.66192 0-1.11621-.79375-1.71152-.79375-.57051-2.30684-.57051-1.51308 0-2.28203.57051zm-6.67246 0q-.768944.59531-.768944 1.71152 0 1.09141.768944 1.66192.74414.59531 2.15801.59531 1.43867 0 2.20762-.59531.74414-.57051.74414-1.66192 0-1.11621-.74414-1.71152-.76895-.57051-2.20762-.57051-1.41387 0-2.15801.57051zm-6.895702 0q-.818555.59531-.818555 1.71152 0 1.09141.818555 1.66192.768945.59531 2.257226.59531 1.513086 0 2.331641-.59531.79375-.57051.79375-1.66192 0-1.11621-.79375-1.71152-.818555-.57051-2.331641-.57051-1.488281 0-2.257226.57051z" stroke-width=".264583"/></g></svg>