<svg clip-rule="evenodd" fill-rule="evenodd" height="50mm" image-rendering="optimizeQuality" shape-rendering="geometricPrecision" text-rendering="geometricPrecision" viewBox="0 0 50 50" width="50mm" xmlns="http://www.w3.org/2000/svg" xmlns:xlink="http://www.w3.org/1999/xlink"><linearGradient id="a"><stop offset="0" stop-color="#f5f5f5"/><stop offset="1" stop-color="#7e7e7e"/></linearGradient><linearGradient id="b" gradientUnits="userSpaceOnUse" x1="1605.8" x2="1632.4" xlink:href="#a" y1="1101.5" y2="1101.5"/><linearGradient id="c" gradientUnits="userSpaceOnUse" x1="1617" x2="1632.3" xlink:href="#d" y1="1101.5" y2="1101.5"/><linearGradient id="d"><stop offset="0"/><stop offset="1" stop-opacity="0"/></linearGradient><linearGradient id="e" gradientUnits="userSpaceOnUse" x1="1612.2" x2="1621.6" xlink:href="#f" y1="1108.7" y2="1108.7"/><linearGradient id="f"><stop offset="0" stop-color="#fff"/><stop offset="1" stop-color="#fff" stop-opacity="0"/></linearGradient><linearGradient id="g" gradientUnits="userSpaceOnUse" x1="1606.9" x2="1619" xlink:href="#f" y1="1095.6" y2="1095.6"/><linearGradient id="h" gradientUnits="userSpaceOnUse" x1="1621.7" x2="1611.7" xlink:href="#d" y1="1101.1" y2="1101.9"/><linearGradient id="i" gradientUnits="userSpaceOnUse" x1="1997.05" x2="2023.9016" xlink:href="#a" y1="993.12" y2="993.12"/><linearGradient id="j" gradientUnits="userSpaceOnUse" x1="1997.054" x2="2023.854" xlink:href="#a" y1="993.118" y2="993.118"/><linearGradient id="k" gradientUnits="userSpaceOnUse" x1="1999.95488" x2="2020.883158" xlink:href="#f" y1="990.432222" y2="990.432222"/><g transform="translate(-1596.6 -1076.2)"><path d="m1621.9 1089s-1.8958-2.2464-4.818-2.4819c-.0003-.0001 0 0 0 0v.0006c0 .0003.1169 3.0441.1169 3.0441l-11.293 11.584c2.4462 4.5921 5.9158 3.8848 5.9158 3.8848 2.7286-2.3832 5.1239-1.973 8.4987-3.3845 1.7558 2.9383-11.52 8.8479-8.5691 14.758h20.599c-5.6642-8.1509 8.015-21.54-10.45-27.405z" fill="url(#b)" stroke="url(#b)" stroke-linejoin="round" stroke-width=".2"/><path d="m1617.1 1086.5c1.5885 1.1878 3.1116 2.4135 4.0634 3.9698 18.465 5.8646 1.1512 17.766 6.8153 25.917h4.3891c-5.6643-8.151 8.0147-21.541-10.45-27.405 0 0-1.896-2.2465-4.8182-2.482z" fill="url(#c)" opacity=".1"/><path d="m1621.3 1101.8c1.0409 3.5916-10.331 8.2497-8.9701 13.798 0-5.3518 11.25-9.953 8.9701-13.798z" fill="url(#e)"/><path d="m1609.4 1103.8s-1.0546-.1754-2.5213-2.5256l11.028-11.338-.058-2.4949c.2685.872.3677 1.7055 1.1513 2.6944l-11.459 11.082c.3876 1.0157 1.2033 1.7455 1.8589 2.5821z" fill="url(#g)"/><path d="m1611.8 1105c2.2453-2.1271 5.6592-2.2676 8.4987-3.3845.2521.1169-.027 1.1827.075 1.0732.7939-.8552 2.6937-2.5377 1.3726-5.7978-.1843 5.6429-11.049 5.1937-9.9468 8.1091z" fill="url(#h)" opacity=".1"/></g><g transform="translate(-1985.4 -950.6)"><path d="m2010.4 989.15s-8.5779.048-10.983 1.6192c-1.6227 1.0602-2.0055 2.0639-1.7847 4.7362h25.536c.2207-2.6723-.1622-3.6761-1.7849-4.7362-2.4047-1.5711-10.983-1.6192-10.983-1.6192z" style="clip-rule:evenodd;fill-rule:evenodd;image-rendering:optimizeQuality;shape-rendering:geometricPrecision;stroke-linejoin:round;stroke-width:.2;fill:url(#i);stroke:url(#j)"/><path d="m2009 989.73c-3.2334.0337-5.7858.38114-7.7267.94774 6.1468-.43777 12.256-.49689 18.309 0-2.2181-.64754-5.2353-1.0087-9.1545-.94258-.4899-.008-.9659-.01-1.4278-.005z" fill="url(#k)"/></g><path d="m20.482 10.318v.000517c0 .0003.11679 3.0443.11679 3.0443l-11.293 11.584c2.4462 4.5921 5.9154 3.885 5.9154 3.885 2.7286-2.3832 5.1239-1.9733 8.4987-3.3848 1.7086 2.8593-10.815 8.5327-8.77 14.282-.36538.13174-.68404.27747-.93328.44028-1.6227 1.0602-2.0052 2.0638-1.7844 4.7361h25.536c.2207-2.6723-.1622-3.676-1.7849-4.7361-.11741-.07671-.25381-.14846-.39894-.21808-5.2172-8.1724 7.9908-21.346-10.284-27.151h-.000516s-1.8956-2.2465-4.8178-2.482z" fill="none" stroke="#646464" stroke-linejoin="round" stroke-width=".3"/></svg>