<svg clip-rule="evenodd" fill-rule="evenodd" height="50mm" image-rendering="optimizeQuality" shape-rendering="geometricPrecision" text-rendering="geometricPrecision" viewBox="0 0 50 50" width="50mm" xmlns="http://www.w3.org/2000/svg" xmlns:xlink="http://www.w3.org/1999/xlink"><linearGradient id="a"><stop offset="0" stop-color="#f5f5f5"/><stop offset="1" stop-color="#7e7e7e"/></linearGradient><linearGradient id="b" gradientUnits="userSpaceOnUse" x1="1765.8" x2="1790.9" xlink:href="#a" y1="1045.8" y2="1045.8"/><linearGradient id="c" gradientUnits="userSpaceOnUse" x1="1771.5" x2="1785.2" xlink:href="#a" y1="1028.2" y2="1028.2"/><linearGradient id="d" gradientUnits="userSpaceOnUse" x1="1778.2" x2="1790.7" xlink:href="#e" y1="1045.8" y2="1045.8"/><linearGradient id="e"><stop offset="0"/><stop offset="1" stop-opacity="0"/></linearGradient><linearGradient id="f" gradientUnits="userSpaceOnUse" x1="6553.9" x2="6615.8" xlink:href="#a" y1="3964.9" y2="3964.9"/><linearGradient id="g" gradientUnits="userSpaceOnUse" x1="1776.1" x2="1785.1" xlink:href="#e" y1="1028.2" y2="1028.2"/><linearGradient id="h" gradientUnits="userSpaceOnUse" x1="1772.4" x2="1776.4" xlink:href="#i" y1="1026.7" y2="1026.7"/><linearGradient id="i"><stop offset="0" stop-color="#fff"/><stop offset="1" stop-color="#fff" stop-opacity="0"/></linearGradient><linearGradient id="j" gradientUnits="userSpaceOnUse" x1="1771" x2="1778.5" xlink:href="#i" y1="1035.9" y2="1035.9"/><linearGradient id="k" gradientUnits="userSpaceOnUse" x1="1766.9" x2="1775.5" xlink:href="#i" y1="1047" y2="1047"/><g stroke-width=".99699" transform="matrix(1.0376 0 0 .96964 -1820.1 -977.99)"><path d="m1774.8 1036.7c.074 10.306-8.8776 14.505-8.8776 14.505l.8116 3.6646h23.163l.8113-3.6646s-8.9511-4.1989-8.8773-14.505z" fill="url(#b)" stroke="url(#b)" stroke-width=".1994"/><path d="m1774.6 1034.5c-1.8746-1.2747-3.0008-3.4235-3.0008-5.7247 0-3.7976 3.0119-6.8763 6.7276-6.8763 3.7154 0 6.7276 3.0787 6.7276 6.8763 0 2.3018-1.1266 4.4506-3.0017 5.7253z" fill="url(#c)" stroke="url(#c)" stroke-linecap="round" stroke-linejoin="round" stroke-width=".1994"/><path d="m1778.2 1036.7c-.074 10.306 8.8775 14.506 8.8775 14.506l-.8113 3.6649h3.7047l.8113-3.6649s-8.9513-4.1991-8.8775-14.506z" fill="url(#d)" opacity=".1"/><path d="m6562.8 3956.3c-4.709 0-8.5 3.8465-8.5 8.625s3.791 8.625 8.5 8.625h44.078c4.709 0 8.5-3.8465 8.5-8.625s-3.791-8.625-8.5-8.625z" fill="url(#f)" stroke="url(#f)" stroke-linecap="round" stroke-linejoin="round" stroke-width=".75363" transform="matrix(.26458 0 0 .26458 36.116 -12.303)"/><path d="m1778.3 1022c-.764 0-1.4977.127-2.1828.358 10.289-2.1017 5.9333 11.932 1.5679 11.932l4.365.0005c1.8873-1.2433 3.0217-3.3391 3.0217-5.584 0-3.7037-3.0318-6.706-6.7718-6.706z" fill="url(#g)" opacity=".1"/><path d="m1772.7 1030.4s-1.6507-5.0823 3.7876-7.4194c-3.2437 2.2898-3.7876 7.4194-3.7876 7.4194z" fill="url(#h)"/><path d="m1771.1 1036.5c.1343-1.2865 7.4263-1.2265 7.4263-1.2265l-6.1557-.01c-.9063.096-1.241.9611-1.275 1.2348z" fill="url(#j)"/><path d="m1767.4 1054.2-.5613-2.4906c0 .4159 8.4567-5.5229 8.556-11.91 1.201 7.0322-7.6906 12.285-7.6906 12.285z" fill="url(#k)"/></g><path d="m25.169 12.885c-3.8554 0-6.981 2.985-6.981 6.6673 0 2.206 1.1439 4.2662 3.0494 5.5072h-2.113c-1.2928 0-2.3332.98687-2.3332 2.2128 0 1.2259 1.0404 2.2128 2.3332 2.2128h2.2324c-1.1822 8.3566-9.0589 11.816-9.0589 11.816l.84232 3.5533h24.034l.84181-3.5533s-7.8762-3.4595-9.0584-11.816h2.2676c1.2928 0 2.3337-.98688 2.3337-2.2128 0-1.2259-1.041-2.2128-2.3337-2.2128h-2.1244c1.9054-1.241 3.0489-3.301 3.0489-5.5072 0-3.6823-3.1254-6.6673-6.9805-6.6673z" fill="none" stroke="#646464" stroke-width=".3"/></svg>