<svg clip-rule="evenodd" fill-rule="evenodd" height="50mm" image-rendering="optimizeQuality" shape-rendering="geometricPrecision" text-rendering="geometricPrecision" viewBox="0 0 50 50" width="50mm" xmlns="http://www.w3.org/2000/svg" xmlns:xlink="http://www.w3.org/1999/xlink"><linearGradient id="a"><stop offset="0" stop-color="#f5f5f5"/><stop offset="1" stop-color="#7e7e7e"/></linearGradient><linearGradient id="b" gradientUnits="userSpaceOnUse" x1="13.8" x2="36.2" xlink:href="#a" y1="25.72" y2="25.72"/><linearGradient id="c" gradientUnits="userSpaceOnUse" x1="13.7" x2="36.2" xlink:href="#a" y1="25.7" y2="25.7"/><linearGradient id="d" gradientUnits="userSpaceOnUse" x1="18.9" x2="36.1" y1="25.5" y2="25.5"><stop offset="0"/><stop offset="1" stop-opacity="0"/></linearGradient><linearGradient id="e" gradientUnits="userSpaceOnUse" x1="14.6" x2="15.7" xlink:href="#f" y1="16.1" y2="16.1"/><linearGradient id="f"><stop offset="0" stop-color="#fff"/><stop offset="1" stop-color="#fff" stop-opacity="0"/></linearGradient><linearGradient id="g" gradientUnits="userSpaceOnUse" x1="22.9" x2="23.9" xlink:href="#f" y1="14.1" y2="14.1"/><linearGradient id="h" gradientUnits="userSpaceOnUse" x1="32.7" x2="33.4" xlink:href="#f" y1="13.6" y2="13.6"/><linearGradient id="i" gradientUnits="userSpaceOnUse" x1="17.7" x2="20.3" xlink:href="#f" y1="28.3" y2="28.3"/><linearGradient id="j" gradientUnits="userSpaceOnUse" x1="11.574" x2="38.4256" xlink:href="#a" y1="42.52" y2="42.52"/><linearGradient id="k" gradientUnits="userSpaceOnUse" x1="11.6" x2="38.4" xlink:href="#a" y1="42.52" y2="42.52"/><linearGradient id="l" gradientUnits="userSpaceOnUse" x1="14.50088" x2="35.429158" xlink:href="#f" y1="39.834222" y2="39.834222"/><path d="m14.183 11.845c-1.825 10.607 4.7656 11.275 4.7656 11.275l-3.3734 16.477h18.849l-3.3734-16.477s6.5912-.6674 4.7661-11.275h-3.8592v2.9724h-4.179v-2.9129h-5.5578v2.9129h-4.1796v-2.9724z" fill="url(#b)" stroke="url(#c)" stroke-width=".2"/><path d="m34.789 11.845c1.6882 11.06-5.0864 10.74-15.84 11.275l-.09.4406c11.24-.9881 9.4314 5.9153 11.392 15.591h4.2333l-3.4329-16.032s6.5912-.6674 4.7661-11.275z" fill="url(#d)" opacity=".1"/><path d="m14.835 12.6s-.6697 4.87.6697 7.0694c-1.0831-4.5361.2827-7.058.2827-7.058z" fill="url(#e)"/><path d="m22.979 15.544v-2.8856l.926.01z" fill="url(#g)"/><path d="m32.726 14.635v-2.0379l.6725.01z" fill="url(#h)"/><path d="m19.603 23.886-1.8475 8.9101 2.6086-8.9335z" fill="url(#i)"/><path d="m25 38.545s-8.5779.048-10.983 1.6192c-1.6227 1.0602-2.0055 2.0639-1.7847 4.7362h25.536c.2207-2.6723-.1622-3.6761-1.7849-4.7362-2.4047-1.5711-10.983-1.6192-10.983-1.6192z" style="clip-rule:evenodd;fill-rule:evenodd;image-rendering:optimizeQuality;shape-rendering:geometricPrecision;stroke-linejoin:round;stroke-width:.2;fill:url(#j);stroke:url(#k)"/><path d="m23.572 39.124c-3.2334.034-5.7858.3811-7.7267.9477 6.1468-.4378 12.256-.4969 18.309 0-2.2181-.6475-5.2353-1.0087-9.1545-.9426-.4899-.01-.9659-.01-1.4278-.01z" fill="url(#l)"/><path d="m14.183 11.845c-1.825 10.607 4.7656 11.275 4.7656 11.275l-3.3574 16.4c-.64261.17974-1.1888.39184-1.5746.64389-1.6227 1.0602-2.0052 2.0638-1.7844 4.7361h25.536c.2207-2.6723-.1622-3.676-1.7849-4.7361-.38597-.25217-.93205-.46461-1.5751-.64441l-3.3574-16.4s6.5912-.66768 4.7661-11.275h-3.8592v2.9724h-4.1791v-2.9125h-5.5578v2.9125h-4.1796v-2.9724z" fill="none" stroke="#646464" stroke-width=".3"/></svg>