<svg clip-rule="evenodd" fill-rule="evenodd" height="50mm" image-rendering="optimizeQuality" shape-rendering="geometricPrecision" text-rendering="geometricPrecision" viewBox="0 0 50 50" width="50mm" xmlns="http://www.w3.org/2000/svg"><g stroke-width="1.079" transform="matrix(.91877 0 0 .93482 -3036.3 1998.5)"><path d="m3329.1-2128.5-.6434 2.6079-3.3883.1937-.5893-2.5924-4.8693 1.0027v7.8708c.8451 2.1116 1.967 2.4657 3.0267 3.0261h2.1613l-3.1479 17.25c-4.314 2.4558-5.2836 3.5696-5.2836 8.5023h31.034c0-4.9327-.9699-6.0465-5.2836-8.5023l-3.1477-17.25h2.1611c1.0597-.5605 2.1816-.915 3.0267-3.0266v-7.8709l-4.8688-1.0021-.5898 2.5918-3.388-.1936-.6434-2.6085h-2.7834z" fill="#e9e9e9" stroke="#2a2a2a" stroke-width="1.6185"/><path d="m3341.8-2127.8c4.1719 12.439-14.069 10.218-21.331 9.7927 0 0 .085 1.5999 2.2458 1.6048h2.197-.036l-.092.5028c13.852-1.0454 11.329 3.0473 13.773 15.557l-16.717.578-.1112.6132-1.051.6127c5.4343.5946 23.899-3.1021 22.257 7.8896h4.5434c.2618-5.0933-1.7668-6.6874-5.2836-8.5023l-2.9623-17.531c.2997-.1935.9594 0 1.922-.1608 1.2799-.2131 2.6239-1.4826 3.0799-2.7472v-7.5546z" opacity=".2"/><g fill="#fff"><path d="m3320.4-2126.7 2.3639-.4751c-1.3164.508-1.7627 3.2567-2.2906 6.8042-.1582 1.0629-.074-6.3291-.074-6.3291z"/><path d="m3329.7-2127.7-.6236 2.5674 2.1193-2.5754z"/><path d="m3339.9-2127.4-.5437 2.4634 1.5356-2.2555z"/><path d="m3325.5-2115.8-2.98 16.075 3.7954-15.977z"/><path d="m3317.2-2091.6c-.014-.046-.034-1.082.1659-2.048.2267-1.0937.757-2.1464 1.6195-2.8237 1.5913-1.2497 2.925-1.9566 3.0758-1.9612-2.2901 1.7424-4.4098 3.8733-4.8612 6.8329z"/></g></g></svg>