<svg shape-rendering="crispEdges" viewBox="0 -.5 16 16" xmlns="http://www.w3.org/2000/svg"><path d="m7 1h2m-3 1h1m2 0h1m-4 1h1m2 0h1m-3 1h2m-3 1h1m2 0h1m-5 1h1m4 0h1m-7 1h1m4 0h1m1 0h1m-8 1h1m3 0h1m2 0h1m-8 1h1m6 0h1m-8 1h1m6 0h1m-7 1h1m4 0h1m-7 1h8m-9 1h1m8 0h1m-10 1h10" stroke="#000"/><path d="m7 2h1m-2 4h1m-2 1h1" stroke="#6d6d6d"/><path d="m8 2h1m-1 1h1m-1 2h1m1 2h1m-1 1h1m-1 1h1m-1 1h1m-2 1h1m-1 2h3" stroke="#151515"/><path d="m7 3h1m-1 2h1m-3 3h1m-1 1h1m-1 1h1m0 1h1m-3 2h2" stroke="#494949"/><path d="m7 6h2m-3 1h2m-2 1h2m1 0h1m-4 1h4m-4 1h4m-3 1h2m-3 2h3" stroke="#242424"/></svg>