<svg shape-rendering="crispEdges" viewBox="0 -.5 16 16" xmlns="http://www.w3.org/2000/svg"><path d="m6 2h4m-5 1h1m4 0h1m-6 1h1m4 0h1m-6 1h1m4 0h1m-5 1h1m2 0h1m-5 1h1m4 0h1m-6 1h1m4 0h1m-5 1h1m2 0h1m-5 1h1m4 0h1m-7 1h1m6 0h1m-8 1h1m6 0h1m-8 1h8" stroke="#000"/><path d="m6 3h1" stroke="#fdfdfd"/><path d="m7 3h2m-3 1h1m-1 3h2m-2 3h1m-2 1h2m-2 1h1" stroke="#e1e1e1"/><path d="m9 3h1m-1 1h1m-1 1h1m-2 1h1m0 1h1m-3 1h3m-2 1h1m0 1h1m0 1h1m-5 1h5" stroke="#a7a7a7"/><path d="m7 4h2m-3 1h3m-2 1h1m0 1h1m-3 1h1m0 1h1m-1 1h2m-2 1h3" stroke="#c1c1c1"/></svg>