<svg shape-rendering="crispEdges" viewBox="0 -.5 16 16" xmlns="http://www.w3.org/2000/svg"><path d="m3 1h3m1 0h6m-10 1h1m1 0h1m1 0h1m4 0h1m-10 1h1m1 0h3m4 0h1m-10 1h1m8 0h1m-10 1h10m-9 1h1m6 0h1m-7 1h6m-6 1h1m4 0h1m-6 1h1m4 0h1m-6 1h1m4 0h1m-7 1h1m6 0h1m-9 1h10m-11 1h1m10 0h1m-12 1h12" stroke="#000"/><path d="m4 2h1m0 4h1m-1 5h1m-3 2h3" stroke="#fdfdfd"/><path d="m8 2h3m-3 1h3m-6 1h5m-3 2h2m-2 2h2m-2 1h2m-2 1h2m-2 1h2m-2 2h3" stroke="#c1c1c1"/><path d="m11 2h1m-1 1h1m-2 1h2m-3 2h2m-2 2h1m-1 1h1m-1 1h1m-1 1h2m-1 2h3" stroke="#a7a7a7"/><path d="m4 3h1m-1 1h1m1 2h1m-1 2h1m-1 1h1m-1 1h1m-1 1h1m-1 2h1" stroke="#e1e1e1"/></svg>