<svg clip-rule="evenodd" fill-rule="evenodd" height="50mm" image-rendering="optimizeQuality" shape-rendering="geometricPrecision" text-rendering="geometricPrecision" viewBox="0 0 50 50" width="50mm" xmlns="http://www.w3.org/2000/svg" xmlns:xlink="http://www.w3.org/1999/xlink"><linearGradient id="a"><stop offset="0" stop-color="#666"/><stop offset="1" stop-color="#323232"/></linearGradient><linearGradient id="b" gradientUnits="userSpaceOnUse" x1="775.31" x2="794.19" xlink:href="#a" y1="1466.4" y2="1466.4"/><linearGradient id="c" gradientUnits="userSpaceOnUse" x1="770.2" x2="799.3" xlink:href="#a" y1="1481.1" y2="1481.1"/><linearGradient id="d" gradientUnits="userSpaceOnUse" x1="776.23" x2="778.02" xlink:href="#e" y1="1465.4" y2="1465.4"/><linearGradient id="e"><stop offset="0" stop-color="#fff"/><stop offset="1" stop-color="#fff" stop-opacity="0"/></linearGradient><linearGradient id="f" gradientUnits="userSpaceOnUse" x1="771.12" x2="780.35" xlink:href="#e" y1="1480.3" y2="1480.3"/><linearGradient id="g" gradientUnits="userSpaceOnUse" x1="783.13" x2="784.49" xlink:href="#e" y1="1460.9" y2="1460.9"/><linearGradient id="h" gradientUnits="userSpaceOnUse" x1="784.72" x2="799.08" y1="1481.2" y2="1481.2"><stop offset="0"/><stop offset="1" stop-opacity="0"/></linearGradient><linearGradient id="i" gradientUnits="userSpaceOnUse" x1="11.546" x2="38.3976" xlink:href="#a" y1="42.52" y2="42.52"/><linearGradient id="j" gradientUnits="userSpaceOnUse" x1="11.6" x2="38.4" xlink:href="#a" y1="42.52" y2="42.52"/><linearGradient id="k" gradientUnits="userSpaceOnUse" x1="14.50088" x2="35.429158" xlink:href="#e" y1="39.834222" y2="39.834222"/><g transform="translate(-759.75 -1450.7)"><path d="m784.75 1457.7c-.98972 0-2.3763.7433-2.3763 1.6668v3.8062h-5.13c-.98972 0-1.7864 1.2939-1.7864 2.2175 0 .9234.80318 2.3235 1.7864 2.2179h5.13l-1.0583 5.7672c-.16669.9083 2.4449 1.6668 3.4346 1.6668.98973 0 3.6015-.7579 3.4347-1.6668l-1.0583-5.7672h5.1306c.98974 0 1.7864-1.2945 1.7864-2.2179s-.80318-2.3228-1.7864-2.2175h-5.1306v-3.8062c0-.9235-1.3866-1.6668-2.3763-1.6668z" fill="url(#b)" stroke="url(#b)" stroke-linecap="round" stroke-linejoin="round" stroke-width=".3"/><path d="m784.75 1470.3c-8.7725 0-16.117 2.8408-14.044 8.2765l4.8803 9.4687c1.2297 2.6758 2.5416 3.7114 5.6984 3.7114h3.4654v.0005h3.4654c3.1568 0 4.4686-1.0361 5.6984-3.7119l4.8803-9.4687c2.073-5.4357-5.2716-8.2765-14.044-8.2765z" fill="url(#c)" stroke="url(#c)" stroke-linecap="round" stroke-linejoin="round" stroke-width=".3"/><path d="m777.05 1466.9c-.11681-.036-.85532-.6448-.82267-1.443.0326-.7982.49966-1.3344.98493-1.4864h.80682c-1.4901.6056-1.8806 1.6712-.96908 2.9294z" fill="url(#d)" opacity=".5"/><path d="m776.63 1489.2-5.25-11.076c-.10183-.2222-1.0605-2.4284 1.5317-4.4051 1.2805-.9362 3.3499-1.7795 7.4431-2.4058-4.0652.9402-9.3108 3.4772-8.1479 6.7944s4.4232 11.093 4.4232 11.093z" fill="url(#f)" opacity=".5"/><path d="m783.13 1463.3v-3.9605s.26458-.6119 1.3643-.8516c-1.2988.3131-1.3476 4.7396-1.3643 4.8121z" fill="url(#g)" opacity=".5"/><path d="m788.5 1470.5c11.556 3.3271 6.3241 8.0792 1.9161 17.672-1.2297 2.6758-2.5421 3.7114-5.6989 3.7114h3.1755c3.1568 0 4.4686-1.0356 5.6984-3.7114l5.1978-9.5437c1.0533-7.9822-9.1376-8.1848-10.289-8.1279z" fill="url(#h)" opacity=".1"/></g><path d="m24.972 38.545s-8.5779.048-10.983 1.6192c-1.6227 1.0602-2.0055 2.0639-1.7847 4.7362h25.536c.2207-2.6723-.1622-3.6761-1.7849-4.7362-2.4047-1.5711-10.983-1.6192-10.983-1.6192z" style="clip-rule:evenodd;fill-rule:evenodd;image-rendering:optimizeQuality;shape-rendering:geometricPrecision;stroke-linejoin:round;stroke-width:.2;fill:url(#i);stroke:url(#j)"/><path d="m23.544 39.124c-3.2334.0337-5.7858.38114-7.7267.94774 6.1468-.43777 12.256-.49689 18.309 0-2.2181-.64754-5.2353-1.0087-9.1545-.94258-.4899-.008-.9659-.01-1.4278-.005z" fill="url(#k)" opacity=".5"/><path d="m25 7.0004c-.98972 0-2.3761.74306-2.3761 1.6666v3.806h-5.1304c-.98972 0-1.7865 1.2944-1.7865 2.218 0 .9234.80324 2.323 1.7865 2.2174h5.1304l-.51418 2.8014c-7.4123.56396-12.994 3.3421-11.154 8.1669l4.8803 9.4687c.34339.74721.69474 1.3625 1.0893 1.8671-1.2273.22977-2.3005.53619-2.9368.95188-1.6227 1.0602-2.0052 2.0638-1.7844 4.7361h25.536c.2207-2.6723-.1622-3.676-1.7849-4.7361-.62794-.41026-1.6805-.71479-2.8877-.94361.39728-.50614.75074-1.124 1.0961-1.8753l4.8803-9.4687c1.84-4.8248-3.7412-7.603-11.153-8.1669l-.51418-2.8014h5.1304c.98974 0 1.7865-1.294 1.7865-2.2174s-.80324-2.3233-1.7865-2.218h-5.1304v-3.806c0-.9235-1.3869-1.6666-2.3766-1.6666z" fill="none" stroke="#828282" stroke-linecap="round" stroke-linejoin="round" stroke-width=".30004"/></svg>