<svg clip-rule="evenodd" fill-rule="evenodd" height="50mm" image-rendering="optimizeQuality" shape-rendering="geometricPrecision" text-rendering="geometricPrecision" viewBox="0 0 50 50" width="50mm" xmlns="http://www.w3.org/2000/svg" xmlns:xlink="http://www.w3.org/1999/xlink"><linearGradient id="a"><stop offset="0" stop-color="#f5f5f5"/><stop offset="1" stop-color="#7e7e7e"/></linearGradient><linearGradient id="b" gradientUnits="userSpaceOnUse" x1="719.94" x2="742.36" xlink:href="#a" y1="1208.7" y2="1208.7"/><linearGradient id="c" gradientUnits="userSpaceOnUse" x1="854.8" x2="868.03" y1="1429.4" y2="1429.4"><stop offset="0"/><stop offset="1" stop-opacity="0"/></linearGradient><linearGradient id="d" gradientUnits="userSpaceOnUse" x1="850.54" x2="857.14" xlink:href="#e" y1="1434.1" y2="1434.1"/><linearGradient id="e"><stop offset="0" stop-color="#fff"/><stop offset="1" stop-color="#fff" stop-opacity="0"/></linearGradient><linearGradient id="f" gradientUnits="userSpaceOnUse" x1="858" x2="859.64" xlink:href="#e" y1="1420.9" y2="1420.9"/><linearGradient id="g" gradientUnits="userSpaceOnUse" x1="1997.05" x2="2023.9016" xlink:href="#a" y1="993.12" y2="993.12"/><linearGradient id="h" gradientUnits="userSpaceOnUse" x1="1997.054" x2="2023.854" xlink:href="#a" y1="993.118" y2="993.118"/><linearGradient id="i" gradientUnits="userSpaceOnUse" x1="1999.95488" x2="2020.883158" xlink:href="#e" y1="990.432222" y2="990.432222"/><g transform="translate(-835.59 -1408.73)"><g transform="translate(3.9687 3.9687)"><path d="m731.15 1193.6c-2.0344 0-3.6834.8388-3.6834 1.8738l1.4653 2.5292c-15.506 13.446-6.0254 25.896-6.0254 25.896h16.487s6.0761-7.9824.53846-18.067l-4.3262 6.4065c-.24139.3574-.73161.4563-1.0995.2218l-2.6215-1.6715c-.36791-.2345-.46972-.7108-.22834-1.0683l5.4091-8.0101c-1.036-1.2212-2.2587-2.4601-3.6974-3.7076l1.4653-2.5292c.00005-1.035-1.6494-1.8735-3.6839-1.8738z" fill="url(#b)" stroke="url(#b)" stroke-width=".2" transform="translate(125.77 220.63)"/><path d="m856.92 1414.2c-.7887 0-1.518.1274-2.1172.3421 2.4488.4546 4.3851 1.4115 4.3851 1.4115s-1.0831 1.6546-1.9115 2.7405l3.1362 3.4037c-3.5328 7.8641-3.1166 8.6465-3.1166 8.6465s2.24-3.5471 5.54-8.4337c-1.036-1.2212-2.2588-2.4603-3.6974-3.7077l1.465-2.5291c.00005-1.035-1.6491-1.8735-3.6835-1.8738zm8.7824 12.232-1.3494 1.997c2.4133 8.1829-3.4224 16.07-3.4224 16.07h4.2333s6.0762-7.9823.53848-18.066z" fill="url(#c)" opacity=".1"/></g><path d="m851.04 1443c-.21166-.03-2.7726-9.2839 6.0947-17.84-2.2239 1.8085-7.4288 12.507-6.0947 17.84z" fill="url(#d)"/><path d="m859.61 1422.8-1.6123-2.8525s.24805-.4879 1.6371-.8599c-.008.017-1.0666.9095-1.0666.9095z" fill="url(#f)"/></g><g transform="translate(-1985.4 -950.6)"><path d="m2010.4 989.15s-8.5779.048-10.983 1.6192c-1.6227 1.0602-2.0055 2.0639-1.7847 4.7362h25.536c.2207-2.6723-.1622-3.6761-1.7849-4.7362-2.4047-1.5711-10.983-1.6192-10.983-1.6192z" style="clip-rule:evenodd;fill-rule:evenodd;image-rendering:optimizeQuality;shape-rendering:geometricPrecision;stroke-linejoin:round;stroke-width:.2;fill:url(#g);stroke:url(#h)"/><path d="m2009 989.73c-3.2334.0337-5.7858.38114-7.7267.94774 6.1468-.43777 12.256-.49689 18.309 0-2.2181-.64754-5.2353-1.0087-9.1545-.94258-.4899-.008-.9659-.01-1.4278-.005z" fill="url(#i)"/></g><path d="m25.33 9.405c-2.0342.0001437-3.683.83888-3.683 1.8738l1.465 2.5296c-13.811 11.976-7.812 23.137-6.3329 25.439-1.1552.22616-2.155.52565-2.7616.92191-1.6227 1.0602-2.0057 2.0638-1.7849 4.7361h25.536c.2207-2.6723-.1622-3.676-1.7849-4.7361-.50121-.32746-1.2783-.58629-2.1823-.79478 1.0213-1.5404 5.2196-8.7985.31109-17.737l-4.3264 6.4063c-.24139.3574-.73178.45619-1.0997.22169l-2.6215-1.6712c-.36791-.2345-.46927-.71117-.22789-1.0687l5.409-8.0098c-1.036-1.2212-2.2588-2.4603-3.6974-3.7078l1.465-2.529c.000051-1.0349-1.6487-1.8733-3.683-1.8738z" fill="none" stroke="#646464" stroke-width=".30004"/></svg>