<svg clip-rule="evenodd" fill-rule="evenodd" height="50mm" image-rendering="optimizeQuality" shape-rendering="geometricPrecision" text-rendering="geometricPrecision" viewBox="0 0 50 50" width="50mm" xmlns="http://www.w3.org/2000/svg" xmlns:xlink="http://www.w3.org/1999/xlink"><linearGradient id="a"><stop offset="0" stop-color="#f5f5f5"/><stop offset="1" stop-color="#7e7e7e"/></linearGradient><linearGradient id="b" gradientUnits="userSpaceOnUse" x1="1003.1" x2="1041.1" xlink:href="#a" y1="1382.5" y2="1382.5"/><linearGradient id="c" gradientUnits="userSpaceOnUse" x1="823.03" x2="839.36" y1="1432.8" y2="1432.8"><stop offset="0"/><stop offset="1" stop-opacity="0"/></linearGradient><linearGradient id="d" gradientUnits="userSpaceOnUse" x1="806.63" x2="808.42" xlink:href="#e" y1="1428.2" y2="1428.2"/><linearGradient id="e"><stop offset="0" stop-color="#fff"/><stop offset="1" stop-color="#fff" stop-opacity="0"/></linearGradient><linearGradient id="f" gradientUnits="userSpaceOnUse" x1="815.89" x2="817.68" xlink:href="#e" y1="1421.3" y2="1421.3"/><linearGradient id="g" gradientUnits="userSpaceOnUse" x1="827.09" x2="829.7" xlink:href="#e" y1="1420.7" y2="1420.7"/><linearGradient id="h" gradientUnits="userSpaceOnUse" x1="836.33" x2="838.69" xlink:href="#e" y1="1427.6" y2="1427.6"/><linearGradient id="i" gradientUnits="userSpaceOnUse" x1="811.18" x2="818.59" xlink:href="#e" y1="1440.1" y2="1440.1"/><linearGradient id="j" gradientUnits="userSpaceOnUse" x1="1997.05" x2="2023.9016" xlink:href="#a" y1="993.12" y2="993.12"/><linearGradient id="k" gradientUnits="userSpaceOnUse" x1="1997.054" x2="2023.854" xlink:href="#a" y1="993.118" y2="993.118"/><linearGradient id="l" gradientUnits="userSpaceOnUse" x1="1999.95488" x2="2020.883158" xlink:href="#e" y1="990.432222" y2="990.432222"/><g transform="translate(-799.74 -1409.18)"><g transform="translate(4.2333 3.9687)"><path d="m1016.5 1367.1c-2.2238 0-4.0261 1.753-4.0259 3.9146 0 1.775 1.2336 3.3262 2.9991 3.7795v8.6787l-4.9363-3.3544c.4466-.6453.6852-1.4052.6856-2.1828 0-2.162-1.8031-3.9149-4.0274-3.9148-2.2237 0-4.026 1.7532-4.0258 3.9148 0 2.1611 1.8027 3.9129 4.0258 3.9132.1978 0 .3951-.017.5907-.045l6.4187 16.165h15.681l6.4172-16.165c.1955.029.3929.044.5906.045 2.2232 0 4.0253-1.7521 4.0258-3.9132 0-2.1616-1.802-3.914-4.0258-3.9148-2.2244 0-4.0276 1.7528-4.0274 3.9148 0 .7776.2391 1.5375.6856 2.1828l-4.9363 3.3544v-8.6787c1.7658-.4533 2.9967-2.0045 2.9991-3.7795 0-2.1616-1.802-3.9142-4.0257-3.9146-2.2243 0-4.0276 1.7524-4.0273 3.9146 0 1.2775.6462 2.4737 1.7243 3.2041l-3.2406 7.9654-3.2425-7.9654c1.0783-.7304 1.7219-1.9266 1.7245-3.2041 0-2.1622-1.803-3.915-4.0273-3.9146z" fill="url(#b)" stroke="url(#b)" stroke-linejoin="round" stroke-width=".2" transform="translate(-201.59 46.812)"/><path d="m835.33 1420.8c-.7779 0-1.5014.2178-2.1172.5891 6.4103 1.3409 3.3502 6.8195.33928 6.3258l-10.522 17.033h5.2917l6.4177-16.165c.1955.029.39246.044.59015.045 2.2232 0 4.0256-1.7524 4.0261-3.9135 0-2.1615-1.8023-3.9136-4.0261-3.9144z" fill="url(#c)" opacity=".1"/></g><path d="m807.18 1430.5s-1.8356-2.5962 1.2402-4.6136c-.66254 1.4187-1.273 2.8107-1.2402 4.6136z" fill="url(#d)"/><path d="m816.44 1423.6s-1.8356-2.5962 1.2402-4.6136c-.82301 1.1663-1.5385 2.6631-1.2402 4.6136z" fill="url(#f)"/><path d="m827.24 1422.7s-1.0496-3.0013 2.4628-4.0937c-1.5759 1.211-2.4975 2.3767-2.4628 4.0937z" fill="url(#g)"/><path d="m836.44 1429.6c.058.029-.98681-2.6411 2.2456-3.8614-1.116.89-2.069 1.4843-2.2456 3.8614z" fill="url(#h)"/><path d="m811.18 1432.3 6.2508 15.676h1.1576z" fill="url(#i)"/></g><g transform="translate(-1985.4 -950.6)"><path d="m2010.4 989.15s-8.5779.048-10.983 1.6192c-1.6227 1.0602-2.0055 2.0639-1.7847 4.7362h25.536c.2207-2.6723-.1622-3.6761-1.7849-4.7362-2.4047-1.5711-10.983-1.6192-10.983-1.6192z" style="clip-rule:evenodd;fill-rule:evenodd;image-rendering:optimizeQuality;shape-rendering:geometricPrecision;stroke-linejoin:round;stroke-width:.2;fill:url(#j);stroke:url(#k)"/><path d="m2009 989.73c-3.2334.0337-5.7858.38114-7.7267.94774 6.1468-.43777 12.256-.49689 18.309 0-2.2181-.64754-5.2353-1.0087-9.1545-.94258-.4899-.008-.9659-.01-1.4278-.005z" fill="url(#l)"/></g><path d="m19.403 8.7009c-2.2238 0-4.0258 1.7529-4.0256 3.9145 0 1.775 1.2333 3.3263 2.9988 3.7796v8.6785l-4.9361-3.3543c.4466-.6453.68535-1.4052.68575-2.1828 0-2.162-1.8034-3.9151-4.0277-3.915-2.2237 0-4.0258 1.7534-4.0256 3.915 0 2.1611 1.8025 3.9126 4.0256 3.9129.1978 0 .39506-.01696.59066-.04496l6.2777 15.81c-1.2328.23002-2.3111.53729-2.9497.95446-1.6227 1.0602-2.0057 2.0638-1.7849 4.7361h25.536c.2207-2.6723-.1622-3.676-1.7849-4.7361-.65502-.42796-1.7738-.73976-3.0468-.97152l6.2694-15.793c.1955.029.39296.04396.59066.04496 2.2232 0 4.0251-1.7518 4.0256-3.9129 0-2.1616-1.8018-3.9142-4.0256-3.915-2.2244 0-4.0279 1.753-4.0277 3.915 0 .7776.23925 1.5375.68575 2.1828l-4.9361 3.3543v-8.6785c1.7658-.4533 2.9964-2.0046 2.9988-3.7796 0-2.1616-1.8019-3.9141-4.0256-3.9145-2.2243 0-4.0274 1.7523-4.0271 3.9145 0 1.2775.64582 2.4735 1.7239 3.2039l-3.2406 7.9654-3.2422-7.9654c1.0783-.7304 1.7218-1.9264 1.7244-3.2039 0-2.1622-1.8028-3.9149-4.0271-3.9145z" fill="none" stroke="#646464" stroke-linejoin="round" stroke-width=".3"/></svg>