<svg height="368" width="368" xmlns="http://www.w3.org/2000/svg"><path d="m163 120c-5.252 2.616-9.6 6.214-13 11-24.694-17.885-69.2414-18.895-90.6998 5.039-12.4294 13.864-15.0527 32.034-14.2608 49.961.8572 19.405 12.0858 38.357 22.6304 54 3.4811 5.164 9.3501 10.325 11.7839 16 1.8823 4.389-3.8152 8.28-5.4838 12-3.7448 8.35-1.1952 17.631 6.0301 23-11.5404 12.2-7 34.243-7 50h222v-28c0-8.389.322-15.547-7-21 6.13-6.466 9.831-14.112 6.437-23-1.54-4.032-7.825-8.491-5.891-13 1.409-3.283 4.646-6.179 6.8-9 3.665-4.801 7.037-9.873 10.229-15 14.238-22.871 23.012-50.428 14.069-77-9.87-29.327-39.482-38.695-67.644-36.075-10.95 1.019-25.054 3.905-33 12.075-4.296-4.26-8.551-8.286-14-11 4.733-6.8 10.43-12.406 11.699-21 .838-5.6764.799-12.5037-.92-18-6.73-21.5282-35.338-29.0501-52.775-15.4707-10.635 8.2824-14.281 22.5866-11.323 35.4707 1.755 7.648 6.998 12.793 11.319 19z" fill="#fff"/><path d="m179 69.5185c-29.188 6.3306-19.039 51.2615 10 44.9625 29.188-6.33 19.039-51.2609-10-44.9625m4 105.4815h2c4.062-9.706 10.137-18.786 16.666-27 2.189-2.754 7.995-7.008 6.988-10.996-.841-3.333-5.007-5.86-7.654-7.644-8.526-5.747-23.025-6.752-32-1.291-3.188 1.94-9.792 5.588-9.793 9.932-.002 3.894 5.713 8.163 7.985 10.999 6.254 7.806 11.941 16.76 15.808 26m-4 78v-44c0-6.921 1.264-15.3-.637-22-3.355-11.818-12.125-24.606-19.828-34-5.895-7.19-13.192-13.556-21.535-17.73-24.673-12.345-62.9639-9.126-76.392 17.73-11.9918 23.984-3.004 51.763 10.4452 73 4.1686 6.582 8.6185 12.974 13.561 19 2.12 2.585 4.4815 6.061 7.6713 7.397 6.7629 2.832 18.4235.603 25.7145.603zm10 0h61c7.378 0 18.961 2.201 25.83-.603 3.198-1.306 5.459-4.815 7.559-7.397 4.919-6.05 9.387-12.414 13.558-19 13.449-21.237 22.437-49.016 10.445-73-13.428-26.856-51.719-30.075-76.392-17.73-8.343 4.174-15.64 10.54-21.535 17.73-7.703 9.394-16.473 22.182-19.828 34-1.901 6.7-.637 15.079-.637 22zm-97 10v4c-11.5537 1.557-11.5537 16.443 0 18v4h184v-4c11.554-1.557 11.554-16.443 0-18v-4z"/><path d="m181.015 267.746c-10.629 4.039-4.549 20.505 5.97 16.508 10.629-4.039 4.549-20.505-5.97-16.508z" fill="#fff"/><path d="m83 331h202c0-6.998.094-14.003-.004-21-.048-3.442-.255-7.104-3.224-9.397-3.317-2.56-8.852-1.603-12.772-1.603h-32-108-29c-3.8849 0-9.3769-.95-12.8912 1.028-3.6954 2.08-4.052 6.175-4.1049 9.972-.0977 6.997-.0039 14.002-.0039 21z"/></svg>