<svg height="368" width="368" xmlns="http://www.w3.org/2000/svg"><path d="m140 109c-6.184 26.731-20.817 51.272-27 78-8.759-10.276-15.5051-22.758-23-34-3.422-5.133-9.0459-11.087-10.8966-17-1.1623-3.713 1.93-6.671 3.0424-10 2.5017-7.486.1684-16.567-6.189-21.362-14.3247-10.804-31.4728 2.066-29.8519 18.362.5474 5.503 4.2417 10.17 8.8959 12.992 3.8924 2.359 7.3724 2.255 9.0957 7.027 4.6526 12.885 7.4739 26.759 11.0547 39.981 5.7847 21.359 11.6742 42.711 17.7084 64 1.1111 3.92 3.9515 9.756 2.4977 13.83-1.0376 2.908-4.0995 4.728-5.8442 7.185-4.1793 5.883-2.9115 13.596 2.4869 17.985-3.8685 4.75-9.6664 9.259-11.9907 15-1.5027 3.712-1.0093 8.082-1.0093 12v23h211v-22c0-3.944.45-8.243-.995-11.996-2.252-5.852-8.369-10.995-13.005-15.004 4.683-5.405 7.051-12.56 2.487-18.985-2.119-2.983-5.965-5.068-6.165-9.054-.212-4.204 1.962-8.971 3.099-12.961 2.274-7.977 4.291-16.027 6.579-24 4.863-16.944 9.614-33.957 14.116-51 2.483-9.403 4.289-20.008 8.133-28.941 1.844-4.285 6.262-4.278 9.747-6.712 6.411-4.477 9.311-11.691 7.949-19.347-2.741-15.412-23.797-20.5658-33.307-7.957-3.716 4.927-4.742 12.097-2.784 17.957 1.113 3.329 4.205 6.287 3.043 10-1.641 5.242-6.534 10.455-9.564 15-7.568 11.353-16.49 22.645-22.333 35-5.849-9.228-8.58-20.808-12.424-31-5.64-14.957-12.892-30.455-16.576-46 19.236-6.558 12.638-35.9197-7-35.9197-20.052 0-26.642 29.2417-7 35.9197-6.197 15.976-12.376 31.966-18.424 48-3.296 8.74-7.989 17.777-9.576 27h-4c-1.587-9.223-6.28-18.26-9.576-27-6.048-16.034-12.227-32.024-18.424-48 19.642-6.678 13.052-35.9197-7-35.9197-19.638 0-26.236 29.3617-7 35.9197z"/><path d="m145.015 83.6929c-9.932 2.6957-6.462 19.1191 3.981 16.6911 11.093-2.5781 6.866-19.6349-3.981-16.6911m73.99-.0772c-10.849 2.5298-6.787 19.6133 3.98 16.6913 9.931-2.6953 6.461-19.1262-3.98-16.6913m-157.961 28.1303c-10.0488 3.95-3.34 19.631 6.912 15.511 10.0495-4.039 3.0192-19.414-6.912-15.511m239.996-.089c-10.895 3.438-4.85 19.926 5.916 15.6 9.475-3.808 4.082-18.756-5.916-15.6m-154.04 9.343c-6.903 20.406-14.177 40.853-21.808 61-2.932 7.741-4.173 18.57-15.152 15.682-4.965-1.306-7.744-7.738-10.3733-11.682-6.8886-10.333-13.7218-20.705-20.6667-31-.4695 3.732 1.163 7.393 2.1157 11 1.7647 6.681 3.5688 13.355 5.463 20 6.3235 22.184 13.268 44.521 18.4213 67h158c7.54-32.891 17.786-65.532 27-98-8.585 7.867-14.546 20.318-21 30-2.614 3.921-5.481 10.549-10.093 12.397-10.481 4.199-12.622-8.354-15.226-15.397-7.482-20.238-13.94-41.28-22.681-61-5.422 7.247-7.875 18.51-11.05 27-5.511 14.734-14.282 30.504-16.95 46h-18c-2.668-15.496-11.439-31.266-16.95-46-3.175-8.49-5.628-19.753-11.05-27m-41 141c-.073 2.997-.044 6.083-2.433 8.277-1.97 1.809-5.9312 2.384-5.9312 5.722 0 3.348 3.9872 3.764 5.9312 5.585 2.38 2.23 2.36 5.4 2.433 8.416h156c.073-3.016.052-6.186 2.433-8.416 1.944-1.821 5.931-2.237 5.931-5.585 0-3.338-3.961-3.913-5.931-5.722-2.389-2.194-2.36-5.28-2.433-8.277z" fill="#fff"/><path d="m180.094 267.858c-10.519 4.642-2.902 21.013 7.812 16.284 10.519-4.642 2.902-21.013-7.812-16.284z"/><path d="m89 326h191c0-8.157 2.812-21.479-6.005-25.972-3.702-1.887-8.968-1.028-12.995-1.028h-27-97-30c-3.994 0-9.3226-.884-12.9807 1.028-7.9595 4.16-5.0193 18.514-5.0193 25.972z" fill="#fff"/></svg>