<svg clip-rule="evenodd" fill-rule="evenodd" height="50mm" image-rendering="optimizeQuality" shape-rendering="geometricPrecision" text-rendering="geometricPrecision" viewBox="0 0 50 50" width="50mm" xmlns="http://www.w3.org/2000/svg" xmlns:xlink="http://www.w3.org/1999/xlink"><linearGradient id="a"><stop offset="0" stop-color="#fff"/><stop offset="1" stop-color="#fff" stop-opacity="0"/></linearGradient><linearGradient id="b" gradientUnits="userSpaceOnUse" x1="2197" x2="2212.6" xlink:href="#a" y1="-1410.1" y2="-1410.1"/><linearGradient id="c" gradientUnits="userSpaceOnUse" x1="2213.6" x2="2220.4" xlink:href="#a" y1="-1411.9" y2="-1411.9"/><linearGradient id="d" gradientUnits="userSpaceOnUse" x1="2201.77882" x2="2205.27882" xlink:href="#a" y1="-1392.2" y2="-1391.4"/><linearGradient id="e" gradientUnits="userSpaceOnUse" x1="490.24" x2="511.24" xlink:href="#a" y1="-382.24" y2="-382.24"/><linearGradient id="f" gradientUnits="userSpaceOnUse" x1="491.59" x2="499.17" xlink:href="#a" y1="-377.43" y2="-377.43"/><g clip-rule="evenodd" fill-rule="evenodd" image-rendering="optimizeQuality" shape-rendering="geometricPrecision" transform="matrix(1.1051 0 0 1.1045 -370.071 454.039)"><path d="m366.35-375.17s-3.4876-9.3032 1.2675-17.927l-1.4173-8.664s-3.7681-.79091-6.3523-1.3847c-.90829 1.0513-1.7126 1.9444-1.7126 1.9444l-12.65 1.6538s-1.928.2202-1.6131 5.2429c1.9052-.1902 2.7068-.2453 2.8817.9152l-2.4803.3116s.1239 2.5265 1.7226 2.5513c2.6159-.1458 6.4159-2.1232 8.814 2.7511-1.8258 3.0088-7.5563 5.7502-6.1637 12.606z" fill="#514b46" stroke="#000" stroke-linejoin="round" stroke-width="1.0861"/><path d="m360.17-394.47c-4.0301 6.4558-5.238 1.0215-15.148 2.5841 0 0 .01.9337 1.1348 1.033 1.2001-.031 6.2619-2.1936 8.6775 2.2319 2.8469 1.8626 5.2631-4.6553 5.3363-5.8488z" fill-opacity=".90196" opacity=".2" stroke-width=".99562"/><path d="m360.97-400.57c.086-.1224.4113-.857.4113-.857l7.0605-.029c-.1743 3.6011-5.4185 4.2984-5.4185 4.2984" fill="#514b46" stroke="#000" stroke-linecap="round" stroke-linejoin="round" stroke-width="1.0861"/><g stroke-width="1.0457" transform="translate(-1852.5 1011.4)"><path d="m2198.2-1409.1c-.5446.4091-.5765.8233-.5494 1.1977.5685.1956 1.6543-.4357 1.5979-1.3881l-1.0485.1903z"/><path d="m2219.5-1407.1c-6.1819 1.6395-4.0487 12.141-4.5906 20.186l3.4919-.01c-.6262.053-3.4095-10.623 1.1813-17.723l-.4424-2.3449z" opacity=".2"/><path d="m2197-1408.2s.1812-1.9017 1.1349-2.251l12.532-1.5523 1.9722-.064-14.465 2.1565s-.5842.3491-1.1737 1.7109z" fill="url(#b)" opacity=".5"/><path d="m2213.7-1411.3.551-.9855 6.0753-.049-5.8094.4213z" fill="url(#c)" opacity=".5"/><path d="m2202.1-1387.2c-.613-6.4946 3.6684-7.7118 5.86-11.277-1.8462 3.6084-5.8995 6.4218-1.9801 11.306z" fill="url(#d)" opacity=".5"/><path d="m2211.9-1410.8-.2455.5156-.9197.1022c.061.093.063.1374.072.2423-.1334 1.1927-2.0945 1.0871-2.2103.1763-.011-.079 0-.1606.027-.2394l-.5502-.1817-.8574-.2831c.077 0 4.6839-.3323 4.6839-.3322z"/></g></g><g transform="translate(-475.74 422.154)"><path d="m490.96-383.12-1.2692.78752v3.1293l1.2692.78795h19.564l1.2692-.78795v-3.1293l-1.2692-.78752h-9.782z" fill="#514b46" stroke="#000" stroke-linejoin="round" stroke-width="1.1999"/><path d="m511.24-381.97-20.994.009.88442-.54198 19.247-.015z" fill="url(#e)" opacity=".5"/><path d="m511.24-381.97-.008 2.4035-.86604.52378-8.4393-.0102s2.9487-.62841 1.9391-2.8938c-.001-.004 5.2771-.0199 7.3742-.0233z" opacity=".2"/><g clip-rule="evenodd" fill-rule="evenodd" image-rendering="optimizeQuality" shape-rendering="geometricPrecision"><path d="m490.96-378.42v1.9595h19.564v-1.9595z" fill="#514b46" stroke="#000" stroke-linecap="round" stroke-linejoin="round" stroke-width="1.2"/><path d="m491.59-377.79h7.5756v.70898h-7.5756z" fill="url(#f)" opacity=".5" stroke-width=".7"/></g></g></svg>