<svg clip-rule="evenodd" fill-rule="evenodd" height="50mm" image-rendering="optimizeQuality" shape-rendering="geometricPrecision" text-rendering="geometricPrecision" viewBox="0 0 50 50" width="50mm" xmlns="http://www.w3.org/2000/svg" xmlns:xlink="http://www.w3.org/1999/xlink"><linearGradient id="a" gradientUnits="userSpaceOnUse" x1="318.32" x2="324.86" xlink:href="#b" y1="-327.52" y2="-327.52"/><linearGradient id="b"><stop offset="0" stop-color="#fff"/><stop offset="1" stop-color="#fff" stop-opacity="0"/></linearGradient><linearGradient id="c" gradientUnits="userSpaceOnUse" x1="317.4" x2="324.5" xlink:href="#b" y1="-336.99" y2="-336.99"/><linearGradient id="d" gradientUnits="userSpaceOnUse" x1="320.65196" x2="324.60196" xlink:href="#b" y1="-354.41" y2="-353.2"/><g stroke-width=".91134" transform="matrix(1.0979 0 0 1.0966 -333.172 403.9215)"><g stroke="#000" stroke-linejoin="round" stroke-width="1.0936"><path d="m323.13-345.24c-.10551 9.4177-6.796 13.016-6.796 13.016v2.9923l1.4371.83413h16.904l1.4371-.83413v-2.9923s-6.6906-3.5982-6.7961-13.016h-3.0926z" fill="#514b46" stroke-width="1.0935"/><g stroke-linecap="round"><path d="m326.2-359.4c-3.628.0145-6.5609 2.8225-6.5609 6.2813-.00001 2.1646 1.169 4.1767 3.0938 5.3249-2.2396.33015-3.6252.95051-3.6252 1.6231-.00075 1.029 3.1873 1.3334 7.1203 1.3334 3.9329 0 7.121-.30433 7.1203-1.3334-.00021-.67263-1.3861-1.293-3.626-1.6231 1.9249-1.1481 3.0941-3.1602 3.0942-5.3249-.00002-3.469-2.9497-6.2812-6.5884-6.2813-.009-.00002-.0186-.00002-.0279 0z" fill="#514b46"/><path clip-rule="evenodd" d="m317.77-328.4v1.7427h16.904v-1.7427z" fill="#4d4742" fill-rule="evenodd" image-rendering="optimizeQuality" shape-rendering="geometricPrecision"/></g></g><path d="m318.32-327.84h6.5452v.63053h-6.5452z" style="clip-rule:evenodd;fill-rule:evenodd;image-rendering:optimizeQuality;opacity:.5;shape-rendering:geometricPrecision;stroke-width:.63794;fill:url(#a)"/><path d="m323.88-342.06c-.57755 2.3621-1.672 7.0009-6.4879 10.148l6.1115-.008s1.9598-7.5658.37636-10.14z" fill="url(#c)" opacity=".5"/><path d="m334.08-333.77c-4.244-3.0638-4.8165-11.458-4.7689-11.471-1.9532.7051-6.191.2904-6.191.2904 3.4851.81149 4.4652 5.0604 10.96 11.181z" opacity=".2"/><path d="m325.15-358.13c-.0474-.006-1.6799-.0888-2.961 1.2872-1.3328 1.4316-2.2865 3.8899-.74429 6.4776 2.0323 1.5197 8.4645-7.5574 3.7053-7.7648z" fill="url(#d)" opacity=".5"/><path d="m335.82-332.06.0274 2.6658-1.1769.68301-6.3402.028s2.2761-1.1984 1.4775-3.361c-.00075-.004 4.3534-.0127 6.0122-.0159z" opacity=".2"/><path d="m331.21-357.23c.30831-.09 4.3997 6.0101-1.4895 9.4333-1.0585-.44844 3.8613-3.8666 1.4895-9.4333z" opacity=".2"/><path d="m320.43-345.27s8.1304.86929 11.66-.0188c.3285-.0962 2.3196-1.1322.47692-1.7298-.25779-.17186-.73954 1.6332-12.137 1.7486z" opacity=".2"/></g></svg>