<svg clip-rule="evenodd" fill-rule="evenodd" height="50mm" image-rendering="optimizeQuality" shape-rendering="geometricPrecision" text-rendering="geometricPrecision" viewBox="0 0 50 50" width="50mm" xmlns="http://www.w3.org/2000/svg" xmlns:xlink="http://www.w3.org/1999/xlink"><linearGradient id="a"><stop offset="0" stop-color="#edebea"/><stop offset="1" stop-color="#edebea" stop-opacity="0"/></linearGradient><linearGradient id="b"><stop offset="0" stop-color="#fff"/><stop offset="1" stop-color="#fff" stop-opacity="0"/></linearGradient><linearGradient id="c" gradientUnits="userSpaceOnUse" x1="-415.77" x2="-394.77" xlink:href="#b" y1="-120.95" y2="-120.95"/><linearGradient id="d" gradientUnits="userSpaceOnUse" x1="-414.42" x2="-406.84" xlink:href="#b" y1="-116.14" y2="-116.14"/><linearGradient id="e" gradientTransform="matrix(1.1146 0 0 1 -224.87 -76.89)" gradientUnits="userSpaceOnUse" x1="563.37" x2="575.09" xlink:href="#a" y1="-261.47" y2="-257.21"/><linearGradient id="f" gradientTransform="matrix(1.1146 0 0 1 -59.405 84.556)" gradientUnits="userSpaceOnUse" x1="422.39" x2="423.02" xlink:href="#a" y1="-437.94" y2="-437.94"/><linearGradient id="g" gradientTransform="matrix(1.1146 0 0 1 -59.405 84.556)" gradientUnits="userSpaceOnUse" x1="417.93" x2="422.16" xlink:href="#b" y1="-441.6" y2="-441.6"/><linearGradient id="h" gradientTransform="matrix(1.1146 0 0 1 -59.405 84.556)" gradientUnits="userSpaceOnUse" x1="422.03" x2="425.95" xlink:href="#b" y1="-445.5" y2="-445.5"/><g transform="translate(430.27 160.86)"><path d="m-415.05-121.83-1.2692.78752v3.1293l1.2692.78795h19.564l1.2692-.78795v-3.1293l-1.2692-.78752h-9.782z" fill="#e7cd98" fill-rule="evenodd" stroke="#191919" stroke-linejoin="round" stroke-width="1.2"/><path d="m-394.77-120.68-20.994.009.88442-.54198 19.247-.015z" fill="url(#c)"/><path d="m-394.77-120.68-.008 2.4035-.86604.52378-8.4393-.0102s2.9487-.62841 1.9391-2.8938c-.001-.004 5.2771-.0199 7.3742-.0233z" opacity=".15"/><path d="m-415.05-117.13v1.9595h19.564v-1.9595z" style="clip-rule:evenodd;fill:#e7cd98;fill-rule:evenodd;image-rendering:optimizeQuality;shape-rendering:geometricPrecision;stroke:#191919;stroke-linecap:round;stroke-linejoin:round;stroke-width:1.2"/><path d="m-414.42-116.49h7.5756v.70898h-7.5756z" style="clip-rule:evenodd;fill-rule:evenodd;image-rendering:optimizeQuality;shape-rendering:geometricPrecision;stroke-width:.7;fill:url(#d)"/><g transform="translate(-824.44 202.67)"><path d="m409.86-324.5c.57087-6.6974-6.6982-15.67-6.6982-15.67s4.2014-5.9684 16.008-5.9684c11.807 0 16.008 5.9684 16.008 5.9684s-7.2691 8.9731-6.6983 15.67h-9.3101z" fill="#e7cd97" fill-rule="evenodd" stroke="#1a1a1a" stroke-linejoin="round" stroke-width="1.2"/><path d="m422.31-345.36c8.6564.89074 10.117 5.0938 10.044 5.2054 0 0-7.1763 8.3484-6.6055 15.046h2.0727c-.17781-6.5799 6.5697-15.011 6.5697-15.011-.40953-1.3448-6.4406-5.15-12.081-5.2404z" fill="#020202" fill-opacity=".90196" fill-rule="nonzero" opacity=".15"/><path d="m406.3-338.98c1.8777 2.9997 5.2634 8.7932 5.1067 13.822l1.412.004c1.2015-11.109-10.072-15.69 9.8109-17.465 3.7369-.6341 1.1826-1.7321-.2288-1.9022-5.2755-.66725-10.953.15797-15.389 3.2204-1.2536.85047-1.0177 1.5881-.71205 2.3208z" fill="url(#e)" fill-rule="nonzero"/><g transform="translate(5.1457 5.0514)"><path d="m411-363.73v4.5288h-4.7176v4.8255h4.4145v3.1809l3.3257-.00002 3.3252.00002v-3.1809h4.4145v-4.8255h-4.7175v-4.5288h-3.0222z" fill="#e7cd97" fill-rule="evenodd" stroke="#191919" stroke-linejoin="round" stroke-width="1.1999"/><path d="m411.4-351.79v-3.1915h.70963v2.5962c0 .0164-.70963.59531-.70963.59531z" fill="url(#f)"/><path d="m406.97-354.98v-3.6049h4.7094v.52089h-4.0551v2.2655z" fill="url(#g)"/><path d="m411.68-358.58.006-4.5207h3.7901v.54956h-3.1124v3.0198z" fill="url(#h)"/><g fill-opacity=".90196"><path d="m415.76-351.78.99052-.0175.006-3.1716 4.3468.006v-3.6297h-.94422v2.775h-4.3868z" opacity=".15"/><path d="m415.57-363.09h.87324v4.4133h-.87324z" opacity=".15"/></g></g></g></g></svg>